<mxfile host="app.diagrams.net" modified="2021-02-22T06:27:27.064Z" agent="5.0 (Windows NT 6.1; WOW64) AppleWebKit/537.36 (KHTML, like Gecko) Chrome/78.0.3904.108 Safari/537.36" etag="Cg2oTk78XuWJmkbfaVNe" version="14.2.9" type="github" pages="2">
  <diagram id="En1H7P2wKxvCjahpInkY" name="ModifyAccount">
    <mxGraphModel dx="2201" dy="763" grid="1" gridSize="10" guides="1" tooltips="1" connect="1" arrows="1" fold="1" page="1" pageScale="1" pageWidth="827" pageHeight="1169" math="0" shadow="0">
      <root>
        <mxCell id="0" />
        <mxCell id="1" parent="0" />
        <mxCell id="In71cTuvH5n3Y84KPgwU-20" style="edgeStyle=orthogonalEdgeStyle;rounded=0;orthogonalLoop=1;jettySize=auto;html=1;entryX=0;entryY=0.5;entryDx=0;entryDy=0;" parent="1" source="In71cTuvH5n3Y84KPgwU-2" target="In71cTuvH5n3Y84KPgwU-4" edge="1">
          <mxGeometry relative="1" as="geometry" />
        </mxCell>
        <mxCell id="In71cTuvH5n3Y84KPgwU-2" value="" style="shape=mxgraph.bpmn.service_task;html=1;outlineConnect=0;" parent="1" vertex="1">
          <mxGeometry x="170" y="480" width="60" height="60" as="geometry" />
        </mxCell>
        <mxCell id="In71cTuvH5n3Y84KPgwU-18" value="" style="edgeStyle=orthogonalEdgeStyle;rounded=0;orthogonalLoop=1;jettySize=auto;html=1;" parent="1" source="In71cTuvH5n3Y84KPgwU-3" target="In71cTuvH5n3Y84KPgwU-2" edge="1">
          <mxGeometry relative="1" as="geometry" />
        </mxCell>
        <mxCell id="In71cTuvH5n3Y84KPgwU-3" value="" style="shape=mxgraph.bpmn.shape;html=1;verticalLabelPosition=bottom;labelBackgroundColor=#ffffff;verticalAlign=top;align=center;perimeter=ellipsePerimeter;outlineConnect=0;outline=standard;symbol=general;" parent="1" vertex="1">
          <mxGeometry x="30" y="480" width="60" height="60" as="geometry" />
        </mxCell>
        <mxCell id="In71cTuvH5n3Y84KPgwU-24" value="" style="edgeStyle=orthogonalEdgeStyle;rounded=0;orthogonalLoop=1;jettySize=auto;html=1;" parent="1" source="In71cTuvH5n3Y84KPgwU-4" target="In71cTuvH5n3Y84KPgwU-17" edge="1">
          <mxGeometry relative="1" as="geometry" />
        </mxCell>
        <mxCell id="In71cTuvH5n3Y84KPgwU-4" value="Sub-Process" style="html=1;whiteSpace=wrap;rounded=1;dropTarget=0;verticalAlign=top;" parent="1" vertex="1">
          <mxGeometry x="310" y="440" width="550" height="140" as="geometry" />
        </mxCell>
        <mxCell id="In71cTuvH5n3Y84KPgwU-5" value="" style="html=1;shape=plus;outlineConnect=0;" parent="In71cTuvH5n3Y84KPgwU-4" vertex="1">
          <mxGeometry x="0.5" y="1" width="14" height="14" relative="1" as="geometry">
            <mxPoint x="-7" y="-14" as="offset" />
          </mxGeometry>
        </mxCell>
        <mxCell id="In71cTuvH5n3Y84KPgwU-21" value="" style="edgeStyle=orthogonalEdgeStyle;rounded=0;orthogonalLoop=1;jettySize=auto;html=1;" parent="1" source="In71cTuvH5n3Y84KPgwU-6" target="In71cTuvH5n3Y84KPgwU-10" edge="1">
          <mxGeometry relative="1" as="geometry" />
        </mxCell>
        <mxCell id="In71cTuvH5n3Y84KPgwU-6" value="" style="shape=mxgraph.bpmn.shape;html=1;verticalLabelPosition=bottom;labelBackgroundColor=#ffffff;verticalAlign=top;align=center;perimeter=ellipsePerimeter;outlineConnect=0;outline=standard;symbol=general;" parent="1" vertex="1">
          <mxGeometry x="340" y="490" width="50" height="50" as="geometry" />
        </mxCell>
        <mxCell id="In71cTuvH5n3Y84KPgwU-22" value="" style="edgeStyle=orthogonalEdgeStyle;rounded=0;orthogonalLoop=1;jettySize=auto;html=1;" parent="1" source="In71cTuvH5n3Y84KPgwU-10" target="In71cTuvH5n3Y84KPgwU-12" edge="1">
          <mxGeometry relative="1" as="geometry" />
        </mxCell>
        <mxCell id="In71cTuvH5n3Y84KPgwU-39" style="edgeStyle=orthogonalEdgeStyle;rounded=0;orthogonalLoop=1;jettySize=auto;html=1;entryX=0.543;entryY=0;entryDx=0;entryDy=0;entryPerimeter=0;" parent="1" source="In71cTuvH5n3Y84KPgwU-10" target="In71cTuvH5n3Y84KPgwU-30" edge="1">
          <mxGeometry relative="1" as="geometry">
            <Array as="points">
              <mxPoint x="505" y="640" />
              <mxPoint x="505" y="640" />
            </Array>
          </mxGeometry>
        </mxCell>
        <mxCell id="In71cTuvH5n3Y84KPgwU-10" value="Wait For Approval" style="html=1;whiteSpace=wrap;rounded=1;dropTarget=0;" parent="1" vertex="1">
          <mxGeometry x="430" y="475" width="120" height="80" as="geometry" />
        </mxCell>
        <mxCell id="In71cTuvH5n3Y84KPgwU-11" value="" style="html=1;shape=message;outlineConnect=0;" parent="In71cTuvH5n3Y84KPgwU-10" vertex="1">
          <mxGeometry width="20" height="14" relative="1" as="geometry">
            <mxPoint x="7" y="7" as="offset" />
          </mxGeometry>
        </mxCell>
        <mxCell id="In71cTuvH5n3Y84KPgwU-23" value="" style="edgeStyle=orthogonalEdgeStyle;rounded=0;orthogonalLoop=1;jettySize=auto;html=1;" parent="1" source="In71cTuvH5n3Y84KPgwU-12" target="In71cTuvH5n3Y84KPgwU-14" edge="1">
          <mxGeometry relative="1" as="geometry" />
        </mxCell>
        <mxCell id="In71cTuvH5n3Y84KPgwU-12" value="Wait For Provisioning" style="html=1;whiteSpace=wrap;rounded=1;dropTarget=0;" parent="1" vertex="1">
          <mxGeometry x="600" y="475" width="120" height="80" as="geometry" />
        </mxCell>
        <mxCell id="In71cTuvH5n3Y84KPgwU-13" value="" style="html=1;shape=message;outlineConnect=0;" parent="In71cTuvH5n3Y84KPgwU-12" vertex="1">
          <mxGeometry width="20" height="14" relative="1" as="geometry">
            <mxPoint x="7" y="7" as="offset" />
          </mxGeometry>
        </mxCell>
        <mxCell id="In71cTuvH5n3Y84KPgwU-14" value="" style="shape=mxgraph.bpmn.shape;html=1;verticalLabelPosition=bottom;labelBackgroundColor=#ffffff;verticalAlign=top;align=center;perimeter=ellipsePerimeter;outlineConnect=0;outline=end;symbol=general;" parent="1" vertex="1">
          <mxGeometry x="777" y="490" width="50" height="50" as="geometry" />
        </mxCell>
        <mxCell id="In71cTuvH5n3Y84KPgwU-17" value="" style="shape=mxgraph.bpmn.shape;html=1;verticalLabelPosition=bottom;labelBackgroundColor=#ffffff;verticalAlign=top;align=center;perimeter=ellipsePerimeter;outlineConnect=0;outline=end;symbol=general;" parent="1" vertex="1">
          <mxGeometry x="930" y="485" width="50" height="50" as="geometry" />
        </mxCell>
        <mxCell id="In71cTuvH5n3Y84KPgwU-25" value="787e8b2f-5bb1-11eb-9578-f8bc12816825" style="text;html=1;strokeColor=#6c8ebf;fillColor=#dae8fc;align=center;verticalAlign=middle;whiteSpace=wrap;rounded=0;" parent="1" vertex="1">
          <mxGeometry x="50" y="370" width="240" height="20" as="geometry" />
        </mxCell>
        <mxCell id="In71cTuvH5n3Y84KPgwU-26" value="" style="endArrow=classic;html=1;entryX=0.533;entryY=1.1;entryDx=0;entryDy=0;entryPerimeter=0;" parent="1" source="In71cTuvH5n3Y84KPgwU-2" target="In71cTuvH5n3Y84KPgwU-25" edge="1">
          <mxGeometry width="50" height="50" relative="1" as="geometry">
            <mxPoint x="170" y="470" as="sourcePoint" />
            <mxPoint x="220" y="420" as="targetPoint" />
          </mxGeometry>
        </mxCell>
        <mxCell id="In71cTuvH5n3Y84KPgwU-27" value="78812351-5bb1-11eb-9578-f8bc12816825" style="text;html=1;strokeColor=#82b366;fillColor=#d5e8d4;align=center;verticalAlign=middle;whiteSpace=wrap;rounded=0;" parent="1" vertex="1">
          <mxGeometry x="380" y="370" width="250" height="20" as="geometry" />
        </mxCell>
        <mxCell id="In71cTuvH5n3Y84KPgwU-29" value="" style="endArrow=classic;html=1;exitX=0.5;exitY=0;exitDx=0;exitDy=0;" parent="1" source="In71cTuvH5n3Y84KPgwU-10" target="In71cTuvH5n3Y84KPgwU-27" edge="1">
          <mxGeometry width="50" height="50" relative="1" as="geometry">
            <mxPoint x="410" y="630" as="sourcePoint" />
            <mxPoint x="460" y="580" as="targetPoint" />
          </mxGeometry>
        </mxCell>
        <mxCell id="In71cTuvH5n3Y84KPgwU-30" value="Service Task No Approval" style="html=1;whiteSpace=wrap;rounded=1;dropTarget=0;verticalAlign=top;" parent="1" vertex="1">
          <mxGeometry x="315" y="710" width="350" height="120" as="geometry" />
        </mxCell>
        <mxCell id="In71cTuvH5n3Y84KPgwU-31" value="" style="html=1;shape=plus;outlineConnect=0;" parent="In71cTuvH5n3Y84KPgwU-30" vertex="1">
          <mxGeometry x="0.5" y="1" width="14" height="14" relative="1" as="geometry">
            <mxPoint x="-7" y="-14" as="offset" />
          </mxGeometry>
        </mxCell>
        <mxCell id="In71cTuvH5n3Y84KPgwU-38" value="" style="edgeStyle=orthogonalEdgeStyle;rounded=0;orthogonalLoop=1;jettySize=auto;html=1;" parent="1" source="In71cTuvH5n3Y84KPgwU-34" target="In71cTuvH5n3Y84KPgwU-36" edge="1">
          <mxGeometry relative="1" as="geometry" />
        </mxCell>
        <mxCell id="In71cTuvH5n3Y84KPgwU-41" style="edgeStyle=orthogonalEdgeStyle;rounded=0;orthogonalLoop=1;jettySize=auto;html=1;entryX=0.688;entryY=-0.05;entryDx=0;entryDy=0;entryPerimeter=0;" parent="1" source="In71cTuvH5n3Y84KPgwU-34" target="In71cTuvH5n3Y84KPgwU-40" edge="1">
          <mxGeometry relative="1" as="geometry" />
        </mxCell>
        <mxCell id="In71cTuvH5n3Y84KPgwU-34" value="" style="shape=mxgraph.bpmn.service_task;html=1;outlineConnect=0;" parent="1" vertex="1">
          <mxGeometry x="450" y="740" width="60" height="60" as="geometry" />
        </mxCell>
        <mxCell id="In71cTuvH5n3Y84KPgwU-37" value="" style="edgeStyle=orthogonalEdgeStyle;rounded=0;orthogonalLoop=1;jettySize=auto;html=1;" parent="1" source="In71cTuvH5n3Y84KPgwU-35" target="In71cTuvH5n3Y84KPgwU-34" edge="1">
          <mxGeometry relative="1" as="geometry" />
        </mxCell>
        <mxCell id="In71cTuvH5n3Y84KPgwU-35" value="" style="shape=mxgraph.bpmn.shape;html=1;verticalLabelPosition=bottom;labelBackgroundColor=#ffffff;verticalAlign=top;align=center;perimeter=ellipsePerimeter;outlineConnect=0;outline=standard;symbol=general;" parent="1" vertex="1">
          <mxGeometry x="350" y="740" width="60" height="60" as="geometry" />
        </mxCell>
        <mxCell id="In71cTuvH5n3Y84KPgwU-36" value="" style="shape=mxgraph.bpmn.shape;html=1;verticalLabelPosition=bottom;labelBackgroundColor=#ffffff;verticalAlign=top;align=center;perimeter=ellipsePerimeter;outlineConnect=0;outline=end;symbol=general;" parent="1" vertex="1">
          <mxGeometry x="570" y="745" width="50" height="50" as="geometry" />
        </mxCell>
        <mxCell id="In71cTuvH5n3Y84KPgwU-40" value="78921348-5bb1-11eb-9578-f8bc12816825&lt;br&gt;Signal&amp;nbsp; 78812351-5bb1-11eb-9578-f8bc12816825" style="text;html=1;strokeColor=#d79b00;fillColor=#ffe6cc;align=center;verticalAlign=middle;whiteSpace=wrap;rounded=0;" parent="1" vertex="1">
          <mxGeometry x="315" y="880" width="240" height="60" as="geometry" />
        </mxCell>
        <mxCell id="In71cTuvH5n3Y84KPgwU-43" value="" style="endArrow=classic;html=1;exitX=0.583;exitY=0;exitDx=0;exitDy=0;exitPerimeter=0;" parent="1" source="In71cTuvH5n3Y84KPgwU-12" target="In71cTuvH5n3Y84KPgwU-27" edge="1">
          <mxGeometry width="50" height="50" relative="1" as="geometry">
            <mxPoint x="690" y="430" as="sourcePoint" />
            <mxPoint x="740" y="380" as="targetPoint" />
          </mxGeometry>
        </mxCell>
        <mxCell id="In71cTuvH5n3Y84KPgwU-44" value="" style="shape=image;verticalLabelPosition=bottom;labelBackgroundColor=#ffffff;verticalAlign=top;aspect=fixed;imageAspect=0;image=data:image/png,iVBORw0KGgoAAAANSUhEUgAABJgAAAEUCAYAAABnHoy0AAAgAElEQVR4Aey9D3RVx33v+6XXt1b+PSRB4vS9KxQJydhJSheYYCfHFDAGpaZOYoj9EHf54QuxzTLkUtcmt4slVuprLfJHOC61fRd1CtdarCdRbHCCix1h8285p8UYw4rqtMb6Z0ltn3HhcGiaBOzEvPWbvWfvmdkz++wjnSMdST954b337Jnf/H6fmd/s2bNn5ky6cuXKFfAfE2ACTKCECfziF7/AJz7xiRLWkFVjAkzARYD910WGw5lA6RNg/y39MmINR58A+8nolwFrUDoEfqd0VGFNmAATYAJ2AjwObufCoUxgLBBg/x0LpcQ6MgE7AfZfOxcOZQIqAfYTlQafT3QCPMA00WsA288EmAATYAJMgAkwASbABJgAE2ACTIAJMIFhEuABpmEC5ORMgAkwASbABJgAE2ACTIAJMAEmwASYABOY6ASumugA2H4mwARKn0C+U4+v4EPsf+cv0H/pDOZULMaXrvl66RvJGjKBcUqA/XecFiybNSEIsP9OiGJmI4dJIF8/GWZ2nJwJlDQB6wym1KRJmBT8ux8vkQnd26CHp7CtW7ete1tKSTcJKTPCS/dr9yfdLyTrQuRVJL9JCKJb7k2alMK2l0wdyQ5ffylXPWpy7sdL2rXHIMhTTcfnTIAJjCiBfB/cR/71GZz59T/hDz6xDEfO78Ob548l0ldv40qh7QvbJa09pbYqtQ2iCTbardS2l7Atpbbh4bkmQyWiyQjzDJ8DSvurpuNzJpCAwOj4L9X7FLZto36H2g94CffTtVbnpY8o/Rpbf0X1O2m3CLsf97t87v77lb5TqIezv+TrpfmqLV+ZPx39NJ6/2m3jvowKjM/zITBS/uvp1O09v+TzTVU04pPb+Fmn8uHzUSUQ5ydqX0qeh228o85r7br/Tm0+C3yfcLbvmgx+NoxqBZlgmV916fIHEZM/vOkxvHn0m5hOdzoewEe++AO8uQPQwnuewML6e/GZS/8LDQB6npyPzz/3dbx56aiXDj/B+rJ6fPE3/4gj6+u8+w9/Dj+69L6IL0SvewA/vnxrcK0p8v5vo/l9bhK+8eP38WSdcU8m7HkCu1XdZfjlD3BJnqvHqgdw6Oe/xcI1wF+TvT1P4H+q6clGmScZyX9MgAmMOIH/fNV/wqXL7+M3v/ktfvPbD3Pmf/zcXhzLvoTp5fPxs1+/gk9O+jT+tu9xZC+cx5yq22PTa23caLV91nbpG/jc7v8HWxcfw3pqmKl9/BC4fPkFfKP+b3DHz9/HIdFg/wTr1/0G9x9+H/eTpdSGyfbNt9zW5sOap/Ic4LYwtt7wTTeBUfNfRaXP/MPv4n8+9idYKPoij+K3Pz6Ghe8bz/sg/gf4+WPz8Xlbf+X9632/U/oUwhdn4L8ffR/bSIbF57BhRuiHlz/Az+P6S39E/RuXvyv5BvoC7L8qDD4vJIGR9F+hd89+7P7wG1iDv8GP/vEB73kn3zEsPonD7+PXlNDid/ysK2RNYFlxBHL5ya8vve+uo9Y6/xOsj/Tt/gmXFsu+3we4RHX+tn9Ay8/fx/rpH+DSZYuG3LezQOGgkSBwlX3E9Qoo/AppsOR2rP7qC+i+cp3QJwivrcNn8U+AiPcT/ODhK/j+m+tRK9OhAU+8uRW3fONFdK+7DS89R/efwpLgPrDkyaf89BZTr4jcQz1q1+Pwm1dwyzf+Et1/7cUPdJHJzTQyPO6oplHPKY2a5xJ/wC1OFt9jAkygKAQ+/PBD0R7Z2ys9y65fnMB1/8divPPhW/i9q/8L/gP/gv88tR6Hzm7HDf/lj/XIkasSaPtIJ7UtEufX4U/+DPj9H7yEdU9+Wb+Pz6G+lvSmhA144km67bWfmpyIrUZAJE9PjpDEbaEBiy/zITAq/qsouOTJH2P/R1bjibqvY99zy/HDI1dwpcfoYwTxe/Ciq7/S8wS+K9zT7x9RGtVvbNeRsBz9pS9Tgjh/p/uWP1UP9Zyisv9agHFQUgIj579Az4vPAst34va3PovvvtiNdeKLSoxPyncKs87HGafGVc8pDftKHDm+F0Mgp5+Ydc2XZa/z9Iyx9O163haprnT/JRZ+/jkse/MY1gX9P4dyar7qOUXn+u6AxsHDJWBdIqcK7XnyO9h503X+rCTlTscLYXhPF/7xpq/jj8QXdCXO9Hp89vhb6Ol5EfuOfx7XmveVqIlOpTyKfPxh/P5HrsZH5b+FT6DHFv6RdTiYSLgjkpqnIwoHMwEmUDoEpv5uFS78ZhC/+O0F9P/2bfRcNYh38Bau+qX4zplY0ZJq+0jrhqfwI3wV6ztUE76Mr6z5a3yN2sH1P1FvFP6c28LCM2WJEQLD8l9XvwBfxoMtwLe+9hyW/bXyscgWv1D9lYhlfkCu/pJMZ/V3eXMIR/bfIUDjJPkSGJb/ogcv7QWW/dF0LLn9Gzi+90WvX19snzSNZF8xifB10Qg46jzi+nbP4V5/cEmMvw5XN67vwyXI6S0E7DOYRKfrYS/6TVvReXg9anue9Ad1jHD6ehB8LFe+6gWZ+fdvuk6Z3RTcdJ84ZUp5nl7amBXp6OurhcsvHLbc1HzUcy0u5WmzTYvEF0yACRSDwCTgww+viJkCwcwcSz6Dv3oTHWefxq+u/Bpnr/4VfnHVv+Nj+Bg+xG/wiZ5BzLumKZzZY0kvgkqh7SNF1LZIOV/8J1vx3XufQPcPPQOIx+InLuGXTwA4uA4f/chXgdU/xi+f9Nf0Kmn9U5flzjz1dNwWugHyHSuBkfTfmOd/bf3nAPzcb0d8H7PFF/0IR3/F5k9mmHlNUNQw9TwCzO/fiIlRV2Dzdz95JGWyPNh/o+A4JJbASPovDSTh63iaZmTU3o7VX/sOXupej3WkYK53iFi/MixU46rnWjT2FQ0HX8QTSOIntrrmqvPTYe/bPUgTLIBl3/8cvvWNJ/Dlw+ujE0BMTdV81XMtHtd3DQdfDJuAfQYTdbp+dQm/pH9q5ZXh/7AVNx3/J+/LAqkgRj+fw0/EFCJFJ/Gl7npMd91XoiY6lfISRS5QpNHIs0CqsxgmMFEInM68iL/9lx9g8kevxTsfO4/MVf+G8t7/wKcGsvi9f/4llv5fj2DO9Pj9lwQr2caVWtsnC3L6ejy97Dn8he33EZY8hV/+6sdYvXP/8GZtyrzMI7eFJhG+LhCBgvmvU58OfPNrwPM/+hy+de+TYd/FFr9Q/RWbbApzybf5V5y/u+S7wm3yXXE5nAnkQaBQ/tvz0nM4fvxhzPxoGT720a9iJ45j30s9bp/JQ8e8orKv5IWLIw+dgLPOqyLNvt1NX8eX1z+FzmXPYaY+pV1Nlfyc63tyVhwzMQHrDCax24k5Y+cK/fC3+KyGK7Xr8Mrz6/Hxj67Dvl8+iSVYgj/5/ncw894n8OVD61Ersu/Af//9h/Hh999E7ZXp3v3fX4c6Ed/T7+A314M2DFliU1fNT5H32ed/jdorT4a6qGkjadSbjnM1jXoeyZNnMDkIcjATKC6BKzSDKX4PphMXXsD/WXEjfnS5FR+76uP4ZM+HWFz+AL5Q/2VgEnD1f/p47tlLAEqi7SOaalukntOS+XV/Bnzsazh+UwvQ/QQW/kU9Dj/hz1jqeRtv3nQd/kS230ba2IJS46rnIpHXnnvtL7eFsRz5pk5gtP0XQO9T3wGeP4LFi3vwve9+Hn/RsQ5/OV3p02ga+/0Za3/ldnz2+HfxUvc6rPOnSffSS/Fn/yycoR3xHcOfc/aXXtL6N5q/S7/W9PUv1HzVc3Gb/deGjMMSEBhB/31p33Gsfv7X+Ev5UnBwPT7+vRfRs2597neISJ2PsU2Nq56LJOwrMeT4lotAAj/R+nVCTg+cdf7LwDccfTv5Ll677q/xvUWfx8In38Rh+UCy6afWcfVcxOX6bkPGYcMnYB1gwoe2qXLkPfTe479cLH4CP/veLfiDjy3E9zoP44EHDuNnV27BzI9tDLT6b/t+hUNLvDQ1/v0/+NhHgvtY/SP8QsoLQ/2zK8DxbynybsL3On+FB2jqbK95j5LchO/tW6brGJFpBPQ+iUUzv4UTAGZ+7J+wr/M6d57+tEJDAl8yASYwAgREu0NthVyPa+T5O1f9Lv4V/x/Kr5qCT/S8jyWVD+BL134tiOVKF0SQJ6XQ9tnaJbXtxRJs27caO79Lywj+CMvf/H18/GPSAGonD6MmaFeNdltGM4+2PF3tL7eFJj2+zkFgxPz3+Ealz0BK3YTvfe+z+B97l+Fnh6n9qMUDT38fi2auw8HI896Pr/Rnov2VJVjc+TYWzfwI/oe0ee738bPDS5S2yfA507f+40ksjusvUf/G5e+BX8vM/aOZR8Q2pf/E/mvA48tcBEbKf/d++H38cDH5qa/R4tvx3+74Ll7qWRe8Y0R9Un7wMP3GYRX7igMMBw+XQC4/EWul1ba990U46zx+aO/b4Unl+VCLB175Ed76+Odxy5V/wCHbIBPX9+EWK6cfIoFJv/iPX8mmfIgiOBkTYAJMoHgEPlJ2Nf75X/4Vn/70Nfjgg99YM3qp73/hzYvH8DsffIgFn1yDGz4jforJGpcDmQATGDkC7L8jx5pzYgKFJsD+W2iiLG88EkjiJ+PRbraJCbgITPr3X/xylAeYDmLDJ+7A/45oeBO++7NDeMBbbxe5m19AIfIohIz8tObYTIAJQPxS5OA//yt+79OfxvsffDCOkIxGm1KIPAshYxwVI5sSS4B+6XV8+m+s2UW6WQjfK4SMIpnHYkuOwNj130LU80LIKLkiZYWKQGD0/aQQdbUQMooAl0WOSQKTLv77f4zyANOY5MZKMwEmMEIEPvrRMgwO/gt+7/c+jfffH08DTCMEkLNhAqNIgP13FOFz1kxgmATYf4cJkJNPCALsJxOimNnIPAhM+vnPf84DTHkA46hMgAkwASbABJgAE2ACTIAJMAEmwASYABNgAjqBSR988AEPMOlM+IoJMIESI0CbJ06aNKnEtGJ1mAATSEKA/TcJJY7DBEqTAPtvaZYLa1VaBNhPSqs8WJvRJXDVz86/OboacO5MgAkwgRwE6spq0H2pL0csvs0EmEApEmD/LcVSYZ2YQDIC7L/JOHGsiU2A/WRilz9brxP4Hf2Sr5gAE2ACTIAJMAEmwASYABNgAkyACTABJsAEmEB+BHiAKT9eHJsJMAEmwASYABNgAkyACTABJsAEmAATYAJMwCDAA0wGEL5kAkyACTABJsAEmAATYAJMgAkwASbABJgAE8iPQPEHmLJtWL2nDYOmXn3NmLN9lvi3ZaJvreJiZDIbi9elZlup6WOWaS6/KHX9TXtG8NrazhQ7/5Euj6T5JY1XaD6jlW9SO9i/kpIa8Xjsvwry0fKj0cpXMT32lP03Fs+YvVnq9W7MgmXFS5NABife3orHB7qKq97FA3i8sxUnLhc3G5bOBGwEYgeYVtMA0KG0li59aBbm2AaMtFiWC+0BksaWji48tOI0Tq49jU01lvhB0CDa9wwxz0BGAU40/ePkpbEllk8aW/yBNW+AbRXaL+SQF8Rvhl4aerrBU6uCQTs5eCfKj3QPZMzC6lNyuE/VxS47vrxzp9c1VONH6xaQi52U5ornCpfp8j2q+qp81HDFDifnMN+cPFW/qFDLbRXas6Gc/M8MNi5dtXBbnoYcUkTp9Id1K38Ni5fCKK/t0i41XC1fqYnFVnkrr6MpJ1e+Urgajwbjc7UVMp3raOqRb7yk6V1yzXDVPpW/Gu7bnQWStW+ybM286Np47oxl/3L5qRbuautDpjZKpRdmrw+iPIPnmlp/pAWFqq+mHFUfW75K/oF+7L/sv4o/an6qtFlauBKf2i6zLg2rPyDr6AQ8EmNrH9308wnIhk0eEQKZ915AuuyrePCaDHZ1bsWu9zJhvpdfw663X0NGHsM7gAyTR9s9NWzyUjxYPRXp/teg5KDG4HMmUDQCV8VKrlyOZeefRns2hcZyANk27Dg/EzNjEzlulq/Ezrv8e9l+dKMe80lmrr/sq3gZy7EMHfhpdqWnR640o3SfOlB3nOgEKjfi7lgdlmPb2iakZJxsG16W59qRBtfWAw2ncZIG4ehFfk8bnr9rJaq0eN5F1exWnJwd3qDBjB0V04ALR1DXcBo7xUAedVSa0F7bimlvhLKF7ofSOLko0AoiPZY7yzt9KD59qIl/1ncktAVkW1NQt5Kyc8VzhUd0SBwQw95lx4VeK2fhO/R6S+URwxOaXwyi/WAHFq84jZ3kJ1T2B9tw85LEBgQRrWysujYDtjz9+maVQ3p1ANvWng7rc5BzKZ0YPifKw11/rbYOwRybnPz8xtDb2VbEK2fTw5bCFc8VbpORLCzGv4QAw24Ks7ZvsPuJrY0cN/7laBvIZqtft/rPTQvTZIVVArGiusf5UaHqq01OXL5RUIbe7L8BIq9/wv4bPNvHtf8GxV6SJzY/L0lFWalxQKALx98FUjPqAbwGlF2PKdkXcGLyKsy9ugjmTf4iUmd34vjFG3Hb5CLIZ5FMwEEgdgYTUIv5dcDLvd6Ml/QbLairawhFaV9blC95avjuFnRSiuCrQRpbRNhebKAvMnuasWXPLITL5GgAJPyiM9jbAdStwvwpnYEengL6Fx0vvSVM1WW7r2Ogi2+KvPaP7TRLy/9a5MmlDn0LOjMtuGO7/1VJyA31JEligGfFRn1AxhLPz9U49GIXzdQS+Uq5A+jLLMd8OcOrZiGWZXoxIFJabFUl0mBg13KsmV0F1DQps8SmoaaSIqZxrCuUXVXbgJnn+4OljPTA3VGxHztvqFWlKucx6YXNvi2y/CmlpgfZVo9p/iCjlZ2Smzx1xbOGq3oodQqwsZY5yGMMe5cdWrjk7MlLwlP3i1ZoK0crapV65dLfXiesbGJ0lQSg5Wmv3+lemomoDJYGiUfjxMXFpktM/XX4MpWhbBfEbKLgC7I73yj7+HxtmkbDHPmp9V31O4c9Ubn2MqZ4UTv8Nj34qi7bLIrt0E/LMMa/tHiOi6B9m6ZHMOpseNN87owj/1JtTuLXIZQSO0tSb6TK8X5kq6/sv7a+idnnIL5JyoH9t2DPx/Hiv+rzR/a3KGxPG6J9auP5oT6vXHJk/100AdTXUfrz5nPIma+lL+96vsmmho9MoJAELr6NM2XXoS4YTJqKm66ZivTZYi2Xq0Rd+Sdx/jLPYSpkMbKs3ATiZzABmDb7PtRtb0W6thY7zm/EIzcA3+4mwV6HXc6Moc7bHWIGDMQAkgwXA0sHVUVS2LRiI7oPAo/Ir8x9wJzeNDbVpIC+I9hXfx9OioGHQfy0G1i8pAqpC8ux4fVXMTibZu8YX7+FeFsYPYRaglklgY43qPoY55kW9H3hNE4u8meNvN6Gu2tWonHJRrys6hy8XBrpE13S4NpeEXPm3P3YSWM4mS7U0JLBcm8pyB00W+WuagBdGMgCKcGDBi3oehADB8PZF7YsaTAQc/dHZ5WIGWENeKQc+gBGeTXqMke8watTq/BtNGMnDU4ltTNIn8au3SHzaPlTOX0Fj2WML7s2I4YVRvWzF2vkzBrqcMgZQFbWtllhNvayLHLYoXCmepebp8Uv5LR4r6bgoRWtqEKbo67Mw0/V2W75sAt0rULVXfd5U/G1PF3C6CWvE/u6ZuExP8qyhlxLXl2yChAeW66Gzykz/UTOQf2FdXYgxREvrTIdzdx6I41Gakti881hV858Db1j2op4v8uhR963i+1fht3UFil/YftWhVSiOjue/KsKjUlsDvxagotnKmON2jHWj0zdDS1z+hH7r06M/VfnEXMV+FGhno/j03/d/S1bn7ra0U901Mu7VmJN/Swc62tCSszmp/eEhdgk3kNc/Txbvpa+fEzR8y0mUGgCmcvnMLX8ixDf+aXwyUtx+8WtePHiw7itTAYW7lh59VScu3ge0HMtXAYsiQlYCOQcYAJSmF+/Hht2A/TyKF5wSRAtN6jciEf82TViBszuI0jfUKuFW/KMBtHMnI4jSNPyrN69WFbb5MUJHuwAyinO094yOdCyuTBvEVnENcPcOkaV8ENoeZucMaR+WTIT0JK/tSvN0Oh1JF4Km2jfKRGTBsCa0F7RAFQ24GY5m4dmE52gmUorsWlFP1bvDl/ggeXYhlexw7RfzVl+3V+rv5R5g4K07IoGKly7OdGgXic6M1/BnBOh0Dv2ANvqOrCBlgACmDl3I+rC2+GZUS/CG/KMOlen0SgGT1ZhYIVcviHvh0cxIBjkt98b8Apvx5+J5TB7sc8fyPMiL8cAah2sAcgljsK+/di5oiHK3i8jGoZw20GdJMl5EO2JePoDjYpV4VIMfzBLDmjY6koWUZ9QZLlPVV1pGZ8cuFTyVJZNRuUoA4U0iLe7GWl1+Wc0QfFCbFxoYAgWn6u9L389hH3+jExKXVnrzfhz5ptfFtH6btHb1VZkkXe7G83PbC9i9C+qf1nsrlXaCaN9c9XZiH3GZExrOhowtJVnifkXcvqp7tf0HI88d1SmMUU9Yrds3Nl/nfgj9dsYhHUmpBvsv7F4wpu6H1nbjCE8H8ej/3bD1d+y9Kld/URnvQRStcuxwf8QLWZO39AkVkbklW9YsHzGBEqKQN018/D3tFcSzSso9F/ZVEw9mxH7MGkDW4XOh+UxAYVAggEmIHXDRszs6vWWaiWd0aJkkvvUG8Q61rcQoGVbNHsIAC2P68x04o7tLYGImb2DaDReFIKbY+5EX0ZlVV8doBKzcABjUUgkWfh1X71Fg1lPo8Y1oCMe+LW4m17HxQCQn9bP05tttlLZ4ymNLSd6wwyC9GFQ/Jlf5rTBeTBoo6fQZozot5JdVW6M7ldFL6eO1NH8lEFEJ3vTDpOzHIjyM3XypE6/ohjpSTMGhS+QjP0A7Vl1QVmiqkQf2qmhqytPuQdbrkzK52FxZYcy4y5XgtG47/C5XPWXyk0MGvp7YvnlOGwLlHyj9U+V7tBbjZLneXx+CYSNiH9F7dbat7g6a+zZNG78q68NL9vahsBPDb+OFGWUaSRKyQY4dFf8yKo6+28UC/tvlIkWYvhRXFvj6MNo4uTzcbz6b571SWOjXtjk0P2aVXjo9VbxafTY+QbcTcypz2SLT2WlyuRzJlDqBK6+EUvLW3H84nWF1/TSOZwru5bnLxWeLEuMIZBjDyY/pRjkMPZZEVPSW7DL3yhGDAbVL0RKhNOG3F5aER6jgLxFg1jdHevRPXeVv6zLm0lDs6bol+bEv4bl6Ox+FYP0oEaYt5BhDaNlX2G8QEdKEOxl5A9kSUXijkoasfRLrjOPS0MdWzVeX3O43xTNuqJ9iCp0AZqewS1v7Tjq5qHKZquMRw9WufeSErY6MrhEAyN7cUwtvynVzuVBUlR4dKSPKf/BU83KL6HR8qqZqDFsD+UP88yony5pdtZmbIU9DXy67BBlHTOIZ4qNuzb1z1VX4uqELR+brq48nZ1nrw7skL9KKHUUHT+q9+a+bDHXNh2HEaaVq83nyh31Ny5PZYaFkG+Jq+Vrue/NCE3odza9DX8J8ovxO6saww0064pDXqCf474XrPsXbXob7Mmn1imKbLZvph5mfFe+rnROvpZnjku2r2ekzXXlma9/1ejPNag22/ya9IljGmfHKN3T6o1Vd/bfYRWNWRcdwrRycMQBbVlwsAWib0JxrOXlJ2b/xbRx6r9qX9tZVeQNUf8s7wmx9bIKN9d14dihI+imfjDJio0vM7Mc1b685TYHMYFiERDL1bJd1l91q/zUl4B3X8U5yvzqSky59Ba6L4eaZC6+hXNllXkPFIlleWVTQkF8xgRGgECiGUx2Pbw9LWj51hwRgZbKeL9AtqnhCOb4y7pm1rt/hUyTSy/IlR1Arb9MgzrN5jIwsZTOXya3ZKNYvuTl7S3f22QLW6HGkzqm8MjcVWLDbtIhkY7l3hpw2jsp2DdJM8DfO8lf0kWzrsR+NMYLC20M2R0w8/ROoQ07xAbi/kwt8UXG/zU38Stdyn5N/jR42hMqZO/bX+N39Iy9l0QnEZ3oVJbaCRsWPYljtDmiUX6GWc7LlCO9q/yrKoDHFB2Ij/yFNXW6f8BOLlVUNHDFs4ZrZe9/6aJfYXOxVvIRpw72LjsGT3UQ5SjnfJYuBDqY/jVT7MEUV1fsdcJeL+++4NBVYybz9JSyMl60HwN75HJKPX5gykiduMrV6nMAHPWX1LXZumbKrGA2pdZmuPJ1yNkUk6+Gyqq3u61w+Z3Lnk0l6l/2NlJY4b3Iau2by080kpYLVzo331Lyr5TDT51tfa3tuWPBMppBLj+y+gH7L/uv2geSzx7239FyYdpbVe2TiplFzl+9TcH+vDLbZX2GEm3F0S321pTLuR3xnfnSoJTRl59dZX3e2/xrtNhyvuOIwORrMaP/79B9+UbMjZhVj9uqr8eZs3SjHrfNyGDXma3hhiZl87Dq2nrg8mvApVfR2vmqL+F63D5jajRs5lLUIYPu7L9hyjW8OC6CmwOKSmDSyXdPXylqDkmF08v867XRJU1J03M8JsAExi2BurIadF/Sfldv3NrKhjGB8UaA/Xe8lSjbM5EIsP9OpNJmW4dKIKmfZN5rReulL+HBafVDzSp5uosH8PjZqVh17Y15z3xKngnHZAJRAsmWyEXTFTwkTZt7f8H2S14Fz4oFMgEmwASYABNgAkyACTABJsAEmAATGDEClZ+6HalLP8bjA13FzZMGl/rPIVXNg0vFBc3SbQRKZwaTTTsOYwJMgAkASPpliGExASZQegTYf0uvTFgjJpCUAPtvUlIcbyITYD+ZyKXPtpsESmYGk6kYXzMBJsAEmAATYAJMgAkwASbABJgAE2ACTIAJjA0Ck7LZbGnswTQ2eLGWTIAJMAEmwASYABNgAkyACTABJsAEmAATYAIGgavOnz9vBPElE2ACTKC0CEyZMgXcVpVWmbA2TCApAfbfpKQ4HhMoPQLkv4v+ZjL+6o1JuP+GK3xkDlwPLH5w6P++yP3U0mu+WKNRIl9uuksAACAASURBVDCpp6eHZzCNEnzOlgkwgWQE+AU1GSeOxQRKkQD7bymWCuvEBJIRIP/t/la5GFRIloJjMYGJRYAGX+u+n+UBpolV7GxtDAHegykGDt9iAkyACTABJsAEmAATYAITmQDNXOI/JsAE7ATYP+xcOHTiEuABpolb9mw5E2ACTIAJMAEmwASYABOIJUAzNPiPCTABOwH2DzsXDp24BIo/wNT/DO688xn0m4yPNmH69OniX9NR8+YEu3YxGg8YSs22UtPHLONcflHq+pv2jOC1tZ0pdv4jXR5J80sar9B8RivfpHawfyUlNeLxRtR/ZT2Vx5GyNml+SeMVWu/RyjepHey/SUkVPF7BZmhUAvvuBGYUWsNiyS20nixvXBLIzz/68cyd0zG92C+/or28E89EXsDHZRGwUSVGIHaA6U4aADIc4GjTdEy3DRjlMkzruBxF05oz2Hy4Bz09PWheEJfYd8Sh5BknNt97mv5xiY+iKVbXo2jyB9a8AbY78UxfDnlB/CbEjcX1P3NnMGgnB+9E+ZHugYzpuDNobVRd7LLjyzt3et0yNX60bgG52ElprniucJku36Oqr8pHDVfscHIO883JU/WLGrXchvuQMNi4dNXCbXkacsg0pdMf1q3Q5tE/M8prurRLDVfLV2pssVXeyutoysmVrxSuxqPB+FxthUznOpp65BsvaXqXXDNctU/lr4b7dvcDydo3WbZmXnRtPHfGsn+5/FQLd7X1IVMbpdILs9cHUZ7Bc02tP4Vvk7R228nYJGfRO/ZZb6Y3r5P6nyueK9zMJ+m1ap/KXw0P6xr7r+KPWh1S2iwtXIlPbVdQ10OmSUuqEPGKPkODBojuA04a/75Zmaf2hZITly0PZsXRmZD38vGP/mcexqMzdqDn3nfEu5nWb6Y2gN4h5VGlKcPk0XZPDVvQjJ4dM/Dow5ZJHmo8PmcCRSAQO8CE2Y1oPPNUOPrZ/wyeOjMbs4eiSPU9ePbZe1BNafvfwRnMwGfERQ5h/UdwAI1oxAEcKfFRWK8DtQbtOUwCGrGjxxtc6+l5FvfUuBLQ4NoaYIcfdwewJmbwqvqeZ8WAHQ3a0b8djcDsuhqgrxszpIyeHZjx6MOiTI82hbIPbz6DNZbBxKfQ6CzvXOkjVh19JbSl5zA2K3UrKTtXPFd4RIfEATHsXXY4OMss6SUljqfuF/145uEDWOoPwg7nIWFlY9U1Pk+rHBpcEtXIq3PP3pPEqSWRkTwaPldN42Lu+m+1dQjq2uTE5RvNwtDb2VZEU6ohNj3U+/LcFc8VLtPlf4zxLyHMsLsasLdvSO4n2nMnvq7nY4+VTVH9K0Z3a77SmihTeaf0j1HdnX5U4DYp0m7HMjZJGnqz/wZ9FK9/wv6rPdtj65ZRl0b4UZvfDA3TDxJeXwD+69PAHOXfE5mEadVohZKjyuRzJhBDILl/HMUPHwU23+vPrJjdiBkHvHeyGPFDv7XgXmzGo/hh3OyEoUvnlEzASSB+gAl1uHUpcMAf2Tn6w0cxY+nSUBiNogZfVZQvWGr4LY/iFKUIRlyPokmEtWMNpb2zCU13Tkc4tkFfasIvOv1HDgBL78WtM04FengK6F90vPSWMFWX6b6OgS6+KfLaPz5Ds7R8uzy51KF/FKdOPYpbpvtflYTcUE+SJF6ADm/WB2Qs8fxcjUM3fkhTJkW+Um4fuk814lY5w2vBrWg81Q3vI6jFVlUiDQa2N2IdvfAvaFZmidWgTowQHsUr7aHs6oVLMfvMO8FSRnppeqruMJ69t06VqpzHpBc2+7bI8qeUmh5kWzjIaGWn5CZPXfGs4aoeSp0CbKxlDvIYw95lhxYuOXvykvDU/eKH6Jaq0LGmTqlXLv3tdcLKJkbXIFstT3v9PvoKzURshqyiQdpROXFxsSkTU38dvuwNJJg+SrLd+UbZx+dr0zQa5shPre+q3znsicq1lzHFi9rht+lB+y/bLIrt0E/LMMa/tHiOi6B9M97YjTobpjafO+PIv1Sbk/h1CKXEzpLUG6my24+cbZLTP9z5WtvtYTN25OfUz+F/EoVytPop+69PqESfj2PEf3PN0JjxBWX2ES2BM2f5GNf33xnGj52l5Kf75uIw/g+m+0VK9+SMp68D0xRfiJz6cf9YufGD+wBxrcq5DxD6xOT7zUXAtArg/70P2PcFRSCfTlgCufwjAHP0FbTPXoqFwQBxHe5dNwOPFm0EqBoLl87GmXdKfIZGAIhPxguBHANMQM096zDj0R/iqJi9tBn3LpSmex12OTMmnAGjh/eYAy5YgGYKm70Zh2mmzbPNaF7XiPZX/OFVcr7GdfAmQvRDjC8trMaCWxtx6sARfwDE+PotltnZwnRdQh2lDZbjqUfRfaucMdSI9qdoamE17tka6jz8WRr+4JocrCI1Tp1B3VYv38OboUxpPIOwXaBBC7q22arbQoOB2Hxv9MVfzAhTGzc/XfVnMMMfvKJO9cPYirzsDNLrzKPlT7rTS/oruLWnmAMTpEc31smZYoeX4oCcJupkrTMEbOxlnBx2KJyT8bT4xbPr0H2LHKg7gKVb/RmAVv1z1wmpeeQY6FqNe1x5RhJRAL3kncKjUsfp6kCxNUFxA61cZJYWn5O36BjUXzVQPxcvb7I+0bRj2SGIzVeXEbnKma9Fb2t+ufwukvMwA4rtXxa7FY3D9i1pnR1P/pXQ5sCvJbh4pjLWqB2t9Vpqk0P3wI9cbVKMfzjyTdRuRxhLfeXRorc1vxj9pKiCHtl/47dmUGAHZZzQ74KkrrqYUE6QrxRoqUvy1ggcc83Q+M4s4M/9mUd/ngXq43SqAPoOeTOV/utpYNUif08mf9AmWCYn92qqAGp6/ZlNh4A/nO3F/8HXgXd8OXOeAwZknjY5GWBnH3CLHJyaDvxhH/C3AEjOTjlr6jlgoaKPLd8nDgED/iypZa/LTPk4kQnk8g/Jpv+dM5i9dKG3mkcGLmjGDqxRJlrIG4U5Vn9mBk51D2t9dmEUYSkTikDOASZgAW5tbMeaWx7FjHX+Cy4houUGszdDzvITM2DaX8FRIzwRTZqZQ2nplfWVdjTKKTvqA1bM3vGXyYnwMG+RhzXMoWOcUopN+qwRIxEt+aPlbcEotHFfXkbiLUCzfEmVy9XI75URbcFSDPbQS9FSHAhe4G/BozTrB7Rs0LBf5kfH4Ou+qRx1KpWBCjVNcE6Deqdw6tFbvNlUNBOCZm7d+QyOKns83fnMO0EK7SRn+VPnigbSbsUr2qwiTYq4oA6+nEmmrVGORo2GiOUwYYdsurDDn/1lZa3v8XLnMzV29gHSODtUzkl5Rr8uhEtADmPz7FPhgIZNf1v9j1KxhKi6qsvGjDwtKb0gZdr+4c04s0aZyehMU6QbNi4iK4vPRXHnVkqdYbCmHZAz/pz55hapxojWd4verrYip9+pOXnn0fyicZwhRfUvi91qeRntm8tPctnnSmdti0vMv5y6BwWm+zU9xyPPHZVpkG4UT5x+lK/uljYpzj+s+brb7RCbzjha3yx6s/9G+ieuuhzlqddNVzr2X51Toa5yzdCgHuGf+zOC/vZlb+DGmfcF4KC/9O1MDzBQ4Q9ImUvbnqXPfAAuAH/V40u74A8kVQKfUcPVzBxy/rYX+MNaL+If1wKtbwAgOb7uYmCLZkIp+kTyVfPhcybgE8jlH7lALbh3M86ICQ25Yg7hPs2SlP3VISTnJExgKASuSpKIKv7s9m5vqVbYu0qSNGEcGsRag1eO3grQsq1mLxktjzt16hRumf5oIGf2kX7cE8yiCoLH6Im+jMpqhBiguse7RS+4DwPGopBIMu/r/mFj9hJND38KdYcdg2KiA16He1GNBc/2wM/RW9r4MLBV7J91D3qCG0fR9KiyiCtIH1HHEeCXOXW4g0EbPaqYMRLkp99LdEWz5OS+XzIBvZzKc+MYzY8GEXOxN+0wOXsDUYEZfhlGedLAoKKQP2Nwq/AFknEYVPjP9ClLVJXoQzs1dHXl2b8g90AqKVC9EEtnH/Bm3DnKdGh6FjKVw+dy1V8qNxqcPdyDZ8k2vxyHrZmSb7T+qdIdeqtR8jyPzy+BsBHxr6jdWvsWV2dpT7rA8caRfx19BgfObEakbQj81PDrSFFGmUailGyAQ3fFjzTVZZvU51rqrcVWLuLabYoWZRzvTw69lRzzPY3PL4E09t8ckIwyjmtrkjzvZF0co/6ba4bGnz7t4aRlZ39OAzbP5cA7Grd7gNbZ3rK4W8qBv6JBLtpEnAak5GCW1KsSWC3P+cgEchAg/ziEizlixdyuvgdbl96JHx4pZB/fz6+vG6dm3Op61YpRim8xgaETSDCDSSzgx7PmciYxJT3cOEwMBjXeigUiPNyQW4Qn0E+M3q5ZgzPBsi7vC2JjsDl1D3p2+Mvk6EFtblpmDaNlXxYdSZ9gLyMgqY5qGvGCmWMGjjCbXkTVeEebwmmQ9FWcZiQZI0YBS42btw8UaGqlzVYZlzpBcu8lJezOyOCSNzNNrkwUec74TB4NkCN9TPn3P9MUbhgvllfNBu1BXpQ/o3668rCzNmMr7MXYgsMOUdYxg3im2LhrU/9cdSWuTtjysenqytPZefbqwFPyVwmljnIARu55RvmL/JTZTea1TcdhhGnlavO5akf9jctTmekg5Fviavla7ssZoYn8zqa34S9BfjF+Z1VjuIFmXXHIC/Rz3PeCdf+iXyUM9uRT6xRFNts3Uw8zvitfVzonX8szxyXb1zPS5rryzNe/FujPNag22/ya9IljGmfHKN3T6o1Vd5f/OtokwSx3v0TL12W7i7EZ36a3s35RmebWz8xiyNdmXXQISsQD7L92fHF1MeyXjhX/zTVD4wf+XkQ00NR6AaipACBnAgGYMd2+R5II95eq2Tk6QjPAOxXAEv9X5lzyzdQH3wFuWQx85h1/dpQv5365dM5M4LpWbHNF4fCJQyCXf0gSYrlasN2LDPWO1fesAx719y0WbXT4TKAYoj3O6z3NkyuW5RXtZUu3ga+YgCSQaAaTjKwfvT0t7qTlW+IGTUv3tvpt3vEKpt8yHTTvaHaj+1fINHn0gjz7AIKdz6jTjM3Yqu4eTMvk1jyFI/33iD2RwrwBGohq3roZkbDDalio49bNd4oNu0mHRDpW34N1jdOxZno7Zm8+jGcts6hoSvctj4otzcWsK6GT0aGkZXdnAmae3gvwDJ4SG4j7M7XEl0XfcPGLON7v0ol8/TV5tCdUxNYFfkdvsz57STRKOIVTfpkIm8mG5h14hTbpNcpPK5eYiwWO9K7yr/4MxH49cj4a8ZFLDK3s1LL39XDFs4ZrZU8FvRmHt9LgIm3WbmFt2upg77Kj/5kDRDnKWRppyo+9Nv1rNjYffhZxdcVeJ+idPFov733HoavGTObpKWqT09x8GO/ceQs8nHr8WPOKcdNVrlafA+Cov6SazdZ1M6YH9UZrM1z5OuQ0x+SrYbHq7W4rXH7nsse2B4nNbopnDdfqSuH8y95GCivEjy1Aa99cfqKRtFy40rn5lpJ/LdDYh37nbOsX2p47FiyjGeTyI6sfuP13gaNNWuDql7jydbBwMjbbeave7vrF/kvAw7rswO8Hs/9aukfxyIZ5N9cMJswCTs7yMhk4DSzrAQ5Wehth04ymgb7oHkkitj97SMwk8vdOUlVtPaRe6ed/egg4+XVgVZx8P0nrcwD9Ih0tyfuMv+eSlPanzwH7vg6cXOSHkE4x+cLfz4mWBK4mW3kfJolywh4Tz2BS32MjtBageQft/Us3qI17R7znyXcm8Q7zrOiQ6e8x9Mvkh+uiYWJiiDdZY8Y655esiBYcwAQKQWBST0/PlUIIGrYMepl/qi66pGnYglkAE2ACY53AlClTcP78+bFuBuvPBCYkAfbfCVnsbPQ4IUD+2/2tcuQcZBon9rIZTCBfAjSDqe772UT9VPHBrnsdemxf+fLNOFd8frfORYjvF4lAsiVyRcpcFSs291Y3EVdv8jkTYAJMgAkwASbABJgAE2ACI06AB5dGHDlnOIYI5OMf1fdsxeYzazA92AugSIaKVRhnsFn+AnWRsmGxTMBGoHRmMNm04zAmwASYAACeAcHVgAmMXQLsv2O37FhzJsAzmLgOMIF4AvnMYIqXxHeZwPggUDIzmMYHTraCCTABJsAEmAATYAJMgAmMHwI0Q0NuZMzHSaJgmQNzoIpA9SCfGUzjp1VgS5iAm8CkbDZbGnswuXXkO0yACTABJsAEmAATYAJMgAkwASbABJgAE2ACJUzgqu5LfSWsHqvGBJgAEwDqymrAbRXXBCYwNgmw/47NcmOtmQARYP/lesAEchNgP8nNiGNMHAK8RG7ilDVbygSYABNgAkyACTABJsAEmAATYAJMgAkwgaIQ4AGmomBloUyACTABJsAEmAATYAJMgAkwASbABJgAE5g4BHiAaeKUNVvKBJgAE2ACTIAJMAEmwASYABNgAkyACTCBohDgAaaiYB2HQrNtWL2nDYOlYlqp6WNy6WvGnO2zxL8ttm3OSl1/054xcD2k+qmU05yh1u9il2VS+UnjFbosRyvfpHYoZcy+mBTayMdj/x2lZyz778hXds5RJ1DqdVDXlq+YwDAJZHDi7a14fKBrmHJyJL94AI93tuLE5Rzx+DYTKAKB2AGm1f4Lsvei3Ix0IRSIe5DE3YvLe6jp4mQijS2xL5xpbNH4rEJ7NlYgEJFpyDgkCavhNu65dPP1IC6BjnH65crPtEuNPwtzAr1lvIT6RXjkm17Gz3VU9VV5quGKHRq3WVh9Kjqslj40C+4BiTS2dHThoRWncXLtaWyqSFoOueyg+wZbl65auK3sDTkkWnkRD2x2ydHCVUYG0+22vJPYWeA4NtuIpSynFRsxsxBZalwM2606mJla+F0w4+RzbSlna3JXPFe4VUiCQNW+GF/0683gqVXBQK0csBXtTRxnTQuljNkXEzyjNHilc2H1HaVs2X8d/RX2X3clNthobYryTNPCjTZdCDfkUJitvrrkaOFKvvR8Cvpv9LHKlrfbOr7jIEC8rX17Szk6RHAwExgOgcx7LyBd9lU8eE0Guzq3Ytd7mVDc5dew6+3XkJHH8A4gw+TRdk8Nm7wUD1ZPRbr/NSg5qDH4nAkUjcBVsZIrN+L5u1aiiiLRA3NPW3gdmzDmZvlK7LzLcT/uniOJCB5qOodMeqm540QnULkRdzvieMHLsW1tE1KxcbybVpl9R4CG0zhZQ3EG0b6nCe3ZFKa9sT4IF+kOpXFykZeLVY41/0G0H+zA4hWnsbPcL7+DbbhZlqeSJn3InZ8SLTx16N1YDiTVzxXPFR5mnu8ZcQ3t0+qxy44LvahrOI2dolyok9eE9tpWkH30R4NLO7DcPSCR7Uc36jFfxHeUw5J87XCwteraDMSUvZUx+XcHsG3taaU+O3SnOmTNVzJK7hf5UxhCCqttANRyyjk4nCTfGF4uHaxiDX7ZNrxsjRcfaC1nSxJXPFe4RUTCoBhfFBIMuylsditOzg7FC9+rQOK2TStjamNtfsG+GAIuxTOX77D/itJy+akrfOhFzP4r+g9KP8rK2FpfHW3PWHuWDr3ylHRKazmWtMas3Ngl0IXj7wKpGfUAXgPKrseU7As4MXkV5l5dBKsmfxGpsztx/OKNuG1yEeSzSCbgIBA/wKQmqlmIZR1HMJBtw7cPAountOCxLv+FgL4I7G5Bp4ivhvViTTAAQy/qRzB/RS12HAQeuWslIAdyKB0NZi2BkE33qlwyg7w95ZY1+DNESKaf3tNNuU8DBZo8P78gHxqIkS/HQBW91NS2YfVBT4b4v0ivx1PuKqdk53rs80OEfjUOmTVN2BSkHEBfhgYl0jjWtRzzF3k3qmobMPNgPwaREgN9Nt2Ch6NIMhMPKbYE4itqHQMiMflZmAl5Vr19fW3sAiXCE5sddNcarunh2ydE9WLXnlnYJ4bmHXaDuC7HfDFYBEDWY8rLZUe5Wi7TUFMZ6k2sd1Tsx87aV/X6EURJY4vvCxu27wUql2MZZSvva+Xg0n+odUjXVWYJLU8743QvzbhqVQaXgtThiSpHY+fIN0w5Qmd2nnbbjHIiDSuXO+qTpTxoVlrQ5nntScRIhZddh0iKmAC7bbZ2TQqx+pK8qRxd8azhxfJFRR/nabYNO7qWY83aaRjoVmIpnJVQb7Yf+6KOpKSv7HXc7jvsv7IorX460s9SqUzckf03pKO2WSX5LA1VTXxmfTZ4/eikfXKRl0vObsv7BL1fuOLb3hVqaKCvBZ0Z4I7tLZg5dz92zq6y9zsTG84RmUAeBC6+jTNl1+EmGkwSS9em4qZrgNazXZg7jQadCv1XibryT+LMZXpRUl5mCp0Ny2MCBoHEA0yDp57GvsoGb0ZPpgV9XziNk2IQxOvoyRkfYrBDzLhZiTX1s3CsrwkpervuO4J99QuxCf3YQUrQQNWJemxb673Upg81YwC1vnoOmTcAUPOmL0Wvt+Fu9Qu07X5NNXbtbglnpdADSR08MqAkv9wLMYgA+A8q6LNlEgmir4JfwWMZ+fU+jWNquvJq1GWOYIA6jGq4ci46mPIrPzF5I43GRSk03nWfN8VaxPUGYFwyAnFBfukczEy9AwkFPqG6QB0Lf2aNKLs23ExlnulCDS1DkzOnlC+LuhJdGMgCKTGjiAZD1OscdmRfxctowCN+Ht9Gs+iQwDnjJYVNKzai2x9E9XjTAMUszBFKyXJoc+g/Dz9VZ1zphsRfBbpWoSqvsqdBxk7s65qFx/wcvIHRqmR1KMhXqmf6Rc5aJxMO72itD9UO24xyEp3UDkt9spUHlaetPXHxSmOXla/LXIMfNYsO24rTrrn0KrYvGnbP1utN+o0WYO5+MdSeSlS/jTIWZrEvukp31MMdddzeNhlly/6boPjYfxNA8qIEz7QJ+ixNDCqM6O6nKe8Lss/u7JM76uhdrvcJR3zRP7TluxKNSzbiZa1/FtrAZ0yg2AQyl89havkX9aGeyUtx+8WtePHiw7itrPAaVF49FecunucBpsKjZYkxBOIHmDItYpRfpJfL5bJt3tIxOSWDpqlXbsQj/rWYcbP7CNKLUkjVLseG3jQ21aQgvkLe0ASg31OHBjLQgg3baVlOE1KLmsSgkzf45JB5Q62et/oVSBpJy9qkbvK+oaOMKo60vG7tSi3IehGJl8Im2tNDRKaXlia0VzTgZYQsrHIigfRSehqNYr39KgysuC8SI2eA6FzLGWTUhtSKGU8DwdI3fxDFH3hSZzzNnLsRdbYM4piJ+Kbe4QwwU5yen/fFyIzjvBbLIPZiH80GCv6We4ORlQ242V+2JurdiV4xEKfOjBNfqFY0YPXucPAEWI5tfjoattP5q3ZQ58WbtVZFy2u6O9GZ+QrmnAgUwR17gG11HdhASyrlQKMcJ/WjhUsQlXKgwVKb/lkMoQ5RRqqutIxPLgtU8vSXWfpqGQc5wCln+zUjvbYJyClHzxew+IWyvNDItLCXNp6ohihvOZNS+IpnW2Rpqy29rTxifMPOncy0852mzOL0vqZa+FU0OOuK2vYmgVm6vmixW603wewHf8jWUS8j9rEv6s8olWmSCjOScWz+x/6rlUCkfhuDsFpk86Koz1L23xC3va0fU8/S0JjEZ91w9dPy6JM76yjs7xPZNuSVb2JrOCITGFkCddfMw9/TXknUZS30X9lUTD2bEfsw8RymQsNleS4C8QNMclDJlTpXeM0qPPR6q9gc/Nj5BtxNL/XBzA/ZIfG+KG+gF7AVxttALvlJ71/oRWcwOypponziFWKJUArz69fjmLmhr3iZrXXvBeV/uQ32WqJrmp1FL2TnN+IRMcuMBlH2A/4eT43aviZpbDnRGxqbK78wpn+m6B0M2uiRtBlW+q1kV7Z6SPY5UkfzUwYRfT7TImlNO6hePo2aYLmhHIjyE/pyxHJOrNT2iQnreEw5XGiIaDD0AEPXuLJ3lJGWd/k8LK7swEBfG1521SEhx8hXE0IXhfCLiNDhBUjbaEbb8CRFUzu5G4PGqg6aL5oiC88v6htmnjmuR8QXo3aHs5difCqbgt62qc+bmHTsizkKvYRuq75TaLXYfyNEo+1Fkmcp+28AUtbX8fgsDYz0T/J8NpjJg2ubHLrpep+wxY/pHwb58AkTKCUCV9+IpeWtOH7xusJrdekczpVdq8+aKnwuLJEJaARif0VOi+m6EEuqWrDL/yn2wd4OdNYv9F/eqnBzXReOHTqC7rp5+hKvbBu2iF/nooGm/XiIli3JwZVYmS5FYsJp351MB34aDG4pcWmgIMmvc5jx+poR/OQ1TafO1GNazTwsRshCycV6OniqWflVH1qmNBM1FTTQsRfHVJ5TqnV2pjTly6/gT/cNhpA6RgYYHPmJ9CGzQC5tR27V21SqQNemHQ6xer1zRBKb/LYAfl102iHKWh1ccslLEG7qL8uhQk8b6E8d0jzqkNiDRxsIy6fspQ5eHdghfy1P6lhDyzOV+izDqQ65GNn8IlLnZL7FOwY84bAth05Belt5uHzDVdbleehg4+esK1Q+dh8tClnTPkcmATvHfS/Y2wtD+iJtnhtpT2UZ0csC7b0kZ2uYeqj1Mi5PVzonX/bFOJzFvBfWoTx8R1EoSM/+G1Ix6394RzsL2Gmh5gX7r0nEu3bU1zH8LLXbGQ3V+grR23qIqIuWZ1dsHbW8T8TG17PUrjL+bHctkC+YQPEJiOVq2S7rr7pVfupLwLuv4hypcXUlplx6C91inyZPr8zFt3CurDLvgSKxLK9sSvGN4xyYgEIgfgaTEtF96u2FQEuQvD1maHpwODeAli51iz109P00aAAEJ8LlRmJ5SAXtd0N/DplZf3mdWxnHnRQ2NRzBHHWZVOVGR1zl17rgbQTobSRuRK+oRXdgM0BxyOrUko1iOZbHwgvfVOOW+ZiiE8kQv1S26EkcC/bs0XmqU+Rpk0JKs2bK3aX4PwAAIABJREFUrGAp48x6+etmJkNv75+wZEJ7Uo78VGahXKCqArDqLQaf/F/gU9nJJYthluGvzRnxbPbRnkZh/aKlZd6G8LQfFzEQf+Irls06/xf0OrwldnJTR0rjsmPwVAc66T+lbNR0ihkJTl3l0IYdDv1pjwDVXlH/HHXo7gsOXTVmetlbGS/aj4E90h/D+CmHHPESYmNUa/eLBKCGH8XBM+WwLZKhI721PJT2JPQNV1kDSKqDtV1x1xWXj5Jt1nIuUV+kjeht7an4dc2Dcu8lWWIxnGUU69GVzs3XWvbsi1a6ww50+B/7r9IPYf9Vno3yOcX+O2zfK4AAZz/NKlvvk7ufoX5/j36Qh/pskfcJs01X+ofWfOkDnLefE+2fKvt1SZ+VLpEczgQSE5h8LWb0/x26L9+IuZFE9bit+nqcOUs36nHbjAx2ndkqVgGJqGXzsOraeuDya8ClV9Ha+aov4XrcPmNqNGzmUtQhg+7sv2HKNbw4LoKbA4pKYNLJd09fKWoOpSicNhrsXYiTsXvSlKLirBMTmJgE6spq0H3Jn9Y3MRGw1UxgzBJg/x2zRceKMwGw/3IlYAK5CST1k8x7rWi99CU8WJRfjTP0vHgAj5+dilXX3pj3zCdDEl8ygbwIDH+JXF7ZjV7k9KFZmEOzguhfB7CNB5dGrzA4ZybABJgAE2ACTIAJMAEmwASYwAQiUPmp25G69GM8PtBVXKtpcKn/HFLVPLhUXNAs3UZgYs5gspHgMCbABEqWQNIvQyVrACvGBCYwAfbfCVz4bPqYJ8D+O+aLkA0YAQLsJyMAmbMYMwQmzAymMVMirCgTYAJMgAkwASbABJgAE2ACTIAJMAEmwATGGIFJ2Wx24u3BNMYKidVlAkyACTABJsAEmAATYAJMgAkwASbABJhAKRO4ijfOLeXiYd2YABMgAjz1mOsBExi7BNh/x27ZseZMgP2X6wATyE2A/SQ3I44xcQjwErmJU9ZsKRNgAkyACTABJsAEmAATYAJMgAkwASbABIpCgAeYioKVhTIBJsAEmAATYAJMgAkwASbABJgAE2ACTGDiEOABpolT1mwpE2ACTIAJMAEmwASYABNgAkyACTABJsAEikKAB5iKgnUcCs22YfWeNgyWimmlpo/Jpa8Zc7bPEv+29Jk3AZS6/haVSz1oSPVTKac5Q63fxS7LpPKTxit0QY5WvkntUMqYfTEptJGPx/47Ss9Y9t+Rr+ycY5RAqdfDqMYcwgSGSCCDE29vxeMDXUNMnzDZxQN4vLMVJy4njM/RmEABCcQOMK32X5C9F+VmpAuRcdxDJO5eXN5DTRcnE2lsiX3hTGOLxmcV2rOxAoGITEPGIUlYDbdxz6WbrwdxCXSM0y9XfqZdavxZmBPoLeMl1C/CI9/0Mn6uo6qvylMNV+zQuM3C6lPRYbX0oVlwD0iksaWjCw+tOI2Ta09jU0XScshlB9032Lp01cJtZW/IIdHKi3hgs0uOFq4yMphut+WdxM4Cx7HZRixlOa3YiJmFyFLjYthu1cHM1MLvghknn2tLOVuTu+K5wq1CEgSq9sX4ol9vBk+tCgZq5YCtaG/iOGtaKGXMvpjgGaXBK50Lq+8oZcv+6+ivsP+6K7HBRmtTlGeaFm606UK4IYfCbPXVJUcLV/Kl51PQf6OPVba83dZNiDvELrafXkAKI5mXqrazfqiR+HwsEci89wLSZV/Fg9dksKtzK3a9lwnVv/wadr39GjLyGN4BZJg82u6pYZOX4sHqqUj3vwYlBzUGnzOBohG4KlZy5UY8f9dKVFEkemDuaQuvYxPG3CxfiZ13Oe7H3XMkEcFDTeeQSS81d5zoBCo34m5HHC94ObatbUIqNo530yqz7wjQcBonayjOINr3NKE9m8K0N9YH4SLdoTROLvJyscqx5j+I9oMdWLziNHaW++V3sA03y/JU0qQPufNTooWnDr0by4Gk+rniucLDzPM9I66hfVo9dtlxoRd1DaexU5QLdfKa0F7bCrKP/mhwaQeWuwcksv3oRj3mi/iOcliSrx0OtlZdm4GYsrcyJv/uALatPa3UZ4fuVIes+UpGyf0ifwpDSGG1jWaRKeWUc3A4Sb4xvFw6WMUa/LJteNkaLz7QWs6WJK54rnCLiIRBMb4oJBh2U9jsVpycHYoXvleBxG2bVsbUxtr8gn0xBFyKZy7fYf8VpeXyU1f40IuY/Vf0H5R+lJWxtb462p6x9iwdeuUpTsoC9/2Lo+Qwpcb2tYYpm5OPAoEuHH8XSM2oB/AaUHY9pmRfwInJqzD36iKoM/mLSJ3dieMXb8Rtk4sgn0UyAQeB2BlMWpqahViW6cWAP4rfTjM4tvtfoLURdjXM/ELdjLTyFYAezsFXafoKodwTS4iCrzeKzD1t8PJWlh/JdP4xcp8MoXuBPGX2iQjXvwxV0UuN+UXUEk/jE1zoX53kkgyrzJombBKDGJR4AH2ZekwrT+NY13LM98Orahsw83x/sDTNJkfj6PrKVVHrGBCJyU9ltrsFndJGq97eTZt+Mpl6dMWzhqt6aPb1Ytcerx64v+4R15AnZD0mZVx2aOHTUFMZak6sd1Tsx84basNA7SyNLYLVXmyg+ranFdoKOa0cXPoPtQ7pugZqaXkCNsbpXppxlWOwVJUTwyjId8RP7DztthnlJMrMnl7MGlPaDuHTap1UfUO1WeFl10GNnOvcoVuMHrZytuXiimcNV/MrpC/aFDPDsm3Y0bUca2ZP0+8onPUbRhmzL+p4Su7KXsftvmOULftv5PnO/ksVnJ+lI+bm1meDx1+fES3720bZ9Pqakhx1VpJyrfV11XcGkbflfYNEWvUyw8N3Ai2P4BlHA4Qt6My04I7t/iwzm1xFVy9fqRMNznrnTvl7ZkG+L3j11udUkn2tEatV4y+ji2/jTNl1qAsGk6bipmumIn22WMvlKlFX/kmcv8xzmMZfZSpti+JnMCm6D556GvsqG7wZPZkW9H3hNE4uogheR0/O+KDG8w4x42Yl1tTPwrG+JqRosKTvCPbVL8Qm9GMHJcu24dsn6rFtbauYMZE+1IwByJd2h8wbAKh505ei19twt/oF2na/phq7dreEs1LoIXBQMW7IpzSIsFeknjl3P3bOhj5bJpFcevB8BY9l5Nf7NI6p6cqrUZc5ggHAm0mm3vPPRUdSfuUnJm+k0bgohca77vOmWIt4M/HQilanjEBskF86BzNT70BCgU+oLvRijZxZI8quDTdTmWe6UEPL0OTMKeXLoq5EFwayQErMKKJBGPU6hx3ZV/EyGvCIn8e30Yyds6sA54yXFDat2Ijug8AjwWwxvyMllJLl0ObQfx5+qs640g2Jvwp0rUJVXmVPg4yd2Nc1C4/5OSxrOI1NNVXJ6lCQr1TP9AsxB1LeLN7RWh+qHbYZ5UT1aneHpT7ZyoPK09aeuHilscvK14XC4EfNosO24rRrLr2K7YuG3eRnyl/6jRZg7n6kUIVUovptlLGQxb6oIC2tU0cdt7dNRtmy/yYoS/bfBJC8KMEzbYI+SxODCiNa+2l3rRT9odW7W5GevQoDYgYpzXSmfpcys5zEkA93h/IiZ3HvDOWu9w1Hnb/L/U7g7E8v2YiXg34dPUcs/dK7wv46ejtQV1+PY31AqmYAfajFzdSPV2flqv31LyzHnN40NtWk/Pel+0TfVuMQ1EstlC/GEIHM5XOYWv5FKN+tgclLcfvFrXjx4sO4razwxlRePRXnLp4H9FwLnxFLZAIKgfgBJjFa3+JFl8vlsm3e0jE584amqVduxCPqjJvdR5BelEKqdjk2+A2m+Ap5QxOAfk8eDWSgBRu207KcJqQWNYkHjDf45JBJs0Zo2ZrM2/bl2nbf0FGxH6AptmtXakHWi0i8FDbRnh4iMj1smtBe0YCXEbKwyokE0kvpaTSKL22rMLDivkiMnAGic63MMKqsxSBSGAiWvvmDKP7AkxgEpCWAAGbO3Yg6WwZxzER8U2+5PCoqTM+PBuL0F8doCiVELIPYi33+QJ53Z7k3GFnZgJv9ZWtipteJXjEQB7nEUdi3HztXNGD17nDwBFiObX46GrbT+at2UOeElhnSwNwg2rs70Zn5CuacCPW7Yw+wra4DGwKe+7FTjpP60cIliEo50GCpTf8shlCHKCNVV1rGJztvSp7+MstQe/VMDnD6Hb3dzUivbQJyytHzBSx+oSwvVHMs+LmNJ6ohylsuZRW+4tkWWdpqS28rjxjfsHMnS+18p5l1dbaFX0WDs66obW8SnqXrixa71XojZy+t9doOO+dUuERX+j77ov6MUpkmqTAjGcfmf+y/Wgmw/1qea/ws1erIaF10w9ZPA6rKV+KRuatwx/avQHyIpb6XGCjJs68c984A2N83sm2w6pWF9t6iMXP0p7Veq7NfuhLz658WHzRxoR7zb6jFjjfSQEU/uqdUex94XfJpdn2H9+6E3r1YVkvvS+qf2ddS7/H5WCdQd808/D3tlURd1kL/lU3F1LMZsQ+TNrBV6HxYHhNQCMQPMMlBJSVBXqc1q/DQ661ic/Bj5xtwt3iwSAnyhcL7oryBXsBWGG8DMupwjxd60RnMjhquMFt6x9IkW1RnWArz69fjmLmhr3iZrXXvBSUeVspeS3RNs7Pohez8RjwiZpnRIMp+wN/jqVH9gkIDEyfk3GRKR4N7MflF9Ff0DgZt9EjaFxv9VrIrWz0k+xypo/kpg4g+H2ORDXVPQv7CDqqXT6NmhRxwkgNRfqa+HG+W0kptnxhtdpOrHC40OLQfSrChqyvPbCrYRyo2l/J5WFzZgYG+NrzsqkNWRqbUQviFKXOY19I2mtE2TFGR5E7uxqCxqoPmi6bEwvOL+oaZZ47rEfHFqN3h7KV82jaKq9jjKh/2RQVSiZ+qvlNoVV31I8v+G6JO8ixl/w14yfo6Hp+lgZH+ie3Z4N+qqqD9ZoJNFsyUCa9zvDO43jdsevU1Y4PtncDVn7ZpaJNLu6lWAMcupNF3vhZ3U/mfb0X6AlBXu9KbpSU+Wvp7o8r+upDv90H7FgK0TYbou8uMjT6eDObj+CFw9Y1YWt6K4xevK7xNl87hXNm1PH+p8GRZYgyB5HswuYSIJVUt2OVvNDPY24HO+oX+y1sVbq7rwrFDR9BdN09fnpVtwxbx61z00NiPh2jZkhxciZXpUiQmXOy704Gfqi8bMjo18ME6axloOZrx+prD9dL0NYb2T6qZh8UIWVikaEGDp5qVX/WhZUozUVNBD5m9YlotRRY85ZcPLbVyoXz5FfHplsFQfDESezwp6cSpIz+RPmQWyCWdrHqbcgt0bdrhEKvXO0cksclvC+DXRacdoqzVwSWXvAThpv6yrlToaQP9qUOSRx3y1vkburrydAwAeoNre7FD/lqe1LGGpnsr9VmGkxwXI5tfOPPVGRTyKuApBg4ttuXQKUhvKw+Xbzi5ez4W4WvTwcbPWVeofOw+WkiWgSzTvuCGfhKw04ONK29PC+mLtHlusP+EWs8oFb34i72X/G/Iph5mfCOn4NKVzsmXfTFgN8InYR3Kw3cUHYP07L8hFbP+h3e0s4CdFmpesP+aRLxrR30dw89Su53RUK2voN2mX3uklQpPou4E/ZAN9U9ztK2036svQ9RHOo97ZxBxLe8brjof905g609Le6ReLrm0BK62AXj9af+dh3QCjvUCNfI5EyM/dcNGdHesR/fcVeEHMFdfS+rExzFFQCxXy3ZZf9Wt8lNfAt59FefIoqsrMeXSW+i+HJqXufgWzpVV5j1QJJbllU0JBfEZExgBAvEzmBIp4O2FQEuQ5oj4tBQknBtAjW232ENHm2AqBkBwIlxuJKbOVtB+N/TnkJn1l9cl0kuNlMKmhiOYoy6TqtyoRtDO1Wnod2xvgdiPRj4cZMyKWnQHNkPEIatTSzaK5VgeCy+cNvJ2yXxM0YnyEb9UtuhJHKNNhUVeOk+bnDVTZoH0pL+Z9fLXzUyG3t4/YclIQ4CUIz+VWSgXqKoArHqLwSf/F/gAoZO3l0+Ylzyz2eHktEJnSssknxd7MNGGi+oSTpt1/i/odah7ZXl10WXH4KkOdNJ/Stl4e2wZdVgaE3t0lUMbdkSWoHr6N+ZRh+6+4NBVY6aXvZX9ov0Y2CP9MYyfcsjxOn0WRrV2v4hFVKibDp4ph22RbB3preWhtCehb7jKGkBSHaztiruuuHyUbLOWs1xerBjvimcN1+oDLfMsjC/CarewQmyu6u29JJWO4SyjWI+udG6+1rJ3tOfsi1boyQMd/sf+W/rPUvZfpYwcbf2YepYm99ogJu09Gb4H+M8G2utou7esUfSPxXOzGdPWNiHSts71++TBkrpZQnbwfC2vhvudwVMj+r5htvlSr5X2dwLay8nan6ZBMW+fJ9p3VfQHrfauRBXpmQEW14b9zH3dtXhefFCKkU8m0MBbZQfgp6UgZ18rn60mPDz8/1IgMPlazOj/O3RfvhFzI/rU47bq63HmLN2ox20zMth1ZqtYBSSils3DqmvrgcuvAZdeRWvnq76E63H7jKnRsJlLUYcMurP/hinX8OK4CG4OKCqBSSffPX2lqDmUonDaWK93IU7G7klTioqzTkxgYhKoK6tB9yXt9/gmJgi2mgmMQQLsv2Ow0FhlJuATGPf+WyrvBKTH67V4PviBGK6CY4lAUj/JvNeK1ktfwoPTaOlokf8uHsDjZ6di1bU35j3zqciasfhxTqAAM5jGBqH0oVnYEPwKpD4raGxYwFoyASbABJgAE2ACTIAJMAEmMBwCpfhOkKbNvb9wWt9OZDhGctqSJFD5qduRensnHh/4anEHmWhwqf8cUjOW8uBSSdaE8a3UxJzBNL7LlK1jAuOOQNIvQ+POcDaICYwDAuy/46AQ2YQJS4D9d8IWPRueBwH2kzxgcdRxT2D4m3yPe0RsIBNgAkyACTABJsAEmAATYAJMgAkwASbABJhAHIFJ2Wx24u3BFEeE7zEBJsAEmAATYAJMgAkwASbABJgAE2ACTIAJ5EXgKt44Ny9eHJkJMIFRIMBTj0cBOmfJBApEgP23QCBZDBMYBQLsv6MAnbMccwTYT8ZckbHCRSTAS+SKCJdFMwEmwASYABNgAkyACTABJsAEmAATYAJMYCIQ4AGmiVDKbCMTYAJMgAkwASbABJgAE2ACTIAJMAEmwASKSIAHmIoIl0UzASbABJgAE2ACTIAJMAEmwASYABNgAkxgIhDgAaaJUMqFsDHbhtV72jBYCFmFkFFq+pg29TVjzvZZ4t+WPvMmgFLX36JyqQcNqX4q5TRnqPW72GWZVH7SeIUuyNHKN6kdShmzLyaFNvLx2H9H6RnL/jvylZ1zZAJMYAITyODE21vx+EBXcRlcPIDHO1tx4nJxs2HpTMBGIHaAabX/guy9KDcjbZOQb1hcZybuXlw+Q00XJxNpbIl94Uxji8ZnFdqzsQKBiExDxiFJWA23cc+lm68HcQl0jNMvV36mXWr8WZgT6C3jJdQvwiPf9DJ+rqOqr8pTDVfs0LjNwupT0WG19KFZcA9IpLGlowsPrTiNk2tPY1NF0nLIZQfdN9i6dNXCbWVvyCHRyot4YLNLjhauMjKYbrflncTOAsex2UYsZTmt2IiZhchS42LYbtXBzNTC74IZJ59rSzlbk7viucKtQhIEqvbF+KJfbwZPrQoGauWArWhv4jhrWihlzL6Y4BmlwSudC6vvKGXL/uvor7D/uiuxwUZrU5RnmhZutOlCuCGHwmz11SVHC1fypedT0H+jj1W2vN3WlcQdsi22H+3QcqjpHOJyBjvzs5RtTmEcgQnEE8i89wLSZV/Fg9dksKtzK3a9lwkTXH4Nu95+DRl5DO8AMkwebffUsMlL8WD1VKT7X4OSgxqDz5lA0QhcFSu5ciOev2slqigSPTD3tIXXsQljbpavxM67HPfj7jmSiOChpnPIpJeaO050ApUbcbcjjhe8HNvWNiEVG8e7aZXZdwRoOI2TNRRnEO17mtCeTWHaG+uDcJHuUBonF3m5WOVY8x9E+8EOLF5xGjvL/fI72IabZXkqadKH3Pkp0cJTh96N5UBS/VzxXOFh5vmeEdfQPq0eu+y40Iu6htPYKcqFOnlNaK9tBdlHfzS4tAPL3QMS2X50ox7zRXxHOSzJ1w4HW6uuzUBM2VsZk393ANvWnlbqs0N3qkPWfCWj5H6RP4UhpLDaRrPIlHLKOTicJN8YXi4drGINftk2vGyNFx9oLWdLElc8V7hFRMKgGF8UEgy7KWx2K07ODsUL36tA4rZNK2NqY21+wb4YAi7FM5fvsP+K0nL5qSt86EXM/iv6D0o/ysrYWl8dbc9Ye5YOvfKMuZTWsh1zVrDCpUegC8ffBVIz6gG8BpRdjynZF3Bi8irMvboI2k7+IlJnd+L4xRtx2+QiyGeRTMBBIH6ASU1UsxDLOo5gINuGbx8EFk9pwWNd/gsBjf7vbkGniK+G9WJNMABDL+pHMH9FLXYcBB65ayUgB3IoHQ1mLYGQTfeqXDKDvD3lljX4M0RIpp/e0025TwMFmjw/vyAfGoiRL8dAFb3U1LZh9UFPhvi/SK/HU+4qp2TneuzzQ4R+NQ6ZNU3YFKQcQF+GBiXSONa1HPMXeTeqahsw82A/BpESA3023YIHoUgyEw8ptgTiK2odAyIx+VmYCXlWvX19bewCJcITmx101xqu6eHbJ0T1YteeWdgnhuYddoO4Lsd8MVgEQNZjystlR7laLtNQUxnqTax3VOzHztpX9foRRElji+8LG7bvBSqXYxllK+9r5eDSf6h1SNdVZgktTzvjdC/NuGpVBpeC1OGJKkdj58g3TDlCZ3aedtuMciINK5c76pOlPGhWWtDmee1JxEiFl12HSIqYALtttnZNCrH6krypHF3xrOHF8kVFH+dptg07upZjzdppGOhWYimclVBvth/7oo6kpK/sddzuO+y/siitfjrSz1KpTNyR/Teko7ZZJfksDVVNeqb1Q8XH6Xn46cEWdGaAO7a3YObc/XgETd7HWyFU9uW8vnb4TrEKA0Y60d8KnrdKut2Wdwx657A+p9R8PKu8/jkN/ul67pxdZe+LJoXB8ZiAi8DFt3Gm7DrcRINJYunaVNx0DdB6tgtzp9GgU6H/KlFX/kmcuUwvSsrLTKGzYXlMwCCQeIBp8NTT2FfZ4M3oybSg7wuncVIMgngdPTnjQzxkxIyblVhTPwvH+pqQorfrviPYV78Qm9CPHaQEDVSdqMe2td5LbfpQMwZQ66vnkHkDADVv+lL0ehvuVr9A2+7XVGPX7pZwVgo9fNTBIwNK8su9EIMIgHh47pwNfbZMIkH0VfAreCwjv96ncUxNV16NuswRDFCHUQ1XzkUHU37lJyZvpNG4KIXGu+7zpliLuN5D2SUjEBfkl87BzNQ7kFDgE6oL1InwZ9aIsmvDzVTmmS7U0DI0OXNK+bKoK9GFgSyQEjOKaDBEvc5hR/ZVvIwGPOLn8W00gzofcM54SWHTio3o9gdRPd40QDELc4RSshzaHPrPw0/VGVe6IfFXga5VqMqr7GmQsRP7umbhMT8Hr+NVlawOBflK9Uy/yFnrZMLhHa31odphm1FOokPaYalPtvKg8rS1Jy5eaeyy8nWZa/CjZtFhW3HaNZdexfZFw27yM+Uv/UYLMHe/GGpPJarfRhkLWeyLCtLSOnXUcXvbZJQt+2+CsmT/TQDJixI80yboszQxqDBitD+/Eo1LNuJlrS+kzEiVfVWzXw8gpaWjNtvSB7zL9Y4RV8+Vdxf5/lBj0zO0i8+YQCEJZC6fw9TyL+pDPZOX4vaLW/HixYdxW1khc/NkVV49FecunucBpsKjZYkxBOIHmDIt4suDSC+Xy2XbvKVjckoGTVOv3IhH/Gsx42b3EaQXpZCqXY4NvWlsqklBfIW8oQlAv6cODWSgBRu207KcJqQWNYlBJ2/wySHzhlo9b/UrkDSSlrVJ3eR9Q0cZVRxped3alVqQ9SISL4VNtKeHiEwPwCa0VzTgZYQsrHIigfRSehqNYr39KgysuC8SI2eA6FzLGWTUhtSKGU8DwdI3fxDFH3hSvzTNnLsRdbYM4piJ+Kbe4QwwU5ye335vgMaM5LoWyyD2Yh/NBgr+lnuDkZUNuNlftibq3YleMRCnzoyjr2Y7VzRg9e5w8ARYjm1+Ohq20/mrdlBHxZu1VkXLa7o70Zn5CuacCBTBHXuAbXUd2EBLKuVAoxwn9aOFSxCVcqBOlU3/LIZQhygjVVdaxieXBSp5+sssfbWMgxzglLP9mpFe2wTklKPnC1j8QlleaGRa2EsbT1RDlLecSSl8xbMtsrTVlt5WHjG+YedOZtr5TlNmcYq6OtvCr6LBWVfUtjcJzNL1RYvdar0JZj/4Q7aOehmxj31Rf0apTJNUmJGMY/M/9l+tBCL12xiE1SKbF0V9lrL/hrjtbf2YepaGxiQ+qwN9IFD687aU1r4q9YWUfruZzllvYX/HyLahG64+o5KPfD8w8+NrJjAKBOqumYe/p72SqMta6L+yqZh6NiP2YeI5TIWGy/JcBOIHmOSgkit1rvCaVXjo9VaxOfix8w24m17qg5kfskPifVHeQC9gK4y3gVzyk96/0IvOYHZU0kT5xCvEEqEU5tevxzFzQ1/xMlvr3gvK/3Ib7LVE1zQ7i17Izm/EI2KWGQ2i7Af8PZ4atX1N0thyojc0Nld+YUz/TNE7GLTRI2kzrPRbya5s9ZDsc6SO5qcMIvp8pkXSmnZQvXwaNcFyQzkQ5Sf05YjlnFip7RMT1vGYcrjQENFg6AGGrnFl7ygjLe/yeVhc2YGBvja87KpDQo6RryaELgrhFxGhwwuQttGMtuFJiqZ2cjcGjVUdNF80RRaeX9Q3zDxzXI+IL0btDmcvxfhUNgW9bVOfNzHp2BdzFHoJ3VZ9p9Bqsf9GiEbbiyTPUvbfAKSsr+PxWRoafhsSAAAgAElEQVQY6Z14H1yV/rz8qCPjufqq8n7c0fbcofiudwxb/Jg+Y1zWfI8JjAiBq2/E0vJWHL94XeGzu3QO58qu1WdNFT4XlsgENAKxvyKnxXRdiCVVLdjl/xT7YG8HOusX+i9vVbi5rgvHDh1Bd908fYlXtg1bxK9z0UDTfjxEy5bk4EqsTJciMeG0706mAz8NBreUuPTQS/LrHGa8vmYEP3lN06kz9ZhWMw+LEbJQcrGeDp5qVn7Vh5YpzURNBQ107MUxleeUap2dKU358iv4032DIaSOkQEGR34ifcgskEvbkVv1NpUq0LVph0OsXu8ckcQmvy2AXxeddoiyVgeXXPIShJv6y3Ko0NMG+lOHNI86JPbg0QbC8il7qYNXB3bIX8uTOtbQ8kylPstwqkMuRja/iNQ5mW/xjgFPOGzLoVOQ3lYeLt9wlXV5HjrY+DnrCpWP3UeLQta0z5FJwM5x3wv29r2Qvkib50baU1lG9GJAey/J2RqmHmq9jMvTlc7Jl30xDmcx74V1KA/fURQK0rP/hlTM+h/e0c4CdlqoecH+axLxrh31dQw/S+12RkMj/XnZ3874M8spia2vGhXlhch0sfXW8o4RG9+VGS1DV/SMica3mMBwCIjlatku66+6VX7qS8C7r+IcZXB1JaZcegvdYp8mL8fMxbdwrqwy74EisSyvbMpw1Oa0TCBvAvEzmBKJ8/ZCoCVI3h4zND04nBtAS5e6xR46+n4aNACCE+FyI7E8pIL2u6E/h8ysv7wukV5qpBQ2NRzBHHWZVOVGNYJ2rk5Dp80JvY3EtSigjZO7A5sh4pDVtHY8ZOGFb6pRfgEM3oaHUuZjik4UJn6pbNGTOBbs2aPztOm2ZsqsYCnjzHr562YmQ2/vn7BkQntSjvxUZqFcoKoCsOotBp/8X+BT7ZRLFsMsw1+bM+LZ7KM9jVSmckN42o+Lykf8iS9WNuv8X9Dr8JbYecuQvLrosmPwVAc66T+lbNR0ihkJTl3l0IYdDv1p3wLVXm8/JHsduvuCQ1eNmV72VsaL9mNgj/THMH7KIUe8hNgY1dr9IgGo4Udx8Ew5bItk6EhvLQ+lPQl9w1XWAJLqYG1X3HXF5aNkm7WcS9QXXe2p+HXNg3LvJVliMZxlFOvRlc7N11r2jvacfdEKPXmgw//Yf5U+A/uv8myUzyn23+ROVsSYZn9efCDw9kmivUqpD7VmyleCPlv43LToVK6n26n1Q7wldfIXrqPvGGY778dX92o1szTzm12V+PlpiuJrJhBLYPK1mNH/d+i+fCPmRiLW47bq63HmLN2ox20zMth1ZqtYBSSils3DqmvrgcuvAZdeRWvnq76E63H7jKnRsJlLUYcMurP/hinX8OK4CG4OKCqBSSffPX2lqDmUonDa3K93IU7G7klTioqzTkxgYhKoK6tB9yV/Wt/ERMBWM4ExS4D9d8wWHSvOBMD+y5WACeQmkNRPMu+1ovXSl/BgUX41ztDz4gE8fnYqVl17Y94znwxJfMkE8iIw/CVyeWU3epHTh2ZhDs0Kon8dwDYeXBq9wuCcmQATYAJMgAkwASbABJgAE2ACE4hA5aduR+rSj/H4QFdxrabBpf5zSFXz4FJxQbN0G4GJOYPJRoLDmAATKFkCSb8MlawBrBgTmMAE2H8ncOGz6WOeAPvvmC9CNmAECLCfjABkzmLMEJgwM5jGTImwokyACTABJsAEmAATYAJMgAkwASbABJgAExhjBCZls9mJtwfTGCskVpcJMAEmwASYABNgAkyACTABJsAEmAATYAKlTOAq3ji3lIuHdWMCTIAI8NRjrgdMYOwSYP8du2XHmjMB9l+uA0wgNwH2k9yMOMbEIcBL5CZOWbOlTIAJMAEmwASYABNgAkyACTABJsAEmAATKAoBHmAqClYWygSYABNgAkyACTABJsAEmAATYAJMgAkwgYlDgAeYJk5Zs6VMgAkwASbABJgAE2ACTIAJMAEmwASYABMoCoHiDzBl27B6TxsGTfX7mjFn+yzxb0ufeXOCXbsYjQcMpWZbqeljlnEuvyh1/U17RvDa2s4UO/+RLo+k+SWNV2g+o5VvUjvYv5KSGvF4I+q/sp7K40hZmzS/pPEKrfdo5ZvUDvbfpKQ4HhNgAiVLIIMTb2/F4wNdxdXw4gE83tmKE5eLmw1LZwI2ArEDTKtpAOhQWkuXPjQLc2wDRlosy4XWcUljS0cXHlpxGifXnsamGkv8IGgQ7XuGmGcgowAnmv5x8tLYEssnjS3+wJo3wLYK7RdyyAviN0MvDT3d4KlVwaCdHLwT5Ue6BzJmYfUpOdyn6mKXHV/eudPrGqrxo3ULyMVOSnPFc4XLdPkeVX1VPmq4YoeTc5hvTp6qX1So5bYK7dlQTv5nBhuXrlq4LU9DDimidPrDupW/hsVLYZTXdmmXGq6Wr9TEYqu8ldfRlJMrXylcjUeD8bnaCpnOdTT1yDde0vQuuWa4ap/KXw337c7+/+xdT2gcR9b/BRasmyVZuz6NjYYZO7kIZHvtzU6MMSYR2CSLLTCywAhsCD4ETMjqIgTBIHSRQzDswQQkEALJGOzwKeyCbIwRzuzG8h/BnJJISEi6xFl7NLrZp/141V3dVdVVPT3SjDSSnoLT3dVV78+v3quufv2qBkg2vsm+NXnRtfHc2c7+5fJTrdw11oeY2lCqvzK7PYj+DJ5rqv1Uf0zSxm0nxiZyFrljn/Vme/M6qf+56rnKTT5Jr1X9VPzV8tDW2H8Vf9RsSBmztHKlPo1dga2HmCbtqbqtR/rK+bJ5rulLOqs2VkYjA8eK2saRVmU068XdM+uq1+ttp9Lg822FQPH3H5Bv+Bu+3F/EWOEmxn4vhvK/e4qxX5+iKI/hHUCWyaPtnlq29xy+PNiC/NJTKBzUGnzOCNQMgT/EUm7uxIU332GilMOlRgClcQy/aUNbbCPHzcZujFz075WWMI8sThHNcn+lJ3iITlzAFH4sdXtylGuzRfdpAnV+pgA09+JyrAyduHWtHzlZpzSOh/JcO1Jw7QugYxbPKQhHL/J3x/H9xW6ktHreRerIKJ4fCW/QpHi46QCw+hiZjlmMiEAeTVT6MZEexYEXIW0h+6M8np8JpIJoj05nf+cfxbcPJfHPFh+HuoB06w9sKyl2rnqu8ogMiQtisHfpsbpgxVn4Dr3eUn/E4AnNL1Yw8WAKH3fNYoT8hPr+wTg++iSxAkFFKzZWWQcAG0/f3qx0SK4p4Na12dCeA871dGL4nOgPt/1adV2HOjY6lfmNIbdzrIgXziaHrYWrnqvcRiNZWYx/CQKG3lRmHd9g9xPbGLlj/MsxNpDOVr8e9Z+bFkyTdVYd1IrK7vSjKo9JkXE7FmMTKkNu9t8AIG9+wv4bPNt3tP8G3a6fqO8F+h0xj3bNdc2q1uvm3nCuXGbubG1vK4yTN+6ejZYsW2872Z6P2wyBOfz0G5A7nAXwFGj4APtKP2Bmbw+O76mBKns/RO7VCH5aO4Gze2tAn0kyAg4EYjOYgDROZYCHC17GS/7FEDKZjpCU9pVA+bqglt8ZQoFaBFH6PAZF2T1cpy8UdwcweLcd4TI5CoCEX3RWFqaATA9O7SsEcngC6F90vPaWMlUW+QUkkMVXRV77xwnK0vK/nnh0aUI/hEJxCOdv+1+VBN1QTqIkAjxdvXpAxlLP52ocFjBGmVqCr6S7jMViJ07JDK/W07hQXMCyaGnRVaVIwcC5Tlw9kgJa+5UssQNobaaKeUzPhbRT6Q60vVkKljLSC+Vw0yRGjqZVqsp5THuhs6+L7H9qqclBumVxwA8yWrFTuMlTVz1ruSqHYlOADWvJQR5jsHfpoZVLnD16SfDU/WIU2srRprRiVy757TZhxSZGVokANJ52+84vUCaiEiwNGm/FiQsXmywx9uvwZepDOS6IbKIgo8zNN4p9PF+bpNEyBz/V3lW/c+gTpWvvY6oX1cMf04OvzHLMotoO+TSGMf6l1XNcBOPbAb2CYbPhTfO5s4P8S9U5iV+HoNTZWRK7kSK7/cg5Jjn9w83XOm5vGGMHP6d8Dv+TUChHq5+y//oI1enzcYf4r5aJJOfa4kOi925gfX6SzYsMJmOO/WJBsWrjVPUTycen483dlXcR2VTOnW31XPQkbUGDbGcAeb89vRFp+pAOyj3xvhM8G315NN7e/Fi8X8h2rvvEn+4F9OpgRYfElY+VI7D2K35peB+ZIJjUgr/sb0H+Va2WyzUj0/hHvHnHOUyVdxa32AgC8RlMAA4c+RyZ26PIp9MYftOLG0eBr+eJpTdhl5kxNNieFxkwEAEkWS4GxgeqiDn0dfVi/gFwQ35lXgSOLeTR15oDFh/jfvZzPBeBhxX8OA98/EkKudVOXH/2BCtHKHvH+PotyNvK6KEwFGSVBDIeVeUxzotDWPzzLJ6f8bNGno3jcms3Ln3Si4eqzMHLpdE+0SUF1+6Jmm3HJzFCMZziHFppyWCj9+A6T9kqFw8CmMNyCcgJPChoQdcrWH4QZl/YWFIwEMcno1klIiOsAzcaoQcwGg8iU3zsBa9e9uBrDGCEglNJ9Qza5zF2J8Q82v/UT5/hm6LxZdemxIbKyD4XcFVm1tADWmYAWbG2ZYXZsJd9UUYPBWeyu/J4WvxCpsV7loKvukaRwrjDVk7iRzXbrRLsAllTSF383EvF13i6iNFLXgH359rxjV/lQke5Ja8uWlUoj+1Xw+eUTD/BObBfWLMDqY54eZPt6Ivoizwu0VgSy7eMXmX5GnLHjBXxfldGjopv19q/DL1pLFL+wvEthVwim91J/pXCpSQ6B34tgYvHVNbasmOsH5myG1IGfuQak/T5ivZccvBFknE7grEhFwy52X8FQOy/CZ6zEdsybMkYE03L2+zrjPz4uTCFTDaL6UUg17qMRaTxUdzzUwia0ufYNF+7Qx90hxQ1aM54GtPK/FKb06tzd/oAobRcefkd7jd3eCsL1HrO95huXM22Y3qxHzmxeoDeS06jD0se3dI4vp7J4ta1UTHHzj8awDLkx1h9rHHKSHMIer9Qs9JV2eT91oNl5tSKonxa9wgU371GS+OHEN/5pbR7z+HTtZv419rfcbZBFlbv2LynBa/X3gA61+oxYEqMgAWBsgEmIIdT2S9w/Q5AL4/iBZcI0XKD5l7c8LNrRAbMncfIH01r5Rae0SL6ujD1GHlanrVwDxfS/V4d9QHbSHW+85bJgZbNhbxFZVHXLHPLGBXCL6HlbTJjSP2yZDagtNZr3WZp9DpSL4c+2ndK1KQAWD8mmjqA5g58JLN5KJtohjKVutHXtYQrd8IXeKATt/AEw6b+Kmf5df+a/lLmBQVp2RUFKly7OVFQr4BC8TMcmwmJnr8L3MpM4TotAQTQdrwXmfB2eGbYRXhDntHL0SwuieBJD5a75PINeT88igdzwG/SC3iFt+PPxHKYe7jvB/K8yp3eJMCKNUAvFGKJo9BvEiNdHVHs/T6iMIRbD5pgSJxXMJEITz/QqGgVLgHxg1kyoGGTv4SoTyi03KeqrLSMTwYuFZ7KsskoHSVQKCaFA8iryz+jDWpXYsOFJraw+Fz688rl8Ce9ngfQszrtZfw5+VbGImrvFrldY0UJFY+7UX7meBEjf039y6J3WhknjPHNZbMR/eT831fL2o4Chrb+rDP/Qlk/1f2anuOR546KaUxXb9otG+7r8l/LmNQVMy+x8l3BsmPcDpft6BhH7O2IBXP2X2+rBcqu9ucnVj88kxMZItrzmP1XnzfWmf+eynof5LCaxamjaQy/yANNS5jfd9D7aON6froGGHWJm6xDY7/jvUNsTSHn7lRfrDjwA1SSVmnc28JC1jPmq8F7zJkcculOXPc/fIusyKP0XrLkSUIBbQzh+m3aHqAfuTP9nl3TXRdNWg1Q7v3Cdt+gJ6Hg485CILP/JP5DeyVRXkG1/xpa0PKqKPZh0gJb1ebD9BgBBYEEASYgd7QXbXML3lKtpBktCpPyp14Qa3rxNEDLtih7iFJQF6ZQKBa0rxhtCyu4ZEw0ytOv1xr6MiqrlGqAih7QDwBjUUikWfh1UL1Fwazv0OoK6IiHWBqX6XVcBID8tj5PL9usW9njKY/BGSWNOWiv8ow79/ucNj0NgjZ6fS1jRL+V7EpOKtTaxpct9VaUnxJEdGJv6mHiLANRPicnnjQxUaQhOSljUPgC0ZgEaM+qVWWJqlJ9faeGrC6ecg+2ckwaT+Lj5ikl465cg6247/C5cvZL/SaChv6eWH4/blgDhW/U/lTqDrnVKhWex/NLQGxT/Cuqtza+xdmssWfTjvGvxXE8tI0NgZ8afh3pyiimkSp1W+CQXfEjTXQ5Jq1WOmmIG7eJQxTjeH9yyK0JW9lFPL8EtNh/y4Bk9HHcWOOYw2gMpC3uUP890ARMr+ax+CaNy6Trm1HkV4FMuttb4lWL56cGsHFhs2+jSuxlaw++ejYqPsVOv+nAZerjYI4mg8dkI+24Th9+uyodY2K5hzdXF1AIsqPCYj7bYQjsOYFzjaP4ae396iv29jVeNxzi/KXqI8sUYxAosweT31IEOYx9VkRK+hDG/I1iRDAoexo5UU4bcnttRXmMAPIWBbHmp77A/PEef1mXl0lDWVP0S3PiX0cnCvNPsEIPL4S8BQ1rGS37CusFMlIDmc4rA1lSkLij0sZbE63uO+JoSC+i6v4/iwPhflOUdUX7EDXpbTU5g1veGnVkTiJl01XWo0mQ3HtJKbsSCS5RYOSeSGOmaoKn/NIk28UeHe1j+n/l5YDyS2i0lKENrYbusSwruWnYp6upHWuztoK9WHvv0EP0dUwQzyQbd23KX85W4mzCxscmq4unc/Ls2cCw/FVCKaOYiJHdK3shCH4x1zYZN1Cm9avN5xod9hvHU8l0EPQtdTW+lvteRmhCv7PJbfhLwC/G76xibLTQtBUHvUA+x32vWPcv2vQ22JNPtSmqbI5vphxmfRdfVzsnvpZnjou2L2dkzHXxrNS/WvXnGlSdbX5N8sRhGqfHFt3T7MYqu8t/HWOSwKz8vETj69LdhbFZ3ya3076oT8vLZ7JY97Vpiw5CifCgLQseDEHMTYiOTW9p4+y/OLBD/Zeyf/DsO8zTHBUpfJQBphcQzvESPD/VebnVJA27TWafVkpeYSw90mEO048e+zopdErjGBTzHgo0TeIr2rpC/kJkLE2FRtJTsX9UODYkbcb16hMBsVytNGf9VbfmP/0V+O0JXpPoe5qx7+3PmH8X6lFc+xmvG5orDhSJZXkN+0JCfMYIbAICiTKY7HJ4e1rQ8q1jogKlpXu/QNbX8RjH/GVdbVn3r5BpdOkFuXkKSPvLNGjSbC4DE0vp/GVyn/SK5Useb2/5Xp+trEutJ2XM4cbxHrFhN8mQSMZGb0027Z0U7JukKeDvneQv6aK142I/GmNCSRsnzweYeXLnMI7hSDqv/2tutA57StmvyV93T3tChdj7+rf6Ez1j7yXxEEYBBWWpndDhzD8wTRsHGv1nqOW8zDnau/o/1QR8o8hA+MhfWFOXFwTYyTRmRQJXPWu51ve09KUX39N6dxfWCh9x6sDepcfKyylCOYrzuvZKMP2rTezBFGcrdpuw2+XlVYesGmaSpweMFeMzk1i+K5dT6vVNOGt+7epXq88BcNgvyWnT9eq+9iCbUhszXHwddPpi+GoYWeV2jxUuv3Pp01en/mUfI4UW3ousNr65/ERD0nLhaufGt578K+fwU+dYn7Y9dyywbGWRy4+sfuD235xjTMq55iUuvg4snBib47xVbrd9sf8S4EmfIey/4e/9Ogx1s4sbD4Lemj/25/A0T7o/n8b3IrjYDefzU8qpzrGznaAfGYr+mf3uz+lL/tK1aIMyJQ56fisKms2LvTyN5eOk64yc99CWEZMYaaJ3Fvpz0NyIjMrYJVg09/oS8mHbIbD3EA4v/Rvz707geET4LM4e/AC/vKIbWZw9XMTYLzfDDU0aTqLnUBZ49xR4+wSjhSc+hQ/w6eGWaFnbOWRQxHzpv9i3nxfHReDmgpoi8N7z32b/V1MOSYmLDe3S4c+KJm3H9RgBRmDHI5BpaMX8W+139Xa8zqwgI7BTEGD/3Sk9yXrsRgTYf+uo1+ldaeE0nsfujVlH8u4iUZL6SfH3UYy+/Su+PJCtPTpr/8S3r1rQc+hExZlPtReOOexkBDaQwVRdWPK0ufefaRNx/mMEGAFGgBFgBBgBRoARYAQYAUZgdyOQf9SO68Gv2MuVGLsbk+2sffOfPkXu1xF8u/y32gaZKLi09Bq5w+c4uLSdDWabyl4/GUzbFEAWmxFgBGqPQNIvQ7WXhDkwAoxApQiw/1aKGNdnBOoHAfbf+ukLlqR+EWA/qd++Yck2H4Fkm3xvvlzMkRFgBBgBRoARYAQYAUaAEWAEGAFGgBFgBBgBRmCbIPBeqVSqjz2YtglgLCYjwAgwAowAI8AIMAKMACPACDACjAAjwAgwAoyAjsAfeONcHRC+YgQYgfpDgFOP669PWCJGICkC7L9JkeJ6jED9IcD+W399whLVHwLsJ/XXJyzR1iHAS+S2DnvmzAgwAowAI8AIMAKMACPACDACjAAjwAgwAozAjkCAA0w7ohtZCUaAEWAEGAFGgBFgBBgBRoARYAQYAUaAEWAEtg4BDjBtHfbMmRFgBBgBRoARYAQYAUaAEWAEGAFGgBFgBBiBHYHA7gswlcZx5e44VqrdfbWiW205K6VXb3rVmzwmnosDOHa7XfwbXDRvAqh3+S0ib5eimvh1vSmf1H6S1qu2flvFN6ke7J9Jkdr0euy/CuRb5UdbxVdRPfaU/TcWnm17s97tbtsCy4LXJwJFzPx6E98uz9VWvLV/4tvCKGbe1ZYNU2cEbAjEBpiu3G7HlZdKKCbxQ2AFE3fbcawWgRybFlUvy2MwVvY8Bv0gghdM6MHEaqVCqDQGkJfNCWOFtoa/MrnSymXbio8OGZx01PrtOPYokNpvUQ43SdhVz1Uu21V6VOVVMIZarugRh73U8FGcXecxODWHr7pm8fzaLPqa1L7swUSpUvnV+gY2Llm1chtPgw6xsNmVi45Wro4PBqa3bbxVfTbz3CHbunWxYCjUcZWbuqryqHYZV4+ClusZZ1SaFchnHf+Stld5xp27cFDLfb1LwMrLniB4K4O4YgzS+jHO7tg/A9zqyj/jbITu2e1BBOutz0pH/YCNy45d5UFD/0Slz/7r2ZSKg4oP++/Of76a/lHn1/S82JTnW53jwOJtGQLF339AvuFv+HJ/EWOFmxj7vRjK8u4pxn59iqI8hncAWSaPtntq2d5z+PJgC/JLT6FwUGvwOSNQMwT+EEu5uROZ+X5MpEdxqTG2pn6z9AQP0YkLmMKPpe7K2uqUNv2KXmLOzxSA5l5cjuXeiVvX+pGTdUrjeCjPExzzj74AOmbxvNV7cTr/KI/nZ3LA6gIyHbMYaSUiNFHz8V8dwLEp4Na12ZBnAj5xVZwyuBotPg5kBiiI2I+JUk70b1LcXPVc5S5RypeTfCHGYpJ3dxzfX+xGyqWHC3vf9vOP2jGMTrS5mJeWMI8sTon6K5h4MIWPu2YxQtcUxHkwjo8+cTV2l1uxsco6ANh4ks7w7cy0bZIrYlcO2YmOla8cHwyfcKu0BXcssi06fE30n6W+C8OY8qiiMXYZrQzAkKPCcUaStNqQvKkcXfVc5UrTCk/L4WDoTdSPjOL5kZCN8Mcm2P3Mt/mwNmUPsn9qzywNnHq/sNgD+2+k01x+6iqPEEhcwP4bPNP5+ZrYauq1YvX9o141Zbm2HoE5/PQbkDucBfAUaPgA+0o/YGZvD47vqYF0ez9E7tUIflo7gbN7a0CfSTICDgRiM5iANC7/OYtvXpiZKv5Sn+Drofr1ClhZmAIyPTi1r4CHC34GlPhqMIBBymzy24klRLHl45igjJHbPn3tS7VapvKnoIx3TQ8NyUt8/TczSAQ9/Yt3il5iunr1IIKlnh3PBYwF+ql09S96g4t5TM914pQIIgGpdAfa3ix5y/Za+9HnlwMH0NrsccovUGaMEtDyBXDraPI0JY6RQcX5zhAKsqkm2zIWi1kc8IMvVtxkO+XoqmctV+XQvri7cFYYgeQLMUbraVwoLmCZqrj00MpD7KkJ4TzcNImRo2mViXKex6DA6h6uk33fHYW2Qq4prdiUS357n1mxiZE1EErjCdjouOwqoEEnKp0kfLXGm3nhwtUhwzp0sWFI1G3ldt+MsUuHmNFih56qv6h+65AvSteuh0s/PYNEHe8c8mkMN4hDaRzDc524euSARlWzVe0O+6cGR11eJLEbRXD2XwUM79Q2DtEda7k6XlTz+RqRylLA/huCsm2er6HI1jObPVHZXTmP9+b+wdYBan31eaWWS7sUZfZ5vvU55ORLH8+GUCgO4byyQsPqH1YluZAR2CACa7/il4b3kQmCSS34y/4W5F/VarlcMzKNf8Sbd5zDtMGe4+YVIhCfwUTEWvtxa6Edg4u05EdS9ybrMtOGXqSCDBys4Md54ONPUsitduL6sydYOeJlUKA4h1ZaPiQzOqYGcKorDXf5EBb/PIvnZ4ivi2c3rmbbMb3YjxwFZhYf4372NPqoifrFmzI1XuRx6ajUYaNHCiTcE0Tajk9ihOIOin4CE8pYuXgSP6qZNKJFHoMq+8aDyBQfi+AHZZoEfyITrAM3GvMYmyvg/lw7vvFvXuiYFYEo8WCUX/WljmcO6Nk7AcGYk0CGPMbuDIVZVPSgfqC2oy+Xn+GbouWLslptw+fU3wu4KjO2hBx+BpAVZ9/GNL5zWC4BOREEo4CRel1GjwB7L7j0NQYwciQFmEHKgF8OfV29mH8A3AiyJ/yAkajThq+6RpHCeAV2EhCPPwlkTSF18XNv+abG09Wcgow2u0rhUhI6AV9J3/AJwmsz/2LtooxsNdDF7psEiGqHpl2agBlyO8eZg7XDVAgAACAASURBVGX81qS70eta+6eht2FL+RdDwPFJ5JBCLomtgv0TiMd0oxax4fbsvzHP3Q2jaxBg/zUAcV8Gz4Zd/nx1IyTuuOdryjye5qjPxnG51fW8ctjlRdc831GfMsWLNr7duPRJLx5q87QyivFtRqCKCBTfvUZL44fwcwc8ynvP4dO1m/jX2t9xtqGKzHxSzXta8HrtDaBzrT4jpsgIKAiUDzAByB3txfCDcazI5T201KC5FzfUDJw7j5E/k0MueBgDaDyNC1PfecvkiGlzBz7yM15ERgm+w/JqOqa8F5dlNk8cz3Qnri/k0deag8jIONrvqUhBCfXLSHNa39y7sRsj17oVOBynkXo59NEeO6I6BRH6MdHUoekhspJmFkSA4yFCrBwcLMX04KQlVhSUoAwyJaAj9BpAnpbo2XQsLcHGUwS9aIkUgLbjvchYuIplJErfRqtQ8GEWl8TyvR4sd8nlUdGaOr9JL0ATrWYvEctZ7uG+H8TzKnViGbq9BDhTBbm8Ueg3iZGuDly5EwblBIbS/hCnh4r9CibmCygUP8OxmVDU83eBW5kpXA/w9IOMYRWESxD9YJYMcCp+EMhfgrXPFHKOU1VW2HnS0kvnn92uECzhVGTX6Oh8QS/wpk9UurTWKWPCGzZc6et9WdlqpIvNN9GNvq4lq11G/cWCacw4o47JSRCL8qsgIFhT/7TordqSzH645slr9bMzOZF1KJY7y/HASD60tqMPEDY7Yv9MYlIbq2PDnf3XiSn7r1wCrzyj2H+d9lLrG/NwzdeUebzM1jLm84FszucKkLPN80vjqIhvwIhPGIH6QiCz/yT+Q3slHayBXA0taHlVFPswaYGtGrBikoyARCBRgAmN3biR6cHYQods5zzS8rhCsYDzt4eCOm0LK7hkTO6Dm9U4ae3BV89GRRhm+k0HLlMQQbzcKXvg0LWWiVMNxkRDX0q1LqriYZtW9nyioNV3aHUFbxpP4uPmKSwvjmN4KrmOWkYFBYhmFkJxIzKEt+xnOZzKfoFp2tw8CNroNXV++r1EV8293p5JamV6uVSvlfMoPyWA6Pe/saCGwqeGHib2MhDlM/LpeFlK3dqeMFp2E8n5phc3RPYd0ZgEaM+q1fI+pKhU5tSQ1cXT3yerDDFAsauHNtkDOgbfCOEq+ESEZrUKTNlqpEvc+KMGrBW7jNqvqrMpt3pvfefx/BLQ3BT/jOodZi9547zVz8hW1QxWUkfNPnT5Cvtngo7fyiqmPbD/rrs32H/LQGfYlmvMCJ6LZcjt9OdrhfbkRMtGhypb5/n0QaCyeaKTL99gBLYSgT0ncK5xFD+tvV99Kd6+xuuGQ5y/VH1kmWIMAmX2YApbpo58Dsz4+/GI5VRDGPM3mRFBpexp5MTyuAJo+Rb9ipb419GJwvwTPXOIyNJSNvpiGSy783m5yp08qV0KH2XmMP3oMeYzJ8WGxoKa8kVUyOizCA70cifXeAeFlhOz3uIAwnXkT/CQ9iIy9AgwoUkFQqw86hTUuIdpFb99Bz25BS8zuOTVH5a/6EdZYpKnTUcrT1MvhwwCZ9qc3auv4rbyckD5JTRaXtWGVkNvk8u6r43+dtEJcHZVEOXeunv4tuHUw4p9LGH3TVN+tc+UVoH8ifpMaWiT1cXTEQD0gmv3ELGrVlqyqdislF0Gbm3BT5tPOPkqetToNMCV6Ltks2EYV79SWW2+qdHQ7VK75ZLD8LdAzxi/jdCtRoFpaw6agXyO+16xgYOrv6gyveSJvZf8bCtTDtVW43i62jnxtY3jMQxstuXi6fQTx7i/A/wzBjlxS7Mblz3YMKbWrvrlmJr32X/FfpoFMbczwVGv2X9VNMLz3eW/2pwhBMF+JsZCyzzTHCO11pZ5fmx9rbF+Iffj1Ev5ihGoOQJiuVppzvqrbs1/+ivw2xO8Jin2NGPf258x/y4Uqbj2M143NFccKBLL8hr2hYT4jBHYBASSZTAJQXLo6+jE/Wd04e1nQcuPjol7tMwmJyb/kaVZtLkyLZOjL8NiYz2Z2URtupEq0Z40tOGepVwDwMHTr0NLjebFnj3yxaMbV/e1B3TbsjG//qXwUdPOSSax15Hx0kEbyc4HukPUyWEcw6oe4quKtzSJ1nyHWHn1+878A9O0GbSKH20mTRlg9J+ytEvs8XRmEst35TItbz8fsbeQVceUWGce4SmXG/r65hwy9HU8xjGfv4pbqgn4RpGLsJG/LmjFzeBHbF31rOVdOm7iS5W/tj6wFwVnpRu9U/ELaco+Wf4+Li49Vl46sDf2f4nwsRaY9ur3WaV2In9l0F+KJ23y8qpDVg0zydMT0Iqxza7Iwx10nPaZtvmEFZjaFTr8z+6vMb4Wo4sVQ0cfOccfh11GgKlwnHH5LdF1yW3ydNWzlms24n9JroJ/uvpL/HLlA7n3kpTc5WfyvuvoalfhOO7oe/ZPF+4x5ey/1ucuIWb1vzp9vrL/Qsw7xdxxJz1fY1yXbtEelOqcM5ivWdvR+4RtnmmOy3qGUmSeH3kXUZ5DVr6Uce/t50R7qIq59ZFUYv9ykeRyRiAxAnsP4fDSvzH/7gSORxplcfbgB/jlFd3I4uzhIsZ+uSlW54iqDSfRcygLvHsKvH2C0cITn8IH+PRwS7Ss7RwyKGK+9F/s28+L4yJwc0FNEXjv+W+z/6spB0mcvjbaNtZzlct2fGQEGIFdj0CmoRXzb7Xf5dv1mDAAjMB2QYD9d7v0FMvJCEQRYP+NYsIljICJQFI/Kf4+itG3f8WXB7Imiepfr/0T375qQc+hExVnPlVfGKa4mxBIvERuN4HCujICjAAjwAgwAowAI8AIMAKMACPACDAC1UKg+U+fIvf2//Dt8ly1SNrpUHBp6TVyBzm4ZAeIS2uJwOZlMNVSC6bNCDACOxqBpF+GdjQIrBwjsE0RYP/dph3HYjMCANh/2QwYgfIIsJ+Ux4hr7B4EOINp9/Q1a8oIMAKMACPACDACjAAjwAgwAowAI8AIMAKMQE0QeK9UKm3OHkw1EZ+JMgKMACPACDACjAAjwAgwAowAI8AIMAKMACPACGw1An/gjXO3uguYPyPACJRDgFOPyyHE9xmB+kWA/bd++4YlYwTKIcD+Ww4hvs8I8FJStgFGQEWAl8ipaPA5I8AIMAKMACPACDACjAAjwAgwAowAI8AIMAKMQMUIcICpYsi4ASPACDACjAAjwAgwAowAI8AIMAKMACPACDACjICKAAeYVDT4nBFgBBgBRoARYAQYAUaAEWAEGAFGgBFgBBgBRqBiBHZfgKk0jit3x7FSMVRlGtSKbhm2Nb9db3rVmzxmBywO4NjtdvFvcNG8CaDe5beIvF2KauLX9aZ8UvtJWq/a+m0V36R6sH8mRWrT67H/KpBvlR9tFV9F9dhT9t9YePjmDkWg3v1yh8JeO7WKmPn1Jr5dnqsdC6K89k98WxjFzLvasmHqjIANgdgA05Xb7bjyUgnFJB7kVjBxtx3HahHIsWlR9bI8BmNlz2PQDyJ4wYQeTKxWKoRKYwB52ZwwVmhr+CuTK61ctq346JDBSUet345jjwKp/RblcJOEXfVc5bJdpUdVXgVjqOWKHnHYSw0fxdl1HoNTc/iqaxbPr82ir0ntyx5MlCqVX61vYOOSVSu38TToEAubXbnoaOXq+GBgetvGW9VnM88dsq1bFwuGQh1XuamrKo9ql3H1KGi5nnFGpVmBfNbxL2l7lWfcuQsHtdzXuwSsvOwJgrcyiCvGIK0f4+yO/TPAra78M85G6J7dHkSw3vqsdNQP2Ljs2FUeNPRPVPrsv55NqTio+LD/7vznq+kfVbqmcd36HIqh7z8LtPlxYjrb/b0lBhe+VVcIFH//AfmGv+HL/UWMFW5i7PdiKN+7pxj79SmK8hjeAWSZPNruqWV7z+HLgy3ILz2FwkGtweeMQM0Q+EMs5eZOZOb7MZEexaXG2Jr6zdITPEQnLmAKP5a6K2urU9r0K3qJOT9TAJp7cTmWeyduXetHTtYpjeOhPE9wzD/6AuiYxfNW78Xp/KM8np/JAasLyHTMYqSViNBEzcd/dQDHpoBb12ZDngn4xFVxyuBqtPg4kBmgh3E/Jko50b9JcXPVc5W7RClfTvKFGItJ3t1xfH+xGymXHi7sfdvPP2rHMDrR5mJeWsI8sjgl6q9g4sEUPu6axQhdUxDnwTg++sTV2F1uxcYq6wBg40k6w7cz07ZJrohdOWQnOla+cnwwfMKt0hbcsci26PA10X+W+i4MY8qjisbYZbQyAEOOCscZSdJqQ/KmcnTVc5UrTSs8LYeDoTdRPzKK50dCNsIfm2D3M9/mw9qUPcj+qT2zNHDq/cJiD+y/kU5z+amrPEIgcQH7b/BM5+drYqupqGJjN0YuVtTCq7wL31vWgRI32TIE5vDTb0DucBbAU6DhA+wr/YCZvT04vqcGQu39ELlXI/hp7QTO7q0BfSbJCDgQiM1gAtK4/OcsvnlhZqr4S32Cr4fq1ytgZWEKyPTg1L4CHi74GVDiK8IABimzyW8nlhDFlo9jgjJGbvv0/a8T2hczUabyp6CMd02TKslLfP03M0hEW/2Ld4peYrp69SCCpZ4dzwWMBfqpdPUveoOLeUzPdeKUCCIBqXQH2t4secv2WvvR55cDB9Da7HHKL1BmjBLQ8gVw62jyNCWOkUHF+c4QCrKpJtsyFotZHPCDL1bcZDvl6KpnLVfl0L64u3BWGIHkCzFG62lcKC5gmaq49NDKQ+ypCeE83DSJkaNplYlynsegwOoerpN93x2FtkKuKa3YlEt+e59ZsYmRNRBK4wnY6LjsKqBBJyqdJHy1xpt54cLVIcM6dLFhSNRt5XbfjLFLh5jRYoeeqr+ofuuQL0rXrodLPz2DRB3vHPJpDDeIQ2kcw3OduHrkgEZVs1XtDvunBkddXiSxG0Vw9l8FDO/UNg7RHWu5Ol5U8/kakcpSwP4bgrJtnq+hyLYz7XknM49sNkZld5W5vahjmcP79bw3CMvcyEZbCLbD31ts4HPZ9kFg7Vf80vA+MkEwqQV/2d+C/KtaLZdrRqbxj3jzjnOYto+R7AxJ4zOYSMfWftxaaMfgIi35kUp7k3WZaUMPliADByv4cR74+JMUcquduP7sCVaOeBkUKM6hlZYPyYyOqQGc6krDXT6ExT/P4vkZ4uvi2Y2r2XZML/YjR4GZxce4nz2NPmqifvGmTI0XeVw6KnXY6JECCfcEkbbjkxihuIOin8CEMlYunsSPaiaNaJHHoMq+8SAyxcci+EGZJsGfyATrwI3GPMbmCrg/145v/JsXOmZFIEpMHOVXfanjmQN69k5AMOYkkCGPsTtDYRYVPcQfqO3oy+Vn+KZo+aKsVtvwOfX3Aq7KjC0hh58BZMXZtzGN7xyWS0BOBMEoYKRel9EjwN4LLn2NAYwcSQFmkDLgl0NfVy/mHwA3guwJf1Ik6rThq65RpDBegZ0ExONPAllTSF383Fu+qfF0Nacgo82uUriUhE7AV9I3fILw2sy/WLsoI1sNdLH7JgGi2qFplyZghtzOceZgGb816W70utb+aeht2FL+xRBwfBI5pJBLYqtg/wTiMd2oRWy4PftvzHN3w+gaBNh/DUDcl8GzYZc/X90IiTtfz2Rx69qoyLDPPxrAMmgu6ZrDqXN7ANY5/BKGBWUjW06U0dzKQZvu83uLQIn/V38IFN+9Rkvjh/BzBzwB957Dp2s38a+1v+NsQ/Vlbt7TgtdrbwCda/UZMUVGQEGgfIAJQO5oL4YfjGNFLu+hpQbNvbihZuDceYz8mRxywcMYQONpXJj6zlsmR0ybO/CRn/EiMkrwHZZX0zHlvbgss3nieKY7cX0hj77WHERGxtF+T0UKSqhf8pvT+ubelIJ7rVuBw3EaqZdDH+2xI6rTg64fE00dmh4iK2lmQQQ4HiLEysHBUkwTQFpiRUEJyiBTAjpCrwHkaYmeTcfSEmw8RdCLlkgBaDvei4yFq1hGovRttAoFH2ZxSSzf68Fyl1weFa2p85v0AjTRavYSsZzlHu77QTyvUieWodtLgDNVkMsbhX6TGOnqwJU7YVBOYCjtD3F6qNivYGK+gELxMxybCUU9fxe4lZnC9QBPP8gYVkG4BNEPZskAp+IHgfwlWPtMIec4VWWFnSctvXT+2e0KwRJORXaNjs4X9AJv+kSlS2udMia8YcOVvt6Xla1Guth8E93o61qy2mXUXyyYxowz6picBLEovwoCgjX1T4veqi3J7IdrnrxWPzuTE1mHYrmzHA+M5ENrO/oAYbMj9s8kJrWxOjbc2X+dmLL/yiXwyjOK/ddpL7W+kREBbNrGoR+5M/3iB02G4ZrDKXN7esewzuGXPJHFO4Uxh457/viK7tj3llp3JNPfEgQy+0/iP7RX0sEasG9oQcurotiHSQts1YAVk2QEJAKJAkxo7MaNTA/GFjpkO+eRlscVigWcvz0U1GlbWMElY3If3KzGSWsPvno2KsIw0286cJmCCOLlTtkDh661TJxqMCYa+lKqdVEVwbO0sucTBa2+Q6sreNN4Eh83T2F5cRzDU8l11DIqKEA0sxCKG5EhvGU/y+FU9gtM0+bmQdBGr6nz0+8lumru9fZMUivTy6V6rZxH+SkBRL//jQU1NLUx9DCxl4Eon5FPx8tS6tb2hNGym0jON724IbLviMYkQHtWrZb3IUWlMqeGrC6e/j5ZZYgBil09tMke0DH4RghXwSciNKtVYMpWI13ixh81YK3YZdR+VZ1NudV76zuP55eA5qb4Z1TvMHvJG+etfka2qmawkjpq9qHLV9g/E3T8VlYx7YH9d929wf5bBjrDtlxjRvBcLENuhz9fvQ9MhFk7rtMHUVqdkNTGrHP4MniWo83vLWUA5Nt1hcCeEzjXOIqf1t6vvlhvX+N1wyHOX6o+skwxBoEyezCFLVNHPgdm/P14xHKqIYz5m8yIoFL2NHJieVwBtHyLfkVL/OvoRGH+iZ45RGRpKRt9sQyW3fm8XOVOntQuhY8yc5h+9BjzmZNiQ2NBTfkiKmT0WQQHernT9h4I7ugnZr3FAQQ/QU9fV2gvIkOPABOaVCDEyiNMQY17mFbx23fQk1vwMoNLXv1h+Yt+Kk+bjlaeukpeYMUig8CZNmf36qu4rbwcUH4JjZZXtaHV0Nvksu5ro79ddAKcXRVEOW1aPQT4tuHUw4p9LGH3TVN+tc+UVoH8ifpMaWiT1cXTEQCUNhCxq1ZasqnYrJRdBm5twU+bTzj5KnrU6DTAlei7ZLNhGFe/UlltvqnR0O1Su+WSw/C3QM8Yv43QrUaBaWsOmoF8jvtesYGDq7+oMr3kib2X/GwrUw7VVuN4uto58bWN4zEMbLbl4un0E8e4vwP8MwY5cUuzG5c92DCm1q765Zia99l/xX6aBTG3M8FRr9l/VTTC893lv4NifkrZp5P4irYjgDGPCIGxnDnm8FTTNjcyx1ILRSrake8tDl25eHsgIJarleasv+rW/Ke/Ar89wWtSZU8z9r39GfPvQr2Kaz/jdUNzxYEisSyvYV9IiM8YgU1AIFkGkxAkh76OTtx/Rhfefha0/OiYuEfLbHJi8h9ZmkWbK9MyOfoyXBxSMpuoTTdSJdqTxlGuAeDg6dehpUbzYr23fPHoxtV97QG/tmzMr38pfNS0c8rCEnsdGS8dtJHsfKA7RJ0cxjGs6iG+rnhLky590iuWxHhYefX7zvwD07QZtIofbSZNGWD0n7K0S+zxdGYSy3flMi1vPx+xt5BVxxSsPOVyQ1/fnEOGvo7HOObzV3FLNQHfKHIRNvLXBa24GfyIrauetbxLx018DaNlmg6clW70TsUvpCn7ZPn7uLj0WHnpwN7Y/yXCx1pg2qvfZ5XaifyVQX8pnrTJy6sOWTXMJE9PQCvGNrsiD3fQcdpn2uYTVmBqV+iyC6u/xvhajC5WDB195Bx/HHYZAcYqt3uccfkt0XXJbfJ01bOWazZCS8t68X0V/NM+vgotvECx2HtJSu7yM3nfdXS1c+PrGlNt2LB/unCPKWf/tT53CTGbjYU/BhJi6qpnLWf/FftY2rBh/w1tKvHZjJyf0hYMkxhpTAEuG7MQjczhgzqO+Wwi2rvjvSWAik/qH4G9h3B46d+Yf3cCxyPSZnH24Af45RXdyOLs4SLGfrkpVueIqg0n0XMoC7x7Crx9gtHCE5/CB/j0cEu0rO0cMihivvRf7NvPi+MicHNBTRF47/lvs/+rKQdJnL42ahsg+zdc5bIdHxkBRmDXI5BpaMX8W+13+XY9JgwAI7BdEGD/3S49xXIyAlEEdq3/ut5PXOVR6LhkFyGQ1E+Kv49i9O1f8eWBbO3RWfsnvn3Vgp5DJyrOfKq9cMxhJyOQeIncTgaBdWMEGAFGgBFgBBgBRoARYAQYAUaAEWAEaoVA858+Re7t/+Hb5blasfDoUnBp6TVyBzm4VFugmboNgc3LYLJx5zJGgBFgBBIgkPTLUAJSXIURYAQ2GQH2300GnNkxAlVEgP23imAyqR2LAPvJju1aVmwdCHAG0zpA4yaMACPACDACjAAjwAgwAowAI8AIMAKMACPACDACIQLvlUqlzdmDKeTJZ4wAI8AIMAKMACPACDACjAAjwAgwAowAI8AIMAI7CIE/8Ma5O6g3WRVGYIciwKnHO7RjWa1dgQD7767oZlZyhyLA/rtDO5bVqioC7CdVhZOJbXMEeIncNu9AFp8RYAQYAUaAEWAEGAFGgBFgBBgBRoARYAQYga1GgANMW90DzJ8RYAQYAUaAEWAEGAFGgBFgBBgBRoARYAQYgW2OAAeYtnkHsviMACPACDACjAAjwAgwAowAI8AIMAKMACPACGw1ArsvwFQax5W741ipNvK1olttOSulV2961Zs8Jp6LAzh2u138G1w0bwKod/ktIm+Xopr4db0pn9R+ktartn5bxTepHuyfSZHa9HrsvwrkW+VHW8VXUT32lP03Fh6+yQgwAtsBgSJmfr2Jb5fnaivs2j/xbWEUM+9qy4apMwI2BGIDTFdut+PKSyUUk3jysYKJu+04VotAjk2LqpflMRgrex6DfhDBCyb0YGK1UiFUGgPIy+aEsUJbw1+ZXGnlsm3FR4cMTjpq/XYcexRI7bcoh5sk7KrnKpftKj2q8ioYQy1X9IjDXmr4KM6u8xicmsNXXbN4fm0WfU1qX/ZgolSp/Gp9AxuXrFq5jadBh1jY7MpFRytXxwcD09s23qo+m3nukG3dulgwFOq4yk1dVXlUu4yrR0HL9YwzKs0K5LOOf0nbqzzjzl04qOW+3iVg5WVPELyVQVwxBmn9GGd37J8BbnXln3E2Qvfs9iCC9dZnpaN+wMZlx67yoKF/otJn//VsSsVBxYf9d+c/X03/UK5pbLY+S5Q6ttP1trPRSlLm5Jd0TEjChOswAh4Cxd9/QL7hb/hyfxFjhZsY+70YQvPuKcZ+fYqiPIZ3AFkmj7Z7atnec/jyYAvyS0+hcFBr8DkjUDME/hBLubkTmfl+TKRHcakxtqZ+s/QED9GJC5jCj6XuytrqlDb9il5izs8UgOZeXI7l3olb1/qRk3VK43gozxMc84++ADpm8bzVe3E6/yiP52dywOoCMh2zGGklIjRR8/FfHcCxKeDWtdmQZwI+cVWcMrgaLT4OZAYoiNiPiVJO9G9S3Fz1XOUuUcqXk3whxmKSd3cc31/sRsqlhwt73/bzj9oxjE60uZiXljCPLE6J+iuYeDCFj7tmMULXFMR5MI6PPnE1dpdbsbHKOgDYeJLO8O3MtG2SK2JXDtmJjpWvHB8Mn3CrtAV3LLItOnxN9J+lvgvDmPKoojF2Ga0MwJCjwnFGkrTakLypHF31XOVK0wpPy+Fg6E3Uj4zi+ZGQjfDHJtj9zLf5sDZlD7J/as8sDZx6v7DYA/tvpNNcfuoqjxBIXMD+GzzT+fma2Gq2U8Xq+8x20p5lrR0Cc/jpNyB3OAvgKdDwAfaVfsDM3h4c31MDrns/RO7VCH5aO4Gze2tAn0kyAg4EYjOYgDQu/zmLb16YmSr+Up/g66H69QpYWZgCMj04ta+Ahwt+BpT4QjCAQcps8tuJJUSx5eOYoIyR2z59qmvyFGUqfwrKeNf0gJC8xNd/M4NEtNW/eKfoJaarVw8iWOrZ8VzAWKCfSlf/oje4mMf0XCdOiSASkEp3oO3Nkrdsr7UffX45cACtzR6n/AJlxigBLV8At44mT1PiGBlUnO8MoSCbarItY7GYxQE/+GLFTbZTjq561nJVDu2LuwtnhRFIvhBjtJ7GheIClqmKSw+tPMSemhDOw02TGDmaVpko53kMCqzu4TrZ6N1RaCvkmtKKTbnkt/eZFZsYWQOhNJ6AjY7LrgIadKLSScJXa7yZFy5cHTKsQxcbhkTdVm73zRi7dIgZLXboqfqL6rcO+aJ07Xq49NMzSNTxziGfxnCDOJTGMTzXiatHDmhUNVvV7rB/anDU5UUSu1EEZ/9VwPBObeMQ3bGWq+NFNZ+vEaksBey/ISjb5vkaimw70553ImuJPlQNoVAcwnl/NYRWR9oc2eFdda4fbWd91gj7tc/9nfUDPt57iLeNgYWfy2dsinMZI1AJAmu/4peG95EJgkkt+Mv+FuRf1Wq5XDMyjX/Em3ecw1RJN3HdjSMQn8FE9Fv7cWuhHYOLtORHMvQm6zLThh4aQQYOVvDjPPDxJynkVjtx/dkTrBzxMihQnEMrLR+SGR1TAzjVlYa7fAiLf57F8zPE18WzG1ez7Zhe7EeOAjOLj3E/exp91ET94k2ZGi/yuHRU6rDRIwUS7gkibccnMUJxB0U/gQllrFw8iR/VTBrRIo9BlX3jQWSKj0XwgzJNgj+RCdaBG415jM0VcH+uHd/4Ny90zIpAlJg4yq/6UsczB/TsnYBgzEkgQx5jd4bCLCp6iD9Q29GXy8/wTdHyRVmttuFz6u8F48rDywAAIABJREFUXJUZW0IOPwPIirNvYxrfOSyXgJwIglHASL0uo0eAvRdc+hoDGDmSAswgZcAvh76uXsw/AG4E2RN+wEjUacNXXaNIYbwCOwmIx58EsqaQuvi5t3xT4+lqTkFGm12lcCkJnYCvpG/4BOG1mX+xdlFGthroYvdNAkS1Q9MuTcAMuZ3jzMEyfmvS3eh1rf3T0NuwpfyLIeD4JHJIIZfEVsH+CcRjulGL2HB79t+Y5+6G0TUIsP8agLgvg2fDLn++uhESd76eyeLWtVGRYZ9/NIBldOPSJ714qM2JlCxUOV+lOXlRnesDOa0dzaMsc8GLrrl/nG0rfIj/s3FcbrXJWUZZvs0IrBOB4rvXaGn8EH7ugEdl7zl8unYT/1r7O842rJNwTLPmPS14vfYG0LnGtOBbjMDGESgfYAKQO9qL4QfjWJHLe2ipQXMvbqgZOHceI38mh1zwMAbQeBoXpr7zlsmRrM0d+MjPeBEZJfgOy6vpmPJeXJbZPHE80524vpBHX2sOIiPjaL+HDAUl1C/5zWl9c+/Gboxc6y6PYqReDn20x45oSQ+/fkw0dWh6iKykmQUR4HiIEKvyzGQNekjSEisKSlAGmRLQEXoNIE9L9Gw6lpZg4ymCXrRECkDb8V5kJCv1aOCs3vLOKfgwi0ti+V4Plrvk8qhoTZ3fpBegiVazl4jlLPdw3w/ieZU6sQzdXgKcqYJc3ij0m8RIVweu3AmDcgJDaX+I00PFfgUT8wUUip/h2Ewo6vm7wK3MFK4HePpBxrAKwiWIfjBLBjgVPwjkL8HaZwo5x6kqK+w8aeml889uVwiWcCqya3R0vqAXeNMnKl1a65Qx4Q0brvQlsqxsNdLF5pvoRl/XktUuo/5iwTRmnFHH5CSIRflVEBCsqX9a9FZtSWY/XPPktfrZmZzIOhTLneV4YCQfWtvRy47Njtg/k5jUxurYcGf/dWLK/iuXwCvPKPZfp73U+kZGBLBpG4d+5M74c3CTqfWZSGOuMtePtKGlzba5IJCzzf1L4476NHdU+KiZYyZPvmYENhmBzP6T+A/tlXSwBowbWtDyqij2YdICWzVgxSQZAYlAogATGrtxI9ODsYUO2c55pOVxhWIB528PBXXaFlZwyZjcBzercdLag6+ejYowzPSbDlymIIJ4kCl74NC1lolTDcZEQ19KtS6qIqiTVvZ8oqDVd2h1BW8aT+Lj5iksL45jeCq5jlpGBQWIZhZCcSMyhLfsZzmcyn6BadrcPAja6DV1fvq9RFfNvd6eSWplerlUr5XzKD8lgOj3v7GghsKnhh4m9jIQ5TPy6XhZSt3anjBadhPJ+aYXN0T2HdGYBGjPqtXyPqSoVObUkNXF098nqwwxQLGrhzbZAzoG3wjhKvhEhGa1CkzZaqRL3PijBqwVu4zar6qzKbd6b33n8fwS0NwU/4zqHWYveeO81c/IVtUMVlJHzT50+Qr7Z4KO38oqpj2w/667N9h/y0Bn2JZrzAiei2XI7fDnq/eBiTBrx3X1g6iEJe6ZKOu4jjZbpbrWub8XsBL7bar0qP/Uaz5nBOoJgT0ncK5xFD+tvV99qd6+xuuGQ5y/VH1kmWIMAmX2YApbpo58Dsz4+/GI5VRDGPM3mRFBpexp5MTyuAJo+Rb9ipb419GJwvwTPXOIyNJSNvpiGSy783m5yp08qV0KH2XmMP3oMeYzJ8WGxoKa8kVUyOizCA70wJPrwINCy4lZb3EAwU/QU8YW7UVk6BFgQpMKhFh51CmocQ/TKn77DnpyC15mcMmrPyx/0U/ladPRytPUyyGDwJk2Z/fqq7itvBxQfgmNlle1odXQ2+Sy7mujv110ApxdFUS5t8Yevm049bBiH0vYfdOUX+0zpVUgf6I+UxraZHXxdAQAveDaPUTsqpWWbCo2K2WXgVtb8NPmE06+ih41Og1wJfou2WwYxtWvVFabb2o0dLvUbrnkMPwt0DPGbyN0q1Fg2pqDZiCf475XbODg6i+qTC8JYu8lP9vKlEO11TiernZOfG3jeAwDm225eDr9xDHu7wD/jEFO3NLsxmUPNoyptat+OabmffZfsZ9mQcztTHDUa/ZfFY3wfHf576CYn1L26SS+8rcjEFjIvS/poqxPhehBtjPHTaWKde4fW19rrF9IfnopXzECVUVALFcrzVl/1a35T38FfnuC18RxTzP2vf0Z8+9C9sW1n/G6obniQJFYltewLyTEZ4zAJiCQLINJCJJDX0cn7j+jC28/C1p+dEzco2U2OTH5jyzNos2VaZkcfRkWm/3JzCZq041UifakoU0ALeUaAA6efh1aajQv9uyRLx7duLqvPaDblo359S+Fj5p2TjKJvY6Mlw7aSHY+0B2iTg7jGFb1EF9cvKVJtA49xMqr33fmH5imzaBV/GgzacoAo/+UpV1ij6czk1i+K5dpefv5iL2FrDqmxNr3CE+53NDXN+eQoa/jMY75/FXcUk3AN4pchI38dUErbgY/YuuqZy3v0nGj9ObvaZmmA2elG71TWmM/peyT5e/j4tJj5aUDe2P/lwgfa4Fpr36fVWon8lcG/aV40iYvrzpk1TCTPD0BrRjb7Io83EHHaZ9pm09YgaldocsurP4a42sxulgxdPSRc/xx2GUEGKvc7nHG5bdE1yW3ydNVz1qu2Yj/1bgK/mkfX4UWYtNYb+8lKbnLz+R919HVzo2vdRx39D37pwv3mHL2X+tzlxCz+l+dPl/ZfyHmnWLuuJOerzGuK27NyPkpbcEw6f16Lrx9kmi/Uiq7uu+zZHPyRr3diO1Z4+91GZn7R95PlGeTSweT35FUYp9zkeRyRsCKwN5DOLz0b8y/O4HjkQpZnD34AX55RTeyOHu4iLFfborVOaJqw0n0HMoC754Cb59gtPDEp/ABPj3cEi1rO4cMipgv/Rf79vPiuAjcXFBTBN57/tvs/2rKQRKnr43aZn/+DVe5bMdHRoAR2PUIZBpaMf9W+12+XY8JA8AIbBcE2H+3S0+xnIxAFAH23ygmXMIImAgk9ZPi76MYfftXfHkga5Ko/vXaP/Htqxb0HDpRceZT9YVhirsJgcRL5HYTKKwrI8AIMAKMACPACDACjAAjwAgwAowAI1AtBJr/9Clyb/8P3y7PVYuknQ4Fl5ZeI3eQg0t2gLi0lghsXgZTLbVg2owAI7CjEUj6ZWhHg8DKMQLbFAH2323acSw2IwCA/ZfNgBEojwD7SXmMuMbuQYAzmHZPX7OmjAAjwAgwAowAI8AIMAKMACPACDACjAAjwAjUBIH3SqXS5uzBVBPxmSgjwAgwAowAI8AIMAKMACPACDACjAAjwAgwAozAViPwB944d6u7gPkzAoxAOQQ49bgcQnyfEahfBNh/67dvWDJGoBwC7L/lEOL7jAAvJWUbYARUBHiJnIoGnzMCjAAjwAgwAowAI8AIMAKMACPACDACjAAjwAhUjAAHmCqGjBswAowAI8AIMAKMACPACDACjAAjwAgwAowAI8AIqAhwgElFg88ZAUaAEWAEGAFGgBFgBBgBRoARYAQYAUaAEWAEKkag9gGm0jiu3B3Hiina4gCO3W4X/wYXzZu77NqF0U6Aod50qzd5zD4u5xf1Lr+pzyZeW8eZWvPf7P5Iyi9pvWrjs1V8k+rB/pUUqU2vt6n+K+1UHjdL26T8ktarttxbxTepHuy/SZHievWOQL37Wr3jt63lK2Lm15v4dnmutlqs/RPfFkYx8662bJg6I2BDIDbAdIUCQI/yWrv8o3YcswWMtFqWC20wzWNwag5fdc3i+bVZ9LVa6gdFK5i4u06eAY0qnGjyx9HLYzAWnzwG/cCaF2DrwcRqGXpB/QHovaG3W3nZEwTtZPBO9B/JHtBox5WXMtynymKnHd/f5dvrEqr1o7YFlMNOUnPVc5XLdpUeVXlVfNRyRQ8nziHfsniqftGk9lsPJkohncrPDGxcsmrlNp4GHRJEmfSHtlW5hLVrYfTXbamXWq72r5TEoqu8VdHRpFOOrySu1qNgfLmxQrZzHU05Kq2XtL2Lrlmu6qfir5b7epeAZOOb7FuTF10bz53t7F8uP9XKXWN9iKkNpfors9uD6M/guabaT/XHJG3cdmJsImeRO/ZZb7Y3r5P6n6ueq9zkk/Ra1U/FXy0PbY39V/FHzYaUMUsrV+rT2BXYeohp0p6q23qkr5wvm+eavqSzamNJNaqT94ek4nK9XYFA8fcfkG/4G77cX8RY4SbGfi+Ger97irFfn6Ioj+EdQJbJo+2eWrb3HL482IL80lMoHNQafM4I1AyBP8RSbu7EhTffYaKUw6VGAKVxDL9pQ1tsI8fNxm6MXPTvlZYwjyxOEc1yf6UneIhOXMAUfix1e3KUa7NF92kCdX6mADT34nKsDJ24da0fOVmnNI6H8lw70sPxC6BjFs8pCEcv8nfH8f3FbqS0et5F6sgonh8Jb9CkeLjpALD6GJmOWYyIQB5NVPoxkR7FgRchbSH7ozyenwmkgmiPTmd/5x/Ftw8l8c8WH4e6gHTrD2wrKXaueq7yiAyJC2Kwd+mxumDFWfgOvd5Sf8TgCc0vVjDxYAofd81ihPyE+v7BOD76JLECQUUrNlZZBwAbT9/erHRIring1rXZ0J4DzvV0Yvic6A+3/Vp1XYc6NjqV+Y0ht3OsiBfOJoethaueq9xGI1lZjH8JAobeVGYd32D3E9sYuWP8yzE2kM5Wvx71n5sWTJN1Vh3Uisru9KMqj0mRcTsWYxMqQ2723wAgb37C/hs823e0/wbdrp+o7wX6HTGPds11zarO6230/uDUgW/sMATm8NNvQO5wFsBToOED7Cv9gJm9PTi+pwaq7v0QuVcj+GntBM7urQF9JskIOBCIzWAC0jiVAR4ueBkv+RdDyGQ6QlLa1xbl64JafmcIBWoRfJ3IY1CU3cN1+kJxdwCDd9sRLpOjAEj4RWdlYQrI9ODUvkIghyeA/kXHa28pU2WRX0ACWXxV5LV/nKAsLf/riUeXJvRDKBSHcP62/1VJ0A3lJEoiwNPVqwdkLPV8rsZhAWOUqSX4SrrLWCx24pTM8Go9jQvFBSyLlhZdVYoUDJzrxNUjKaC1X8kSO4DWZqqYx/RcSDuV7kDbm6VgKSO9UA43TWLkaFqlqpzHtBc6+7rI/qeWmhykWxYH/CCjFTuFmzx11bOWq3IoNgXYsJYc5DEGe5ceWrnE2aOXBE/dL0ahrRxtSit25ZLfbhNWbGJklQhA42m37/wCZSIqwdKg8VacuHCxyRJjvw5fpj6U44LIJgoyytx8o9jH87VJGi1z8FPtXfU7hz5RuvY+pnpRPfwxPfjKLMcsqu2QT2MY419aPcdFML4d0CsYNhveNJ87O8i/VJ2T+HUISp2dJbEbKbLbj5xjktM/3Hyt4/aGMXbwc8rn8D8JhXK0+in7r49QnT4fd4j/aplIcq4tPiR67wbW5yfZvMhgMubYLxYUqzZOVT+RfHw63tw9fBexvj+Iut57h3yei3l+bPk4NNouGaQ8QmSytxjdDbX4cpcgsPYrfml4H5kgmNSCv+xvQf5VrZbLNSPT+Ee8ecc5TLvEwupGzfgMJgAHjnyOzO1R5NNpDL/pxY2jwNfzJL83YZeZMfTwOC8yYCACSLJcBJYeqPrm0NfVi/kHwA35lXkROLaQR19rDlh8jPvZz/FcBB5W8OM88PEnKeRWO3H92ROsHKHsHePrtyBvK6MBfijIKglkPKrKY5wXh7D451k8P+NnjTwbx+XWblz6pBcPVZmDl0ujfaJLCq7dEzXbjk9ihGI4xTm00pLBRm8pyHnKVrl4EMAclktATuBBQQu6XsHygzD7wsaSgoE4PhnNKhFfdDpwoxF6AKPxIDLFx17w6mUPvsYARig4lVTPoH0eY3dCzKP9T/30Gb4pGl92bUpsqIzscwFXZWYNTQhkBpAVa1tWmA172Rdl9FBwJrsrj6fFL2RavGcp+KprFCmMO2zlJH5Us90qwS6QNYXUxc+9VHyNp4sYveQVcH+uHd/4VS50lFvy6qJVhfLYfjV8Tsn0E5wD+4U1O5DqiJc32Y6yJF7kcYnGkli+ZfQqy9eQO2asiPe7MnJUfLvW/mXoTWOR8heObynkEtnsTvKvFC4l0TnwawlcPKay1pYdY/3IlN2QMvAj15ikz1e055KDL5KM2xGMDblgyM3+KwBi/03wnI3YlmFLxphoWt5mX2fkx8+FKWSyWUwvArnWZSwijY/inp9C0JQ+x6b52h36oDukqEFzxtOYVuaX2pxenbuLVq73B/2ZLTLIpgZwqiutPcv1cuW9wPnu042r2XZML/YjJ1Yc0LvMafSRLGr2rTp3ULTj092BQPHda7Q0fgjxnV+qvPccPl27iX+t/R1nG2Rh9Y7Ne1rweu0NoHOtHgOmxAhYECgbYAJyOJX9AtfvAPTyKF5wiRAtN2juxQ0/u0ZkwNx5jPzRtFZu4RktosycqcfI0/KshXu4kO736qgP2Eaq8523TA60bC7kLSqLumaZW8aoEH4JLW+TGUPqlyWzAaX2Xus2S6PXkXo59NG+U6ImBcD6MdHUATR34COZzUPZRDOUqdSNvq4lXLkTvsADnbiFJxg29Vc5y6/71/SXMi8oSMuuKFDh2s2JHsoFFIqf4dhMSPT8XeBWZgrXaQkggLbjvciEt8Mzwy7CG/KMXo5mcUkET3qw3CWXb8j74VFMHgJ+k17AK7wdfyaWw9zDfT+Q51XuxDLSDqwBeqEQSxyFfpMY6eqIYu/3EYUh3HrQy4zEeQUTifD0A42KVuESED+YJQMaNlspIeoTCi33qSorLeOTgUuFp7JsMkpHCRSKSeEA8uryz2iD2pXYcKGJLSw+l/68cjn8Sa/nAfSsTnsZf06+lbGI2rtFbtdYUULF426UnzlexMhfU/+y6J1WxgljfHPZbEQ/IxnT2o4Chrb+rDP/Qlk/1f2anuOR546KaUxXb9otG+7r8l/LmNQVMy+x8l3BsmPcDpft6BhH7O2IBXP2X2+rBcqu9ucnVj88kxN7rmnPY/Zffd5YZ/57Kut9kMNqFqeOpjH8Ig80LWF+30Hvo43r+ekaYJp7o9tB0NjveO8QW1PIuTvRdL4/6GM86P0D32F5VZ8b6uXKe4Exxw3efc7kkEt34rr/sVxkUh6V7zJewCwyd3DpzuW7DoHM/pP4D+2VRHkF1f5raEHLq6LYh0kLbFWbD9NjBBQEEgSYgNzRXrTNLXhLtZJmtChMyp96QazpxdMALdui7CEAlN5aKBa0rxhtCyu4ZEw0ytOv1xr6MiqrlGqAih7QDwBjUUikWfh1UL1Fwazv0OoK6IiHZhqX6XVcBID8tj5PL9usW9njKY/BGSWNOWiv8ow79/ucNj0NgjZ6fS1jRL+V7Mo1QXG0jvJTgohO7E09TJxlIMpn6sSTJkSKYDSRooxB4QtEYxKgPatWlSWqSvX1nRqyunjKPdjKMWk8iY+bp5SMu3INtuK+w+fK2S/1mwga+nti+f24YQ0UvlH7U6k75FarVHgezy8BsU3xr6je2vgWZ7PqV2NSZ6f41+I4HtrGhsBPDb+OdGUU00iVui1wyK74kSa6HJPo5bGiv7hxmwhFMY73J4fcFcmkV47np9e1XrH/WmEJC40+jhtrHHOYkBbNc/zn4w713wNNwPRqHotv0rhMur4ZRX4VyKS7vS0yavH81ADWL7bk/aG1B189GxWfb6ffdOAy2UWt5g66uny13RHYcwLnGkfx09r71dfk7Wu8bjjE+UvVR5YpxiBQZg8mv6UIchj7rIiU9CGM+RvFiME8exo5UU4bcnttRXmMAPIWBbHmp77A/PEef1mXl0lDWVP0S3PiX0cnCvNPsEIPL4S8BQ1rGS37CusFMlIDmc4rA1lSkLij0kY8NLR9fRwN6eGi1lscCPeboi8stA9Rk95WkzO45a1RR+YkUjZdZT2aBMm9l5SyK5HgEgVG7ok0ZqomeMovTbJd7NHRPqb/V14OKL+ERksZ2tBq6B7LspKbhn26mtqxNmsr2BNWLj1EX8cE8Uyycdem/OVsJc4mbHxssrp4OifPng0My18llDLKSZW6H4HgF+6N4PmPcm2TcQNlWr/afK7RYb9xPJVMB0HfUlfja7nvZYQm9Dub3Ia/BPxi/M4qxkYLTVtx0Avkc9z3inX/oqUJwZ58qk1RZXN8M+Uw67v4uto58bU8c1y0fTkjY66LZ6X+1ao/18SXermfnc2vSZ44TOP02KJ7mt1YZXf5r2NMEpiVn5dofF26uzA269vkdtoX9Wl5+UwW6742bdFBKBEetGXBgyGIuQnRsektbZz9Fwd2qP9SJg+efYd5mqMihY8ywPQCwjleguenOi+3mqRht277jHl/MAnTthwkm+GbYrsOW3msDKT3HKYfPfZx8Jkl0d2Ui693JAJiuVppzvqrbs1/+ivw2xO8Js33NGPf258x/y6Eobj2M143NFccKBLL8hr2hYT4jBHYBAQSZTDZ5fD2tKDlW8dEBUpL936BrK/jMY75y7rasu5fIdPo0gty8xSQ9pdp0IuCuQxMLKXzl8l90iuWL3m8veV7fbayLrWelDGHG8d7xIbdJEMiGRu99dW0d1Kwb5KmgL93kr+ki9aOi/1ozIdWUxrzAWae3DmMY1hsIO6vNxdfFv1fcxO/iKPs1+Svu6c9oULsff1b/YmesfeSeAijgIKy1E7ocOYfmKZNeo3+M9RyXuYc7V39n2oCvlFkIHzkL6ypywsC7NR0Z18KVz1rudb3lBbdi+/pV9hcWJuaOrB36bHycopQjuK8rr0STP9qE3swxdmK3Sbsdnl51SGrhpnk6QFjxfjMJJbvyuWUen0Tzppfu/rV6nMAHPZLctp0vbqvPcim1MYMF18Hnb4YvhpGVrndY4XL71z69NWpf9Hm8tExUmjhvchq45vLTzQkLReudm5868m/cg4/dY71aRemFmi2qsjlRy57cPhRzjEm5VzzEhdfBw5OjM1x3iq3277YfwnwpM8Q9t/w934dhrrZxY0HQW/NH/tzeJon3Z9P43sRXOyG8/kp5VTn2NlO0I8MRf/Mfvfn9KUlvWrc+wNlgas+T9tOXOtGqkT7W6r7PinlGnWHDH4dCrTNi/0//XcZ0ss1d9Do8sWuQGDvIRxe+jfm353A8YjCWZw9+AF+eUU3sjh7uIixX26GG5o0nETPoSzw7inw9glGC098Ch/g08Mt0bK2c8igiPnSf7FvPy+Oi8DNBTVF4L3nv83+r6YckhKnl/ln6eia66TtuR4jwAjsWAQyDa2Yf6v9rt6O1ZUVYwR2GgLsvzutR1mf3YTAjvJfykBUf7BHdqSrXN7nIyNQBoGkflL8fRSjb/+KLw9ky1Cswu21f+LbVy3oOXSi4synKnBnErsYgWRL5DYBoDxt7v1n2y95bQJzZsEIMAKMACPACDACjAAjwAgwAowAI8AI1AiB5j99itzb/8O3y3M14uCTpeDS0mvkDnJwqbZAM3UbAvWTwWSTjssYAUaAEQCQ9MsQg8UIMAL1hwD7b/31CUvECCRFgP03KVJcbzcjwH6ym3ufdTcRqJsMJlMwvmYEGAFGgBFgBBgBRoARYAQYAUaAEWAEGAFGgBHYHgi8VyqV6mMPpu2BF0vJCDACjAAjwAgwAowAI8AIMAKMACPACDACjAAjYCDwB94410CELxkBRqDuEODU47rrEhaIEUiMAPtvYqi4IiNQdwiw/9Zdl7BAdYgA+0kddgqLtGUI8BK5LYOeGTMCjAAjwAgwAowAI8AIMAKMACPACDACjAAjsDMQ4ADTzuhH1oIRYAQYAUaAEWAEGAFGgBFgBBgBRoARYAQYgS1DgANMWwY9M2YEGAFGgBFgBBgBRoARYAQYAUaAEWAEGAFGYGcgUPsAU2kcV+6OY8XEa3EAx263i3+Di+bNXXbtwmgnwFBvutWbPGYfl/OLepff1GcTr63jTK35b3Z/JOWXtF618dkqvkn1YP9KitSm19tU/5V2Ko+bpW1SfknrVVvureKbVA/236RI1W+9erex+kWOJdsxCBQx8+tNfLs8V1uN1v6JbwujmHlXWzZMnRGwIRAbYLpCAaBHea1d/lE7jtkCRloty4X2UMljcGoOX3XN4vm1WfS1WuoHRSuYuLtOngGNKpxo8sfRy2MwFp88Bv3Amhdg68HEahl6Qf0B6L2ht1t52RME7WTwTvQfyR7QaMeVlzLcp8pipx3f3+Xb6xKq9aO2BZTDTlJz1XOVy3aVHlV5VXzUckUPJ84h37J4qn7RpPZbDyZKIZ3KzwxsXLJq5TaeBh0SRJn0h7ZVuYS1a2H0122pl1qu9q+UxKKrvFXR0aRTjq8krtajYHy5sUK2cx1NOSqtl7S9i65Zruqn4q+W+3qXgGTjm+xbkxddG8+d7exfLj/Vyl1jfYipDaX6K7Pbg+jP4Lmm2k/1xyRt3HZibCJnkTv2WW+2N6+T+p+rnqvc5JP0WtVPxV8tD22N/VfxR82GlDFLK1fq09gV2HqIadKe2jb1XPpTeey82qGh2s6gHcy/NzSvMviq/IxbfMkISASKv/+AfMPf8OX+IsYKNzH2e1HeAt49xdivT1GUx/BOsntq/b3n8OXBFuSXnkLhoNbgc0agZgj8IZZycycuvPkOE6UcLjUCKI1j+E0b2mIbOW42dmPkon+vtIR5ZHGKaJb7Kz3BQ3TiAqbwY6nbk6Ncmy26TxOo8zMFoLkXl2Nl6MSta/3IyTqlcTyU59qRgmtfAB2zeE5BOHqRvzuO7y92I6XV8y5SR0bx/Eh4gybFw00HgNXHyHTMYkQE8mii0o+J9CgOvAhpC9kf5fH8TCAVRHt0Ovs7/yi+fSiJf7b4ONQFpFt/YFtJsXPVc5VHZEhcEIO9S4/VBSvOwnfo9Zb6IwZPaH6xgokHU/i4axYj5CfU9w/G8dEniRUIKlpptnryAAAgAElEQVSxsco6ANh4+vZmpUNyTQG3rs2G9hxwrqcTw+dEf7jt16rrOtSx0anMbwy5nWNFvHA2OWwtXPVc5TYaycpi/EsQMPSmMuv4Bruf2MbIHeNfjrGBdLb69aj/3LRgmqyz6qBWVHanH1V5TIqM27EYm1AZcrP/BgB58xP23+DZvqP9N+j2mJM8Bu8ocx4Kqj1aBqyz3Rgycbeae53z57hmfI8RqB4Cc/jpNyB3OAvgKdDwAfaVfsDM3h4c31M9LgGlvR8i92oEP62dwNm9QSmfMAI1RyA2gwlI41QGeLjgZbzkXwwhk+kIhdK+CChfsNTyO0MoUIsgsk8PESq7h+v0RebuAAbvtiNcJkcBkPCLzsrCFJDpwal9hUAOTwD9i47X3lKmynLblzGQxVdFXvvHCcrS8r8WeXRpQj+EQnEI52/7X5UE3VBOoiQCPF29ekDGUs/nahwWMEaZWoKvpLuMxWInTskMr9bTuFBcAD1y9a+3Kn4+WQoGznXi6pEU0NqvZIkdQGuz1356LqSdSneg7c1SsJSRXiiHmyYxcjTtEzQPeTjbC519XWT/U3NNDtItiwN+kNGKncnShbGrXJVDsSnAhrXJLAZ7lx5aucTZo5sET90vRqGtHG1KK3blkt9i/y5sYmQNkNB42u07v0CZiEqwNGi8FScuXGyyxNivAzPqQzkuiGyi4Munm2/UruP52iSNljn4qfau+p1Dnyhdex9Tvage/pgefFWXYxbVdsinMYzxL62e4yIY3w7oFQybDW+az50d5F+qzkn8OgSlzs6S2I0U2e1HzjHJ6R9uvtZxe8MYO/g55XP4n4RCOVr9lP3XR6hOn487xH+15yNlG5E9q1lH2rXDBxDOCYEc+sQHz+j8W+Ml53Y+fW/+TnN9o92LBcVTlFPhd8r7i8gWU94VzGecxseb5zrfExQ2fMoICATWfsUvDe8jEwSTWvCX/S3Iv6rVcrlmZBr/iDfvOIeJLXBzEYjPYAJw4MjnyNweRT6dxvCbXtw4Cnw9T0J6E3aZGUMD/nmRAQMRQJLlIrD0QFUqh76uXsw/AG7Ir8yLwLGFPPpac8DiY9zPfo7nIvCwgh/ngY8/SSG32onrz55g5Qhl7xhfvwV5WxlNKIaCrJJAxqOqPMZ5cQiLf57F8zN+1sizcVxu7calT3rxUJU5eLk02ie6pODaPVGz7fgkRiiGU5xDKy0ZbPSWgpynbJWLBwHMYbkE5AQeFLSg6xUsPwizL2wsKRiI45PRrBKREdaBG43QAxiNB5EpPvaCVy978DUGMELBqaR6Bu3zGLsTYh7tf+qnz/BN0fiya1NiQ2Vknwu4KjNraFIgM4CsWNuywmzYy74oo4eCM9ldeTwtfiHT4j1LwVddo0hh3GErJ/Gjmu1WCXaBrCmkLn7upeJrPF3E6CWvgPtz7fjGr3Kho9ySVxetKpTH9qvhc0qmn+Ac2K/7e6l4eZPtKEviRR6XaCyJ5VtGr7J8Dbljxop4vysjR8W3a+1fht40Fil/4fiWQi6Rze4k/0rhUhKdA7+WwMVjKmtt2THWj0zZDSkDP3KNSfp8RXsuOfgiybgdwdiQS3xIS/asZ/8l7Nr855yJI/svTFsyxkQTsc2+/nomi1vXRsWcM/9oAMtwfZx0PzNPZb/w5sbZfyjZ9Kno/BtKtr72LFbm7wBy6ryd5oB36CPxUAiNn9F0NduO6cV+5MRKAXoHOY0+8Y7jmkMqfIi/6z0h5MRnjIBAoPjuNVoaP4T4zi8x2XsOn67dxL/W/o6zDbKwesfmPS14vfYG0LlWjwFTYgQsCJQNMNFXBDHo3wHo5VG84BIhWm7Q3IsbfnaNyIC58xj5o2mt3MIzWkSZOVOPkaevFQv3cCHd79VRJ2+NVOc7b5kcaNlcyFtUFnXNMreMUSH8ElreJjOG1C9LZgNa8net2yyNXkfq5dBH+06JmhQA68dEUwfQ3IGPZDYPZRPNUKZSN/q6lnDlTvgCD3TiFp5g2NRf5Sy/7l/TX8q8oCClIFOgwrWbEwX1CigUP8OxmZDo+bvArcwUrtMSQJoGHu9FJrwdnhl2Ed6QZ/RyNItLInjSg+UuuXxD3g+PIiAY8Jv0Al7h7fgzsRzmHu77gTyvcqc36bFiDdALhVjiKPSbxEhXRxR7v48oDOHWg15mJM4rmEiEpx9oVLQKl4D4wSwZ0LDJX0LUJxRa7lNVVlrGJwOXCk9l2WSUjhIoFBO4AeTV5Z/RBrUrseFCX+/pS6jpc+nPK5fDn6B6HkDP6rSX8efkWxmLqL1b5HaNFSVUPO5G+ZnjRYz8NfUvi95pZZwwxjeXzUb0M953rO0oYGjrzzrzL5T1U92vRTZAxAcUTGO6etNu2XBfl/9axqSumHmJle8Klh3jdrhEXcc4Ym9HLHbM/utttUDZ1f78xOqHZ3JizzXtecz+q88b1TFx05zUzSgjAmC0XL4fuTP9Xj+7qlt9DsidUT7u3v4C0AJNCjHns1iZvyvVg1PHErlUuhPX/Y/cIgPyqCf/PFxzSIVP3HtCwJhPGIF4BDL7T+I/tFcS5RVU+6+hBS2vimIfJi2wVW0+TI8RUBBIEGACckd70Ta34C3VSprRojApf+oFsaYXTwO0bIuyhwDQ8rhCsaB9cWhbWMElY6JRnn691tCXUVmlVANU9FB9ABiLQiLNwq/76i0KZn2HVldARwSG0rhMr+MiAOS39Xl62Wbdyh5PeQzOKCnHQXuVZ9y53+e06WkQtNHraxkj+q1kV7bJBL2cOlpH+SlBRCf2ph4mzjIQ5TN14klBW0UwkpMyBoUvEI1JgPasWlWWqCrV13dqyOriKfdgK8ek8SQ+bp5SMu7KNdiK+w6fK2e/1G/q/hB+P25YA4Vv1P5U6g651SoVnsfzS0BsU/wrqrc2vsXZrLFn047xr8VxPLSNDYGfGn4d6cooppEqdVvgkF3xI010OSatVjppiBu3iUMU43h/csitCVvZRTy/BLTYf8uAZPRx3FjjmMNoDKQt7lD/9T7iEGbtuE4fQrsq9TkFrdZ+PL92GoO3vQ/P4c6g/tLsaj+LW3vw1bNR8dl1+k0HLlN/0nysQh9RNOBTRqAyBPacwLnGUfy09n5l7ZLUfvsarxsOcf5SEqy4TtUQKLMHk89HBDmMfVZESvoQxvyNYkQwKHsaOVFOG3J7bUV5AnEpiDU/9QXmj/f4y7q8TBrKmqJfmhP/OjpRmH+CFXpQI+QtyFvLaNlXWC+QkRoEexn5gawEMqptRIq9XPsd15ZeRNV6iwPhflOUdUX7EDXpBDQ5g1veenJkTiJl01XWo0mQ3HtJKbsSCS5RYOQeptX+23ewgu0UHe1j+n/l5YDyS2i0lKENrYbuUuQNHw37dNGzY23WVrCnwKdLD9HXMUE8k2zctSl/OVuJswkbH5usLp7OybNnA8PyVwmljGJyRnav7Gsg+MVc22TcQJnWrzafa3TYbxxP5auroG+pq/G13PcyQhP6nU1uw18CfjF+ZxVjo4WmrTjoBfI57nvFun/RprfBnnyqTVFlc3wz5TDru/i62jnxtTxzXLR9OSNjrotnpf7Vqj/XoOps82uSJw7TOD226J5mN1bZXf7rGJMEZuXnJRpfl+4ujM36Nrmd9kV9Wl4+k8W6r01bdBBKhIe/142YmxAdm97Sxtl/cWCH+u+gmAdQ1t4kvqKtHOjjYYJ5dmBj5Ffqr1b7QePgg6pCS80yFe0d9iuK1XbOeil8lJnD9KPHmKc5NtVL6CMRkon4RVpxwS5BQCxXK81Zf9Wt+U9/BX57gteExZ5m7Hv7M+bfhcAU137G64bmigNFYllew76QEJ8xApuAQKIMJrsc3pp4Wr51TFSgtHTvO0Nfx2Mc85d1tWXdv0Km0aUX5OYpIO0v06BJs7kMTCyl85fJfdIrli95vL3le322si61npQxhxvHe8SG3SRDIhkbu0HrtGnvpGDfJE0Bf+8kf0kXrfMW+9EYE0o0pTEfYObJncM4hsUG4v7acPHVxP9mI34RR9nDwV93T3tChdj7+rf6L2rG3kveA7iAgrLUTuhw5h+Ypg0Mjf4z1HJe5hztXf2fagK+UWQgfOQvrKnLCwLs5FJFRQJXPWu51vf+1yj6FTYX1gofcerA3qXHysspFOg/RUeB87r2SjD9y9ubIs5W7DZht8vLqw5ZNcwkTw8YK8ZnJrF8Vy6n1OubcNb82tWvVp8D4LBfktOm69V97UE2pTZmuPg66PTF8NUwssrtHitcfufSp69O/cs+RgotxI8t6HvLufxEQ9Jy4Wrnxree/Cvn8FPnWJ+2PXcssGxlkcuPrH7g9t+cY0zKueYlLr4OLJwYm+O8VW63fbH/EuBJnyHsv1pWj8NWN7V4Rs4DaAuFSYy0pvCRa55t9bkD+PjNZzh2W0rt2YIX7NHn31f3fWZ/Fsum8qjO27OdQPFe0M6r4vGgeSht8zEv9u2US8VNG1PmkJK+eVT5EQbmmGDW5+vdh8DeQzi89G/MvzuB4xHtszh78AP88opuZHH2cBFjv9wMNzRpOImeQ1ng3VPg7ROMFp74FD7Ap4dbomVt55BBEfOl/2Lffl4cF4GbC2qKwHvPf5v9X005JCUuNspL80+IJsWL6zECuwiBTEMr5t9qv6u3i7RnVRmB7Y3A/7d3RqFVHPsf/xYK5s14zK1PieRwou1LIGr1tqciIjWgtBcNSAxIQKH4IEjx5iUEihDyEosIfQgFA0FIJGDLTemFKCJiz/3X1BrIU9uEhCQvtVePJ2/6dP/8Znd2Z2Zn9uxJcpLNyS8Qdnd2Zn6/+cz8Zmd/OzOH7Xdr1x9rv70JsP1u7/rn0icjkNROin+NYOTNx/iyqSVZxmuJtfIjbr5oQPe+IxXPfFqLWE7LBJItkdsATgXa3PtD2y95bYBwFsEEmAATYAJMgAkwASbABJgAE2ACTKBKBDLvfYb8m3/h5tJslST42ZJzafEl8nvZuVRd0Jy7jUB6ZjDZtOMwJsAEmACApF+GGBYTYALpI8D2m746YY2YQFICbL9JSXG87UyA7WQ71z6X3SSQmhlMpmJ8zQSYABNgAkyACTABJsAEmAATYAJMgAkwASawNQi8UyqV0rEH09bgxVoyASbABJgAE2ACTIAJMAEmwASYABNgAkyACRgE3uWNcw0ifMkEmEDqCPDU49RVCSvEBBITYPtNjIojMoHUEWD7TV2VsEIpJMB2ksJKYZU2jQAvkds09CyYCTABJsAEmAATYAJMgAkwASbABJgAE2ACtUGAHUy1UY9cCibABJgAE2ACTIAJMAEmwASYABNgAkyACWwaAXYwbRp6FswEmAATYAJMgAkwASbABJgAE2ACTIAJMIHaIFB9B1NpFBfHR7Fs8lrox6GhNvE/sGDe3GbXLka1gCFtZUubPmYdl7OLtOtvlmcDr639TLXlb3R9JJWXNN5689ksuUnLwfaVlNSGx9tQ+5XtVB43orRJZSWNt946b5bcpOVg201KauvGc7XBcnW/dUsc1dzFIBqTQ7YsgSKm/riBm0uz1S3Byo+4OTOCqbfVFcO5MwEbgVgH00VyAD0saOkKD9twyOYw0mJZLrROs4CByVlc65zGs8vT6G22xA+CljE2vkqZQR7rcKLpH5dfAQOxfAoY8B1rnoOtG2Ovy+QXxO+HXht6uuXn3YHTTjrvRP2R7kEebbj4XLr7VF3secfXd/n0uoZq/GjbAsqxk7m54rnCZbpKj6q+Kh81XCmHk3MotyxP1S52qfXWjbFSmE/lZwYbl65auE2mkQ8pogz+wrZVuYbVS2HU15Aslxqu1q/UxFJWeauio5lPObkyczUeOePL9RUyneto6lFpvKTpXfma4Wr5VP5quF/uEpCsf5N1a8qia+O5s5Xty2WnWrirrw+Z2iilL8zeHkR9Bs81tf2sV59kyDXGQvGcjLRsuwnGJmy75cdpW812463EeZf6sWAcbfTbW/F9wdkvOwlEbxh5HBoy+rxoCg5JKYHiXz+gUPcPfLmniDszN3Dnr2Ko6dunuPPHUxTlMbwDyDB5tN1Tw3aexpd7G1BYfApFghqDz5lA1Qi8G5tzpgNnX32LsVIe5+sBlEZx+1UrWmMTOW7Wd2H4nH+vtIg5tOAY5Vnur/QED9CBs5jET6UuT49yaTbpPr0AnZmaATI9uBCrQwduXe5DXsYpjeKBPNeO5Fy7ArRP4xk9VOlFfnwU35/rQqMWz7toPDCCZwfCG+TMuL2rCXj9CLn2aQyLBzMNfPswlh1B069h3kL3hwU8OxFoBZEeHc76LjyMTx9q4p8tPArLAipbX9C2krJzxXOFR3RIHBDD3lWO1/NWzsJ26PWW6iOGJzS7WMbY/Ul82jmNYbITqvv7o/jkZOICBBGtbKy69gM2mX57s+ZDek0Cty5Ph+05kJymE8PmRH2426+1rKsoji2fyuzG0NvZV8QrZ9PDlsIVzxVuyyNZWIx9iQyMclOYtX+D3U5sfWTN2Jejb6AyW+16xH9uWpgmq6wUxIrq7rSj9eqTXP18knGLrQ2z7QbtyBubsO0Gz/Watt2g2pOf1NT7QgEDd5WxHH3oeLgEWEfxZRBlesLxf5n3gTI58e1NIzCLn/8E8vtbADwF6j7A7tIPmNrZjcM7qqDUzo+QfzGMn1eO4NTOKuTPWTIBB4HYGUxAFsdywIN5b8ZL4ddB5HLtYVaaR13xpqvhdwcxQykoTHyRoM6Wwu7hKn19HO/HwHgbwmVy5AAJv2Qtz08CuW4c2z0T6OEpoH8h9NJbwlRdpMc/0MUvirz2j2M0S8v/MurlSwP6QcwUB3FmyP8qLPIN9aSchIOns0d3yFji+VKNwzzu0EwtIVfmu4SFYgeOyS82zcdxtjgPejTpX29Vfn625Ayc7cClA41Ac58yS6wJzRkv/ePZMO/GbDtaXy0GSxnphfL2rgkMH8z6GZqHApzpRZn9ssj6p+SaHlS2FjT5g3UrO1Oki7ErXNVDaVOAjbUpLIa9qxxauOTs5ZuEp24XI9BWju7KKu3Kpb+l/bvYxOgakNBk2tt3YZ5mIirO0iDxZpy4uNh0iWm/DmZUh7JfELOJghllbrnRdh0v16ZpNMwhT23vqt05yhPN117HFC9aDr9PD2aQyD6LYjv00wTG2JcWz3ER9G9NegSjzYY3zedODdmXWuYkdh1CSdlZknYjVXbbkbNPctqHQ67GUn1e2ftZqVn80SHLqZvD9ixCrDbKtuuTsteZlZlW7/pzPMCu2pyDsbMdBpkAUPNJIldNm7Lzi/5Ynp6RAwv0AcEbAwZje7WNy7E4lUENl88tCquZ94VFAOFYF8ijlz7kBmX0K1K7dvQTap3L9wE/nffe4r+HUVjwbFbezci5FYT77w1a3PA5ro13/NlktjBVJT5PQGDlD/xe9z5ygTOpAX/f04DCi2otl8sgV/83vHrLc5gS1A5HWUcC8TOYADQd+AK5oREUslncftWD6weBr+ZIA2/ALmfGUMdzRsyAgXAgyXDRid5XNc6jt7MHc/eB6/Ir8wJwaL6A3uY8sPAI37V8gWfC8bCMn+aAT082Iv+6A1d/eYLlAzR7x/j6LbK3hVFnOhjMKgl0PKjqY5wXB7Hw4TSenfBnjfwyigvNXTh/sgcPVJ2Dl0sjfaJLcq7dEzFbD09gmHw4xVk005LBem8pyBmarXJuL4BZLJWAvOBBgx26XsbS/XD2hU0kOQNxeCI6q0TMCGvH9XroDoz6vcgVH3nOq+fd+Ar9GCbnVNJyBukLuHM3ZB6tf6qnz/F1MfpF2laO1YdR+5zHJTmzhh6icgaQlbVtVpiNvayLMuVQOFO7K8/TYhdyMOC1FFzrHEEjRh1t5Sh+Ume7VQIu0LURjee+8AYgmkxXZvSSN4PvZtvwtR/lbHu5Ja+uvNYhPLZeDZtTZvoJyUH7dX9XFC8jMh19Pfy1gPPUl8TKLVOusnINvWP6ini7K6NHxberbV9GuakvUv7C/q0R+URttpbsqxHnk5Q5sGsJLp6pjLVpx1g7MnU3tAzsyNUn6eMV7bkUK9fs523jDEOX4NLQmW1XkGHbTfCM3Wq2SzUr7eg1zWru87bAoHMxht6rjQuDsfiJ7fG+UHjd5o35W77RVgkEXYV5Ilmq7wPG7PXl59/iu0y7t1pCfW9xvps16SsiPGvEwJB9nPzVVAtuXR4R7xCFh/1Yoo86Zhg5V03d+TqWQPHtSzTUfwTxnV/G3Hkan63cwL9X/olTdTJw/Y6ZHQ14ufIK0KWunwDOiQlYCJR1MJG3/VjLFVy9C9DLo3jBpYxouUGmB9f92TViBszdRygczGrhFpnRIPLETz5Cgbz68/dwNtvnxVEfsvUU51tvmRxo2VwoW0QWcc0wt45RJfwQWt4mZwypX5fMBDSF93KXGRq9jsTLo5f2nRIxyQHWh7Fd7UCmHZ/I2Tw0m2iKZip1obdzERfvhi/wQAdu4Qlum+VXJcuv+5fNrp8G2TRVlxwVrt2cyKk3g5ni5zg0FWZ6Zhy4lZvEVVoCCKD1cA9y4e3wzGgX4Q15Ri9H0zgvnCfdWOqUyzfk/fAoBiGBvAnP4RXejj8Ty2Hu4TvfkedF7sASsg7WAOQSR1G+CQx3tkfZ+3VEj1V3OVTOyxhLxNN3NCqlCpeA+C850qFhayslRG1Cyct9qupKy/ik41KRqSybjOajOArJiXe3HwV1+Wc0QfVCbFzEAMhic9kvKtdDlM+fkUmpM1lvxp9TbmUiou3dorerryih4n43Ks/sL2L0r6p9WcqdVfoJo39ztdlI+YzJmNZ05DC01WfK7Atl7VS3a/HV3HzuqExjqnrDbtm4r8p+LX1SZ8y4xCmXSm708+3t1n420tYOWNow2663zQLNrPbHJlYbPJEX+62J7Qbks5htVx8zps12yVQCO8qiNZP1x7P+zGtjXLjd3hfyJ5SP1kNXAHI0xX3oDlgCgpV4H8gCYhXFoNcly+VypVFvWw753hLDOvreRNuVWMbJ9ceRwyCuDtH2B33In6B3sgIeR8I27OlQ84Jye47i/2ivJJpXsN5/dQ1oeFEU+zBpjq31lsP5MQGFQAIHE5A/2IPW2XlvqVbSGS2KkPKnnhPr8cJxgJZt0ewhALQ8bqY4gzNDfodKg435ZZw3Bhvl809rDMf0a1Vd1UElZuEAxqIQNbY4D78QqrfImfUtml0OHfFQyuICaEYAOYD8P1+mN9usS9njqYCBqXkZy3c4Uvqkf36d0wbngdNGT6vNGNFvJbuSD2A1Nr2cqtfKeVSe4kR0sjfLYXKWLyi+ICdPctoqypCeNGNQ2ALlMQHQnlWvlSWqSvTVnRq6umTKPdjKCak/ik8zk8qMu3IJNuO+w+aC9u/QiepN3UfBr0dH7OTBitxo+1OzceitRqnwPF5egsw2xL6i5db6t7g2a+zZVDP2tTCKB7a+IbBTw64jVRllGomS2gCH7oodaarLPun1WgcNsp+397/xtuTQWVO0sot4eQnyYtstA8mwobh+xjF+0QTIdritbVcjsoaLLfy+0NyHZ5ePY2DI+xhfMQSb3VaciZHAkWdefJAgO2jDVfqwfbnP/ziuh4W7thr58mVlBHYcwen6Efy88n5l6ZLEfvMSL+v28fylJKw4zroRKLMHky9HODmMfVbElPRB3PE3ihHOoJbjyItw2pDbSyvCE6hLTqy5ySuYO9ztL+vyZtLQrCn6pTnx396BmbknWKaHNULZIntrGC37CuMFOlKCYC8j35GVQEc1jZhir+3r48iAXkTVeAv94X5TNOuK9iHapafV9AxueftAIXcUjbayyng0EJJ7LylhFyPOJXpI38Njtf52761guqsjfUz9Lz/vV34JjZYytKLZKLtUec1Ho3268rOzNmMr7Mnx6SqHqOsYJ56Zbdy1qX+5thLXJmxybLq6ZDoH0F4buC1/lVDqSPFF/sra/3LXNh3XEKbVq83m6h3tN06m8lVR5G+Jq8m13PdmhCa0O5vehr0E8mLszqrGWgPNtuLIL9DPcd8L1u2LNr4N9+3w+0jZBs3+zdRDbYNxMl3pnHwtz5y4/KtpX836cw1qmW1ySc84pnHl2KR7Wrux6u6yX0efJJiVH5eocq39fDZhO7Dp7GxbVJ/ldVu3qjDbviNjlYUjCj0Nxf6UYlxCkWzlZttFYKPbwHatbcVoc0HbEuGVt/0t9b5AfbL6C5S+M1x8KE7wHhKwsoK1BDpZW/ouI26QW2kUA2JcRzMxJ3CNtuZYsISpH0WDxHwSR0AsVyvNWn/VLfPex8CfT/CSMtiRwe43v2HubZhbceU3vKzLVOwoEsvy6naHGfEZE9gAAolmMNn18Pa0oOVbh0QE8nB7vuze9kc45C/ram1x/wqZli+9IGcmgay/TIMGzeYyMLGUzl8md7JHLF/yZHvL93ptYZ1qPKljHtcPd4sNu0mHRDrWd+FSi7eOOtg3SSuAv3eSv6SLZl2J/WiMQSVt6jgXMPP0zmMUtyNTX/3vAuIXcZT9mvy9SGhPqJC9X/5mf7Bn7L0kHlCYwYyy1E6U4cQ3eEwb/hn1ZxTLeZl3pHfVf+Mu4GtFB+Ijf2FNXWIQsJNTfhUNXPGs4Vrd0xTuHnxP69hdrBU54tTB3lWO5eeTRDnK2dg/xhRjvzbtq1XswRTXVuxtwt4uL7x26KoxkzI9Da2MT0xgaVwup9Tj28tVxVBXvVptDoCj/ZKGtrJe2t0WzKbU+gyXXEc+vTFyNTpWvd19hcvuXOXpTal92ftIUQrvZVbr31x2opG0XLjSufmmyb7yDjt19vVZ23PHgmUzg1x2ZLUDt/3mHX1S3jUucch19fOwPnsNcFad3W2LbZf4JX1+sO1uvVkjZp3JsTgQ1/YNqwovt9T7wjf49NUVHBqS6nvtvLEe7vcQW59Uos3Ck/y5WVufYdqzxB8n0/6vU3JcR1tiTK3VdhIAACAASURBVGC4eQkDk0aYdB4nUYvjeAR27sP+xf9g7u0RHI4wacGpvR/g9xd0owWn9hdx5/cb4YYmdUfRva8FePsUePMEIzNP/Bw+wGf7G6JhraeRQxFzpf9i9x5eHBfBzQFVJfDOsz+n/1dVCUkzp5f5X7LhT3AmTcfxmAATqHkCubpmzL3Rflev5svMBWQCtUKA7bdWapLLsR0JpM5++X1hOzbD1Jc5qZ0U/xrByJuP8WVTS/XLtPIjbr5oQPe+IxXPfKq+ciyhlgkkWyK3AQQKtLn3h7Zf8toA4SyCCTABJsAEmAATYAJMgAkwgVQT4PeFVFcPK1eGQOa9z5B/8y/cXJotE3ONt8m5tPgS+b3sXFojSU6+CgLpmcG0CuU5CRNgAtuDQNIvQ9uDBpeSCWwtAmy/W6u+WFsmoBJg+1Vp8DkTsBNgO7Fz4dDtSSA1M5i2J34uNRNgAkyACTABJsAEmAATYAJMgAkwASbABLY+gXdKpVI69mDa+iy5BEyACTABJsAEmAATYAJMgAkwASbABJgAE9iWBN7ljXO3Zb1zoZnAliLAU4+3VHWxskxAI8D2q+HgCyawpQiw/W6p6mJlN4kA28kmgWexqSTAS+RSWS2sFBNgAkyACTABJsAEmAATYAJMgAkwASbABLYOAXYwbZ26Yk2ZABNgAkyACTABJsAEmAATYAJMgAkwASaQSgLsYEpltbBSTIAJMAEmwASYABNgAkyACTABJsAEmAAT2DoEqu9gKo3i4vgolk0mC/04NNQm/gcWzJvb7NrFqBYwpK1sadPHrONydpF2/c3ybOC1tZ+ptvyNro+k8pLGW28+myU3aTnYvpKS2vB4bL8K8s2yo82SqxQ99pTtNxYP31wnAi47KNf+1kk8Z1PrBIqY+uMGbi7NVregKz/i5swIpt5WVwznzgRsBGIdTBfJAfSwoKUrPGzDIZvDSItludA67AIGJmdxrXMazy5Po7fZEj8IWsbY+CplBnmsw4mmf1x+BQzE8ilgwHeseQ62boy9LpNfEL8fem3o6ZafdwdOO+m8E/VHugd5tOHic+nuU3Wx5x1f3+XT6xqq8aNtCyjHTubmiucKl+kqPar6qnzUcKUcTs6h3LI8VbvYpdZbN8ZKYT6VnxlsXLpq4TaZRj6kiDLoCttW5RpWL4VRX0OyXGq4Wr9SE0tZ5a2KjmY+5eTKzNV45Iwv11fIdK6jqUel8ZKmd+VrhqvlU/mr4X65S0Cy/k3WrSmLro3nzla2L5edauGuvj5kaqOUvjB7exD1GTzX1PYjS7Be7dXMR9XHJleRH+jH9sv2q9ijZqdKn6WFK/Gp7zLb0prGA7KNpvhILGLH0hbdJT9+b/HgrIahBSsHrS+B4l8/oFD3D3y5p4g7Mzdw569iKODtU9z54ymK8hjeAWSYPNruqWE7T+PLvQ0oLD6FIkGNwedMoGoE3o3NOdOBs6++xVgpj/P1AEqjuP2qFa2xiRw367swfM6/V1rEHFpwjPIs91d6ggfowFlM4qdSl6dHuTSbdJ8GUGemZoBMDy7E6tCBW5f7kJdxSqN4IM+1IznXrgDt03hGTjh6kR8fxffnutCoxfMuGg+M4NmB8AY5M27vagJeP0KufRrDwpFHA5U+jGVH0PRrmLfQ/WEBz04EWkGkR4ezvgsP49OHmvhnC4/CsoDK1he0raTsXPFc4REdEgfEsHeV4/W8lbOwHXq9pfqI4QnNLpYxdn8Sn3ZOY5jshOr+/ig+OZm4AEFEKxurrv2ATabf3qz5kF6TwK3L02F7DiSn6cSwOVEf7vZrLesqimPLpzK7MfR29hXxytn0sKVwxXOF2/JIFhZjXyIDo9wUZu3fYLcTWx9ZM/bl6BuozFa7HvGfmxamySorBbGiusfZ0Xq1V1s+cXKjoAy92X4DRN74hO03eLbXtP0G1Z78RH1nSJ4K4PeWSmhx3A0nMIuf/wTy+1sAPAXqPsDu0g+Y2tmNwzuqoMzOj5B/MYyfV47g1M4q5M9ZMgEHgdgZTEAWx3LAg3lvxkvh10Hkcu1hVvJrgfiyonzJU8PvDmKGUgSe9AIGRNg9XKV04/0YGG9DuEyOHCDhF53l+Ukg141ju2cCPTwF9C86XnpLmKrLkK9joItfFHntH8dolpb/tcjLlwb0g5gpDuLMkP9VSeQb6kk5CQdPZ4/ukLHE86Uah3ncoZlaQq7MdwkLxQ4ckzO8mo/jbHEeSyKlpaxqjuQMnO3ApQONQHOfMkusCc0ZiljA49kw78ZsO1pfLQZLGWlgfXvXBIYPZtVclfOY9KLMfllk/VNKTQ8qWwuafCejlZ0iTZ664lnDVT2UNgXYWEsJ8hjD3lUOLVxy9vJLwlO3ixFoK0d3ZZV25dLf3iasbGJ0lQSgybS378I8zURUnKVB4s04cXGx6RLTfh22THUo+wUxmyj4guyWG2UfL9emaTTMIU9t76rdOcoTzddexxQvWg6/T/f7yaQ8Qpkx9hVGcp8F/VuTHsdos+FN87lTQ/alljmJXYdQUnbmaNdWLePtyNZe2X5tYxNzzEGwk9QD2++6PR9rxH41+5Izj9RnkhyDUdj4KLxxdj8KIo7y/iBma/nhMh9jBpcYl9vyFn0Fv7c431usfSkHbiiBlT/we937yAXOpAb8fU8DCi+qtVwug1z93/DqLc9h2tB6ZmGIn8EEoOnAF8gNjaCQzeL2qx5cPwh8NUfkvAG7nBlDD5czYgYMhANJhgvH0n2VdB69nT2Yuw9cl1+ZF4BD8wX0NueBhUf4ruULPBOOh2X8NAd8erIR+dcduPrLEywfoNk7xtdvkb0tjF64B4NZJYGOB1V9jPPiIBY+nMazE/6skV9GcaG5C+dP9uCBqnPwcmmkT3RJzrV7Imbr4QkMkw+nOItmWjJY7y0FOUOzVc7tBTCLpRKQFzzIaUHXy1i6H86+sIkkZyAOT0RnlYgZYe24Xg/dgVG/F7niI8959bwbX6Efw+ScSlrOIH0Bd+6GzKP1T/X0Ob4uGl92bYVYUxi1z3lckjNraDAiZwBZWdtmhdnYy7ooUw6FM7W78jwtdiEHVV5LwbXOETRi1NFWjuIndbZbJewCXRvReO4Lbyq+JtOVGb3kzeC72TZ87Uc5215uyasrr3UIj61Xw+aUmX5CctB+YZ0dSHHES6tMRzO3fi3gPPUlsXLLlKusXEPvmL4i3u7K6FHx7Wrbl1Fu6ouUv7B/a0Q+UZutJftqxPkkZQ7sWoKLZypjbdox1o5M3Q0ty9oR269OjO1X5xFzFdjRej0fa9N+v5pqwa3LI2LMWXjYjyXQWNA1BlPG2YS+pQ2PF/qQFzP16R3gOHqxiNuiWlxje0fe/N6CQ673lphmzrc2hkDx7Us01H8E8Z1fitx5Gp+t3MC/V/6JU3UycP2OmR0NeLnyCtClrp8AzokJWAiUdTABeRxruYKrdwF6eRQvuJQRLTfI9OC6P7tGzIC5+wiFg1kt3CIzGkQzcyYfoUDLs+bv4Wy2z4sTPNgB1FOcb71lcqBlc6FsEVnENcPcOkaV8ENoeZucMaR+WTIT0PTdy11maPQ6Ei+PXtp3SsQkB1gfxna1A5l2fCJn89BsoimaqdSF3s5FXLwbvsADHbiFJ7htll+VLL/uX9ZfyjynIC27IkeFazcncurNYKb4OQ5NhZmeGQdu5SZxlZYAAmg93INceDs8M9pFeEOe0eBqGueF86QbS51y+Ya8Hx6FQzCQN+E5vMLb8WdiOcw9fOc78rzIHVhC1sEagFziKMo3geHO9ih7v47IDeEuBw3eJedljCXi6TsalVKFSzF8Z5Z0aNjaSglRm1Dycp+qutIyPum4VGQqyyaj+SiOQnLi3e1HQV3+GU1QvRAbF3IMwWJz2S8q10OUz5+RSakzWW/Gn1NuZSKi7d2it6uvKKHifjcqz+wvYvSvqn1Zyp1V+gmjf3O12Uj5jMmY1nTkMLTVZ8rsC2XtVLdreo5Hnjsq05iq3rBbNu5sv078kfZtOGGdCekG228snvCmbkfWPmMVz8datN8cyAlMy+X7kD/R522pAdcYTBlnA8hnO3DV/8gsZkUfpHeARa8aXGN7V94iFb+3hG2Yz7YCgdyeo/g/2iuJ5hWs919dAxpeFMU+TJpja73lcH5MQCGQwMEE5A/2oHV23luqlXRGiyKk/Kn3MHi8cBygZVs0ewgALY+bKc7gzNBgkEXr/DLOGy8Kwc0td6Ivo7KqrzqoxCwcwFgUEkkWft1Xb5Ez61s0uxw6wjGUxQV6HRcOID+tL9Obbdal7PFUwMDUfCggSB8GxZ/5dU4bnAdOGz2FNmNEv5XsKtMT3a+KXk4dqaPyFCeik71ZDpOzdET5Qp08adCvKEZ60oxBYQuUxwRAe1a9VpaoKtFXd2ro6pIp92ArJ6T+KD7NTCoz7sol2Iz7Dpsr136p3oTT0N8Ty6/HNZdAkRttf2ruDr3VKBWex8tLkNmG2Fe03Fr/FtdmjT2basa+FkbxwNY3BHZq2HWkKqNMI1FSG+DQXbEjq+psv1EsbL9RJlqIYUdxfY1jDKNlJ5+PNWq/ngObmLXhKn0I7aSPeQnHYM3duPbLiPjs+fhVOy4QT3U8pIH0L8rkze8tNmgclloCO47gdP0Ifl55f/1VfPMSL+v28fyl9SfLOcYQKLMHk59SODmMfVbElPRB3PE3ihHOoJbjyItw2pDbSyvCYxSQt+hhMDd5BXOHu/1lXd5MGpo1Rb80J/7bOzAz9wTL9KBGKFvkYQ2jZV9hvEBHShDsZeQ7sqQicUcljVj6JdeUx6Whga0ab6E/3G+KvszQPkS79Aw0PYNb3j5QyB1Fo62sMh4NguTeS0rYxYhziRwj9/BYrb/de53Lg2RW4dGRPqb+l5/3K7+ERsurWtFslD3Mf41nRvt05WZnbcZW2JPj01UOUdcxTjwz27hrU/9ybSWuTdjk2HR1yXQOnr02cFv+KqHUUQwOqd0r+yoIeTHXNh3XEKbVq83m6h3tN06mMsNC5G+Jq8m13PdmhCa0O5vehr0E8mLszqrGWgPNtuLIL9DPcd8L1u2LNr319pCglwy/j5Rt0OzfTD3M+C65rnROvpZnjitvCq+mfTXrzzWNkU0u6RPHNK4cm3RPazdW3dl+11Q1Zvt3ZKbVgyMOaMuC+4MQYxOKY60vPzHbL5pq1H4HxDiAZkpO4Bpt5QCjn3K2H7rRiE9ys3j88BHmaIyrxrWNbZK0X35v8Siq7y0qVz7fFAJiuVpp1vqrbpn3Pgb+fIKXpNmODHa/+Q1zb0M1iyu/4WVdpmJHkViWV7c7zIjPmMAGEEg0g8muh7enBS3fOiQi0FIZ7xfIetsf4ZC/rKu1xf0rZFq+9BDJTAJZ/9FCLwrmMjCxlM5fJneyRyxf8mR7y/d6bWGdajypYx7XD3eLDbtJh0Q61nfhUkub2Dsp2DdJK4C/d5K/pItmXYn9aIwXFtoYci5g5umdxyhuiw3E/Zla4suM/2tu4le6lP2a/GnwtCdUyN4vf7M/0DP2XhKDRMxgRllqJ8pw4hs8pk16jfoziuW8zDvSu+q/cRfwtaID8ZG/sKZO9w/YyaWKigaueNZwre5p6UsPvqdfYXOxVuSIUwd7VzmWn08S5SjnSpYuBDqY9tUq9mCKayv2NmFvlxdeO3TVmEmZnlJWxicmsDQul1Pq8YOibNSJq16tNgfA0X5JXVtZL+1uC2ZTan2GS64jn94YuRoqq97uvsJld67y9KbUvux9pCiF9yKr9W8uO9FIWi5c6dx802RfeYedOvv6rO25Y8GymUEuO7LaAdsv2686BpLPHrbfTTPhKTkOoC0UJjBc3who/ZQyBrMoSdtszIk9mzT3knA+WfveCvIOxZn9vnwnAOKen2F642yrvbesaixqlJkv10Zg5z7sX/wP5t4eweFITi04tfcD/P6CbrTg1P4i7vx+I9zQpO4ouve1AG+fAm+eYGTmiZ/DB/hsf0M0rPU0cihirvRf7N7Di+MiuDmgqgTeefbn9P+qKiFp5vQy/0s2uqQpaXqOxwSYQM0SyNU1Y+6N9rt6NVtWLhgTqDUCbL+1VqNcnu1EgO3XUdv83uIAsz2Dk9pJ8a8RjLz5GF82tVQf1MqPuPmiAd37jlQ886n6yrGEWiaQbIncBhAo0ObeH9p+yWsDhLMIJsAEmAATYAJMgAkwASbABJhAAgL83pIAEkeJEMi89xnyb/6Fm0uzkXvrGkDOpcWXyO9l59K6cuXMEhFIzwymROpyJCbABLYjgaRfhrYjGy4zE0g7AbbftNcQ68cE3ATYft1s+A4TkATYTiQJPjIBIDUzmLgymAATYAJMgAkwASbABJgAE2ACTIAJMAEmwAS2JoF3SqVSOvZg2pr8WGsmwASYABNgAkyACTABJsAEmAATYAJMgAlsewLv8sa5274NMAAmkHoCPPU49VXECjIBJwG2XycavsEEUk+A7Tf1VcQKpoAA20kKKoFVSA0BXiKXmqpgRZgAE2ACTIAJMAEmwASYABNgAkyACTABJrA1CbCDaWvWG2vNBJgAE2ACTIAJMAEmwASYABNgAkyACTCB1BBgB1NqqoIVYQJMgAkwASbABJgAE2ACTIAJMAEmwASYwNYkUH0HU2kUF8dHsWzyWejHoaE28T+wYN7cZtcuRrWAIW1lS5s+Zh2Xs4u062+WZwOvrf1MteVvdH0klZc03nrz2Sy5ScvB9pWU1IbHY/tVkG+WHW2WXKXosadsv7F4+CYTYAJbgUARU3/cwM2l2eoqu/Ijbs6MYOptdcVw7kzARiDWwXSRHEAPC1q6wsM2HLI5jLRYlgtt4FLAwOQsrnVO49nlafQ2W+IHQcsYG1+lzCCPdTjR9I/Lr4CBWD4FDPiONc/B1o2x12XyC+L3Q68NPd3y8+7AaSedd6L+SPcgjzZcfC7dfaou9rzj67t8el1DNX60bQHl2MncXPFc4TJdpUdVX5WPGq6Uw8k5lFuWp2oXu9R668ZYKcyn8jODjUtXLdwm08iHFFEG/WHbqlzD6qUw6mtIlksNV+tXamIpq7xV0dHMp5xcmbkaj5zx5foKmc51NPWoNF7S9K58zXC1fCp/NdwvdwlI1r/JujVl0bXx3NnK9uWyUy3c1deHTG2U0hdmbw+iPoPnmtp+ZAnWq72a+aj62OQq8gP92H7ZfhV71OxU6bO0cCU+9V1mW1rTeEC20SofqTyx42GH/NWmc2RXNtgpz7T9sjlxBCZQlkDxrx9QqPsHvtxTxJ2ZG7jzVzFM8/Yp7vzxFEV5DO8AMkwebffUsJ2n8eXeBhQWn0KRoMbgcyZQNQLvxuac6cDZV99irJTH+XoApVHcftWK1thEjpv1XRg+598rLWIOLThGeZb7Kz3BA3TgLCbxU6nL06Ncmk26TwOoM1MzQKYHF2J16MCty33IyzilUTyQ59qRnGtXgPZpPCMnHL3Ij4/i+3NdaNTieReNB0bw7EB4g5wZt3c1Aa8fIdc+jWHhyKOBSh/GsiNo+jXMW+j+sIBnJwKtINKjw1nfhYfx6UNN/LOFR2FZQGXrC9pWUnaueK7wiA6JA2LYu8rxet7KWdgOvd5SfcTwhGYXyxi7P4lPO6cxTHZCdX9/FJ+cTFyAIKKVjVXXfsAm029v1nxIr0ng1uXpsD0HktN0YticqA93+7WWdRXFseVTmd0Yejv7injlbHrYUrjiucJteSQLi7EvkYFRbgqz9m+w24mtj6wZ+3L0DVRmq12P+M9NC9NklZWCWFHd4+xovdqrLZ84uVFQht5svwEib3zC9hs822vafoNq3zInNtvfMsqzoikmMIuf/wTy+1sAPAXqPsDu0g+Y2tmNwzuqoPbOj5B/MYyfV47g1M4q5M9ZMgEHgdgZTEAWx3LAg3lvxkvh10Hkcu1hVtrXFuVLnhp+dxAzlCL4QlDAgAi7h6v0RWa8HwPjbQiXyZEDJPyiszw/CeS6cWz3TKCHp4D+RcdLbwlTdRnydQx08Ysir/3jGM3S8r8WefnSgH4QM8VBnBnyvyqJfEM9KSfh4Ons0R0ylni+VOMwjzs0U0vIlfkuYaHYgWNyhlfzcZwtzmNJpLSUVc2RnIGzHbh0oBFo7lNmiTWhOUMRC3g8G+bdmG1H66vFYCkjPVxv75rA8MGsmqtyHpNelNkvi6x/SqnpQWVrQZPvZLSyU6TJU1c8a7iqh9KmABtrKUEeY9i7yqGFS85efkl46nYxAm3l6K6s0q5c+tvbhJVNjK6SADSZ9vZdmKeZiIqzNEi8GScuLjZdYtqvw5apDmW/IGYTBV+Q3XKj7OPl2jSNhjnkqe1dtTtHeaL52uuY4kXL4ffpwVd12WdRbId+msAY+9LiOS6C/q1Jj2C02fCm+dypIftSy5zErkMoKTtL0m6kyvF2ZGuvbL+2sYk55iC+SeqB7Xfdno81Yr+afYlZS9FxsxZHjsnouTU+Cm/cTWP0aDrx/mA+a8TzTnnvELO8lDG+LX4gx2v3zvG965knux8+MoHVElj5A7/XvY9c4ExqwN/3NKDwolrL5TLI1f8Nr97yHKbVVhmnWx2B+BlMAJoOfIHc0AgK2Sxuv+rB9YPAV3MkzBuwy5kx9OA4I2bAQDiQZLh4MNxXlcujt7MHc/eB6/Ir8wJwaL6A3uY8sPAI37V8gWfC8bCMn+aAT082Iv+6A1d/eYLlAzR7x/j6LbK3hdEL92AwqyTQ8aCqj3FeHMTCh9N4dsKfNfLLKC40d+H8yR48UHUOXi6N9Ikuybl2T8RsPTyBYfLhFGfRTEsG672lIGdotsq5vQBmsVQC8oIHOS3oehlL98PZFzaR5AzE4YnorBIxI6wd1+uhOzDq9yJXfOQ5r5534yv0Y5icU0nLGaQv4M7dkHm0/qmePsfXRePLrq0Qawqj9jmPS3JmDQ1G5AwgK2vbrDAbe1kXZcqhcKZ2V56nxS7ktHivpeBa5wgaMepoK0fxkzrbrRJ2ga6NaDz3hTcVX5Ppyoxe8mbw3WwbvvajnG0vt+TVldc6hMfWq2Fzykw/ITlov7DODqQ44qVVpqOZW78WcJ76kli5ZcpVVq6hd0xfEW93ZfSo+Ha17csoN/VFyl/YvzUin6jN1pJ9NeJ8kjIHdi3BxTOVsTbtGGtHpu6GlmXtiO1XJ8b2q/OIuQrsaL2ej7Vpv19NteDW5REx5iw87McSLONmKLPstWeoMu4GkNfG2zSOt4zlznXhUksbHi/0IS9m+NO7w3H0incTS3ya/Z10fB/THPgWE1gLgeLbl2io/wjiO7/MaOdpfLZyA/9e+SdO1cnA9TtmdjTg5corQJe6fgI4JyZgIVDWwQTkcazlCq7eBejlUbzgUka03CDTg+v+7BoxA+buIxQOZrVwi8xoEM3MmXyEAi3Pmr+Hs9k+L07wYAdQT3G+9ZbJgZbNhbJFZBHXDHPrGFXCD6HlbXLGkPplyUxAS/4ud5mh0etIvDx6ad8pEZMenH0Y29UOZNrxiZzNQ7OJpmimUhd6Oxdx8W74Ag904Bae4LZZflWy/Lp/WX8p85yCtOyKHBWu3ZzIqTeDmeLnODQVZnpmHLiVm8RVWgIIoPVwD3Lh7fDMaBfhDXlGg6tpnBfOk24sdcrlG/J+eBQOwUDehOfwCm/Hn4nlMPfwne/I8yJ3YAlZB2sAcomjKN8Ehjvbo+z9OiI3hLscNHiXnJcxloin72hUShUuxfCdWdKhYWsrJURtQsnLfarqSsv4pONSkaksm4zmozgKyYl3tx8FdflnNEH1QmxcyDEEi81lv6hcD1E+f0Ympc5kvRl/TrmViYi2d4verr6ihIr73ag8s7+I0b+q9mUpd1bpJ4z+zdVmI+UzJmNa05HD0FafKbMvlLVT3a7pOR557qhMY6p6w27ZuLP9OvFH2rfhhHUmpBtsv7F4wpu6HVn7jFU8H2vRfnMgJzAtl+9D/oQ/hg9BemfOZ6gy7o6koS01bGM5IJ/twFX/47SYTX2wT6yWsMensZ8iJ258b+rA10ygygRye47i/2ivJJpXsN5/dQ1oeFEU+zBpjq31lsP5MQGFQAIHE5A/2IPW2XlvqVbSGS2KkPKnnhPr8cJxgJZt0ewhALQ8bqY4gzNDg0EWrfPLOG+8KAQ3t9yJvozKqr7qoBKzcABjUUgkWfh1X71Fzqxv0exy6AjHUBYX6HVcOID8tL5Mb7ZZl7LHUwEDU/OhgCB9GBR/5tc5bXAeOG30FNqMEf1WsqtMT3S/Kno5daSOylOciE72ZjlMztIR5Qt18qRBv6IY6UkzBoUtUB4TAO1Z9VpZoqpEX92poatLptyDrZyQ+qP4NDOpzLgrl2Az7jtsrlz7pXoTTkN/Tyy/HtdcAkVutP2puTv0VqNUeB4vL0FmG2Jf0XJr/VtcmzX2bKoZ+1oYxQNb3xDYqWHXkaqMMo1ESW2AQ3fFjqyqs/1GsbD9RploIYYdxfU1jjGMlp18Ptao/XoObGLWhqv0IdT80LQWG7S1VYLb3I1rv4yIz6WPX7XjAtUDjaNs8an+tArhCyaQIgI7juB0/Qh+Xnl//ZV68xIv6/bx/KX1J8s5xhAosweTn1I4OYx9VsSU9EHc8TeKEc6gluPIi3DakNtLK8JjFJC3yIk1N3kFc4e7/WVd3kwamjVFvzQn/ts7MDP3BMv0oEYoW+RhDaNlX2G8QEdKEOxl5DuypCJxRyWNtyZc3XfEkZAeqnKtOUVZ6A/3m6JZV7QP0S49raZncMtbl47cUTTayirj0UNU7r2khF2MOJfIMXIPj9X6273XuTxIZhUeHelj6n/5eb/yS2i0vKoVzUbZw/zXeGa0T1dudtZmbIU9OT5d5RB1HePEM7ONuzb1L9dW4tqETY5NV5dM5+DZawO35a8SSh3FII/avbI/gpAXc23TcQ1hWr3abK7e0X7jZCozLET+lriaXMt9b0ZoQruz6W3Y+lsH6wAABrpJREFUSyAvxu6saqw10GwrjvwC/Rz3vWDdvqx9pGyDZv9m6qG2wTiZrnROvpZnTlz+1bSvZv25BrXMNrmkp60tSaZx5dike1q7serO9rumqjHbvyMzrR4cceDvmSPGJhTHWl9+YrZfNNWo/Q6IcQDNlJzANbGVg1/n6rg5wTM0aGYyXWxbbcQnuVk8fvgIczQ2psSx8YPcoydSXvQOhzCBdSMglquVZq2/6pZ572Pgzyd4SdJ2ZLD7zW+YexuKLq78hpd1mYodRWJZXt3uMCM+YwIbQCDRDCa7Ht6eFrR865CIQF8svF8g621/hEP+sq7WFvevkGn50gtyZhLI+ss0aNBsLgMTS+n8ZXIne8TyJU+2t3yv1xbWqcaTOuZx/XC32LCbdEikY7233pv2Tgr2TdIK4O+d5C/pollXYj8a44WFNoacC5h5eucxittiA3F/ppb4+uL/mpv4lS5lvyZ/GjztCRWy98vf7L+oGXsviUEiZjCjLLUTZTjxDR7TRohG/RnFcl7mHeld9d+4C/ha0YH4yF9YU6f7B+zkUkVFA1c8a7hW9/5XLX8dfjArTmWtyBGnDvauciw/nyTKUc6VLF0IdDDtq1XswRTXVuxtwt4uL7x26KoxkzI9payMT0xgaVwup9TjB0XZqBOXDVltDoCj/ZK6trJe2t0WzKbU+gyXXEc+vTFyNVRWvd19hcvuXOXpTal92ftIUQrxYwv63nIuO9FIWi5c6dx802RfeYedOvv6rO25Y8GymUEuO7LaAdsv2686BpLPHrbfTTPhKTkOoC0UJrxfv4U+br60+3P7M9RU2hxva/2dPkOJtueYE/ttyiXeZt+ujP1MOfLalHeg0ToGsNmczIKPTCARgZ37sH/xP5h7ewSHIwlacGrvB/j9Bd1owan9Rdz5/Ua4oUndUXTvawHePgXePMHIzBM/hw/w2f6GaFjraeRQxFzpv9i9hxfHRXBzQFUJvPPsz+n/VVVC0szpZf6XbHRJU9L0HI8JMIGaJZCra8bcG+139Wq2rFwwJlBrBNh+a61GuTzbiQDb73aqbS7ragkktZPiXyMYefMxvmxqWa2o5OlWfsTNFw3o3nek4plPyYVwTCYQJZBsiVw03bqHFGhz7w9tv+S17qI4QybABJgAE2ACTIAJMAEmwASYABNgAhtGIPPeZ8i/+RduLs1WVyY5lxZfIr+XnUvVBc252wikZwaTTTsOYwJMgAkASPpliGExASaQPgJsv+mrE9aICSQlwPablBTH284E2E62c+1z2U0CqZnBZCrG10yACTABJsAEmAATYAJMgAkwASbABJgAE2ACW4PAO6VSKR17MG0NXqwlE2ACTIAJMAEmwASYABNgAkyACTABJsAEmIBB4F3eONcgwpdMgAmkjgBPPU5dlbBCTCAxAbbfxKg4IhNIHQG239RVCSuUQgJsJymsFFZp0wjwErlNQ8+CmQATYAJMgAkwASbABJgAE2ACTIAJMAEmUBsE2MFUG/XIpWACTIAJMAEmwASYABNgAkyACTABJsAEmMCmEWAH06ahZ8FMgAkwASbABJgAE2ACTIAJMAEmwASYABOoDQK14WAqjeLi+CiWq1knSWUkjVdNXVeTd9r0Tps+JtOFfhwaahP/AwvmTQBp19+iMgfFEEhLfbr0cIXHFKkqt9Kih6twbLcuMrUdnpZ26dLDFb7RtZIWPVzlZvt1keHwpATS3saTloPjMQGVQLXadaX5uuK7wtUybMR5WvRwlbWGnnHvusoow5efd+PM1Iy8ROvhCQwfaAyu13ayjLHxz/F1MZrL+sox8y9gYHwRF851wV6SAgaGruC7IFkrrrW3B1erOSk8bMPVVz34XshU8+/Arct9yItMXeFSoql3ufhKuqA8qjx53zyq+QJo+QbPTngaejFNPcz08toVzxUu01V6VPVVy6eGK+WgDubuIGSrtrU1vb5MfQoYmJzFtc5pnK/3nUlDMr9WXOscwXkzSeJrg41LVy3cl0m6BH9GPhROHdfkPREjKLMrHy0cit0bTGGTHSixoSdmXyWER9ruRqpksJK6ONmauhnpifWa+iFLmzBFimtXPFe4NZMEgWr5YuzWb2OfzOvPIiGAmB5cVOw5rj2y3WrPNOqntD4jQZVVMQrbbzm4Se3PFc8VXk6u6z7br3jWazZkYVzjz121dZg2HIwz1EirPq/i+4LxTEbScQ2luw9cd75LWAobkaU++yzxkwbF6RJ3Ly7/1aaLy3Ob3zNtROCQY8NqsrH1Q3D14UkVUdNTGh6jqv6SoG636Rj1/wG66gW2EuvUNwAAAABJRU5ErkJggg==;" parent="1" vertex="1">
          <mxGeometry x="-30" y="1000" width="1176" height="276" as="geometry" />
        </mxCell>
      </root>
    </mxGraphModel>
  </diagram>
  <diagram id="UTR54GxKMY6BkBVV4-J2" name="系统架构图">
    <mxGraphModel dx="1374" dy="763" grid="1" gridSize="10" guides="1" tooltips="1" connect="1" arrows="1" fold="1" page="1" pageScale="1" pageWidth="827" pageHeight="1169" math="0" shadow="0">
      <root>
        <mxCell id="p09-FTY9qb_-E2kI5_4c-0" />
        <mxCell id="p09-FTY9qb_-E2kI5_4c-1" parent="p09-FTY9qb_-E2kI5_4c-0" />
        <mxCell id="8--lJT6Su75EmUYAJHCh-0" value="AccessMatrix UIM" style="rounded=0;whiteSpace=wrap;html=1;verticalAlign=top;fillColor=#f5f5f5;strokeColor=#666666;fontColor=#333333;fontStyle=1" vertex="1" parent="p09-FTY9qb_-E2kI5_4c-1">
          <mxGeometry x="110" y="160" width="630" height="390" as="geometry" />
        </mxCell>
        <mxCell id="8--lJT6Su75EmUYAJHCh-1" value="游览器" style="rounded=0;whiteSpace=wrap;html=1;" vertex="1" parent="p09-FTY9qb_-E2kI5_4c-1">
          <mxGeometry x="160" y="80" width="210" height="40" as="geometry" />
        </mxCell>
        <mxCell id="8--lJT6Su75EmUYAJHCh-2" value="外部系统" style="rounded=0;whiteSpace=wrap;html=1;" vertex="1" parent="p09-FTY9qb_-E2kI5_4c-1">
          <mxGeometry x="440" y="80" width="210" height="40" as="geometry" />
        </mxCell>
        <mxCell id="8--lJT6Su75EmUYAJHCh-3" value="界面（GWT，React）" style="rounded=0;whiteSpace=wrap;html=1;fillColor=#d5e8d4;strokeColor=#82b366;" vertex="1" parent="p09-FTY9qb_-E2kI5_4c-1">
          <mxGeometry x="150" y="210" width="250" height="50" as="geometry" />
        </mxCell>
        <mxCell id="8--lJT6Su75EmUYAJHCh-4" value="REST API" style="rounded=0;whiteSpace=wrap;html=1;fillColor=#d5e8d4;strokeColor=#82b366;" vertex="1" parent="p09-FTY9qb_-E2kI5_4c-1">
          <mxGeometry x="460" y="210" width="260" height="50" as="geometry" />
        </mxCell>
        <mxCell id="8--lJT6Su75EmUYAJHCh-5" value="&lt;div&gt;工作流&lt;/div&gt;&lt;div&gt;Apache Activiti&lt;/div&gt;" style="rounded=0;whiteSpace=wrap;html=1;fillColor=#ffe6cc;strokeColor=#d79b00;" vertex="1" parent="p09-FTY9qb_-E2kI5_4c-1">
          <mxGeometry x="150" y="290" width="130" height="60" as="geometry" />
        </mxCell>
        <mxCell id="8--lJT6Su75EmUYAJHCh-6" value="&lt;div&gt;Quartz&amp;nbsp;&lt;/div&gt;&lt;div&gt;作业调度框架&amp;nbsp;&lt;/div&gt;" style="rounded=0;whiteSpace=wrap;html=1;fillColor=#fff2cc;strokeColor=#d6b656;" vertex="1" parent="p09-FTY9qb_-E2kI5_4c-1">
          <mxGeometry x="150" y="380" width="130" height="60" as="geometry" />
        </mxCell>
        <mxCell id="8--lJT6Su75EmUYAJHCh-20" style="edgeStyle=orthogonalEdgeStyle;rounded=0;orthogonalLoop=1;jettySize=auto;html=1;entryX=0.006;entryY=0.528;entryDx=0;entryDy=0;entryPerimeter=0;" edge="1" parent="p09-FTY9qb_-E2kI5_4c-1" source="8--lJT6Su75EmUYAJHCh-8" target="8--lJT6Su75EmUYAJHCh-13">
          <mxGeometry relative="1" as="geometry" />
        </mxCell>
        <mxCell id="8--lJT6Su75EmUYAJHCh-8" value="连接器" style="rounded=0;whiteSpace=wrap;html=1;fillColor=#f8cecc;strokeColor=#b85450;" vertex="1" parent="p09-FTY9qb_-E2kI5_4c-1">
          <mxGeometry x="640" y="290" width="80" height="150" as="geometry" />
        </mxCell>
        <mxCell id="8--lJT6Su75EmUYAJHCh-12" style="edgeStyle=orthogonalEdgeStyle;rounded=0;orthogonalLoop=1;jettySize=auto;html=1;" edge="1" parent="p09-FTY9qb_-E2kI5_4c-1" source="8--lJT6Su75EmUYAJHCh-9" target="8--lJT6Su75EmUYAJHCh-10">
          <mxGeometry relative="1" as="geometry" />
        </mxCell>
        <mxCell id="8--lJT6Su75EmUYAJHCh-9" value="Hibernate" style="rounded=0;whiteSpace=wrap;html=1;fillColor=#e1d5e7;strokeColor=#9673a6;" vertex="1" parent="p09-FTY9qb_-E2kI5_4c-1">
          <mxGeometry x="150" y="470" width="570" height="60" as="geometry" />
        </mxCell>
        <mxCell id="8--lJT6Su75EmUYAJHCh-10" value="" style="shape=cylinder3;whiteSpace=wrap;html=1;boundedLbl=1;backgroundOutline=1;size=15;fillColor=#1ba1e2;strokeColor=#006EAF;fontColor=#ffffff;" vertex="1" parent="p09-FTY9qb_-E2kI5_4c-1">
          <mxGeometry x="405" y="600" width="60" height="80" as="geometry" />
        </mxCell>
        <mxCell id="8--lJT6Su75EmUYAJHCh-11" value="&lt;div&gt;Oracle RDBMS, MS SQL, MySQL &amp;amp; DB2&lt;/div&gt;" style="text;html=1;align=center;verticalAlign=middle;resizable=0;points=[];autosize=1;" vertex="1" parent="p09-FTY9qb_-E2kI5_4c-1">
          <mxGeometry x="460" y="630" width="230" height="20" as="geometry" />
        </mxCell>
        <mxCell id="8--lJT6Su75EmUYAJHCh-13" value="资源" style="rounded=0;whiteSpace=wrap;html=1;verticalAlign=top;fontStyle=1;fillColor=#d0cee2;strokeColor=#56517e;" vertex="1" parent="p09-FTY9qb_-E2kI5_4c-1">
          <mxGeometry x="870" y="160" width="170" height="390" as="geometry" />
        </mxCell>
        <mxCell id="8--lJT6Su75EmUYAJHCh-14" value="CSV" style="rounded=0;whiteSpace=wrap;html=1;fillColor=#fad7ac;strokeColor=#b46504;" vertex="1" parent="p09-FTY9qb_-E2kI5_4c-1">
          <mxGeometry x="895" y="200" width="120" height="40" as="geometry" />
        </mxCell>
        <mxCell id="8--lJT6Su75EmUYAJHCh-15" value="LDAP (Active Directory, OpenLDAP, IBM TDS, etc)" style="rounded=0;whiteSpace=wrap;html=1;fillColor=#fad7ac;strokeColor=#b46504;" vertex="1" parent="p09-FTY9qb_-E2kI5_4c-1">
          <mxGeometry x="895" y="260" width="120" height="60" as="geometry" />
        </mxCell>
        <mxCell id="8--lJT6Su75EmUYAJHCh-16" value="JDBC" style="rounded=0;whiteSpace=wrap;html=1;fillColor=#fad7ac;strokeColor=#b46504;" vertex="1" parent="p09-FTY9qb_-E2kI5_4c-1">
          <mxGeometry x="895" y="340" width="120" height="40" as="geometry" />
        </mxCell>
        <mxCell id="8--lJT6Su75EmUYAJHCh-17" value="&lt;div&gt;数据库用户 (MySQL, MS SQL)&lt;/div&gt;" style="rounded=0;whiteSpace=wrap;html=1;fillColor=#fad7ac;strokeColor=#b46504;" vertex="1" parent="p09-FTY9qb_-E2kI5_4c-1">
          <mxGeometry x="895" y="410" width="120" height="50" as="geometry" />
        </mxCell>
        <mxCell id="8--lJT6Su75EmUYAJHCh-19" value="&lt;div&gt;SAP (目标 / HR)&lt;/div&gt;" style="rounded=0;whiteSpace=wrap;html=1;fillColor=#fad7ac;strokeColor=#b46504;" vertex="1" parent="p09-FTY9qb_-E2kI5_4c-1">
          <mxGeometry x="895" y="480" width="120" height="50" as="geometry" />
        </mxCell>
        <mxCell id="8--lJT6Su75EmUYAJHCh-21" value="策略&lt;br&gt;（授权，互斥）" style="rounded=0;whiteSpace=wrap;html=1;fillColor=#ffe6cc;strokeColor=#d79b00;" vertex="1" parent="p09-FTY9qb_-E2kI5_4c-1">
          <mxGeometry x="320" y="290" width="130" height="60" as="geometry" />
        </mxCell>
        <mxCell id="8--lJT6Su75EmUYAJHCh-22" value="&lt;div&gt;审计&lt;/div&gt;" style="rounded=0;whiteSpace=wrap;html=1;fillColor=#fff2cc;strokeColor=#d6b656;" vertex="1" parent="p09-FTY9qb_-E2kI5_4c-1">
          <mxGeometry x="320" y="380" width="130" height="60" as="geometry" />
        </mxCell>
        <mxCell id="8--lJT6Su75EmUYAJHCh-23" value="身份管理&lt;br&gt;用户，账号，组织" style="rounded=0;whiteSpace=wrap;html=1;fillColor=#ffe6cc;strokeColor=#d79b00;" vertex="1" parent="p09-FTY9qb_-E2kI5_4c-1">
          <mxGeometry x="480" y="290" width="130" height="60" as="geometry" />
        </mxCell>
        <mxCell id="8--lJT6Su75EmUYAJHCh-25" value="&lt;div&gt;自助服务&lt;/div&gt;" style="rounded=0;whiteSpace=wrap;html=1;fillColor=#fff2cc;strokeColor=#d6b656;" vertex="1" parent="p09-FTY9qb_-E2kI5_4c-1">
          <mxGeometry x="480" y="380" width="130" height="60" as="geometry" />
        </mxCell>
      </root>
    </mxGraphModel>
  </diagram>
</mxfile>
